<svg xmlns="http://www.w3.org/2000/svg" xmlns:xlink="http://www.w3.org/1999/xlink" width="80" height="80" viewBox="0 0 80 80">
  <defs>
    <clipPath id="clip-path">
      <rect id="Rect치ngulo_455016" data-name="Rect치ngulo 455016" width="58.575" height="53.764" transform="translate(0 0)" fill="#12263f"/>
    </clipPath>
  </defs>
  <g id="Grupo_1182209" data-name="Grupo 1182209" transform="translate(-179.668 -5521)">
    <rect id="Rect치ngulo_402006" data-name="Rect치ngulo 402006" width="80" height="80" rx="5" transform="translate(179.668 5521)" fill="#5bc0be"/>
    <g id="Grupo_1182211" data-name="Grupo 1182211" transform="translate(190.38 5534.116)">
      <g id="Grupo_1182211-2" data-name="Grupo 1182211" transform="translate(0 0.001)" clip-path="url(#clip-path)">
        <path id="Trazado_991131" data-name="Trazado 991131" d="M149.818,75.39c.988,3.26-.335,6.961-3.761,7.984-6.151,1.836-10.418-6.009-5.578-10.1.319-.269,1.534-.891,1.583-.97a16.083,16.083,0,0,0,.025-1.945,4.629,4.629,0,0,1,1.762-3.053c.247-.2,1.01-.542,1.091-.669s-.146-1.363-.073-1.816c.495-3.081,5.894-2.739,5.208,1.27-.071.414-.75,1.342-.694,1.418.012.016.257.023.363.142,1.592,1.774,1.422,3.739,1.386,5.989,1.822-.1,3.394.6,3.632,2.569.078.641-.112,1.622.013,2.143.031.13,1.5.783,1.719,1.96.85,4.585-6.6,4.217-5.106-.359.287-.877,1.618-1.482,1.645-1.6.142-.585.1-2.967-.809-2.967Zm-1.373-9.96a.96.96,0,1,0-.96.96.96.96,0,0,0,.96-.96m.935,8.209V70.357a4.814,4.814,0,0,0-.654-1.243c-1.4-1.738-4.549-1.039-4.881,1.106a47.114,47.114,0,0,0,.067,5.75,1.014,1.014,0,0,0,1.713-.032c.474-1.037-.3-5.011.328-5.652a.831.831,0,0,1,1.353.247c.363.7.006,2,.208,2.346a10.775,10.775,0,0,0,.946.73,4.141,4.141,0,0,0,.919.03m-7.3.73c-.15-.17-1.117.869-1.23,1.03a4.181,4.181,0,0,0,1.517,6.051,4.232,4.232,0,0,0,5.256-6.351l-.45,1.517c-1.9,3.083-5.789,1.165-5.093-2.247m12.746,6.584a.965.965,0,1,0-.965.965.965.965,0,0,0,.965-.965" transform="translate(-118.196 -53.606)" fill="#12263f"/>
        <path id="Trazado_991132" data-name="Trazado 991132" d="M62.308.089a13.044,13.044,0,0,1,10.481,3.3A13.127,13.127,0,0,1,92.28,5.485c2.775,3.87,2.979,8.439,1.614,12.913a17.45,17.45,0,0,1-1.434,3.38.874.874,0,0,1-1.523-.639c.032-.464,1.048-2.4,1.27-3.115,1.281-4.123,1.139-8.289-1.5-11.837A11.408,11.408,0,0,0,74.9,3.925c-.569.416-1.526,1.568-2.128,1.535-.433-.024-1.574-1.242-2.067-1.6A11.387,11.387,0,0,0,53.967,7.8a13.235,13.235,0,0,0-.488,10.227c.2.647,1.292,2.86,1.27,3.239a.877.877,0,0,1-1.37.653c-.86-.564-2.1-5.35-2.258-6.5C50.159,8.193,54.761.861,62.308.089" transform="translate(-43.556 -0.001)" fill="#12263f"/>
        <path id="Trazado_991133" data-name="Trazado 991133" d="M1.859,82.985V95.751a9.812,9.812,0,0,0,.6,1.876c1.813,4.341,5.173,9.049,7.35,13.367a6.668,6.668,0,0,1,.957,2.557l-1.656,9.005a.878.878,0,0,1-1.688-.142l1.564-8.446.01-.7c-2.227-4.706-5.211-9.146-7.509-13.795A10.909,10.909,0,0,1,.1,95.173c-.3-4.032.152-8.542.1-12.6,1.269-2.77,5.085-.815,5.433,1.664.415,2.954.258,6.213.6,9.177a8.767,8.767,0,0,0,.182,1.131c.282.96,2.151,2.62,1.684,3.5-.97,1.83-3.025-2.371-3.4-3.094L3.865,84.261a1.885,1.885,0,0,0-2.007-1.276" transform="translate(0 -69.371)" fill="#12263f"/>
        <path id="Trazado_991134" data-name="Trazado 991134" d="M336.572,82.966a1.885,1.885,0,0,0-2.007,1.276l-.834,10.692c-.431.775-1.761,3.458-2.63,3.512-2.293.142.711-3.243.909-3.92a8.734,8.734,0,0,0,.182-1.131c.337-2.939.136-6.279.6-9.177.4-2.5,4.127-4.431,5.433-1.664-.048,4.058.4,8.568.1,12.6a10.914,10.914,0,0,1-1.389,4.3c-2.3,4.649-5.282,9.088-7.509,13.795.3,3.071,1.166,6.08,1.574,9.147a.878.878,0,0,1-1.688.142l-1.656-9.005a6.674,6.674,0,0,1,.957-2.557c2.177-4.318,5.536-9.024,7.35-13.367a9.823,9.823,0,0,0,.6-1.876Z" transform="translate(-279.855 -69.352)" fill="#12263f"/>
        <path id="Trazado_991135" data-name="Trazado 991135" d="M73.75,192.653c-.237-.235-.2-1.008-.179-1.35.281-5.89,2.528-11.633.545-17.472a77.057,77.057,0,0,0-3.293-7.8,6.136,6.136,0,0,0-.6-1.147,1.049,1.049,0,0,0-1.758,1.024l2.2,9.63a.844.844,0,0,1-1.645.326l-2.265-9.7a2.783,2.783,0,0,1,5.24-1.74,73.523,73.523,0,0,1,3.588,8.376,18.475,18.475,0,0,1,1.054,7.843,103.6,103.6,0,0,1-1.35,11.2c-.056.286-.132.782-.4.916a1.316,1.316,0,0,1-1.135-.11" transform="translate(-56.975 -139.098)" fill="#12263f"/>
        <path id="Trazado_991136" data-name="Trazado 991136" d="M269.335,192.655a1.316,1.316,0,0,1-1.135.11c-.265-.135-.341-.63-.4-.916a103.255,103.255,0,0,1-1.35-11.2,18.475,18.475,0,0,1,1.054-7.843,73.527,73.527,0,0,1,3.588-8.376,2.782,2.782,0,0,1,5.288,1.045c-.611,3.484-1.525,6.936-2.313,10.392a.844.844,0,0,1-1.645-.326l2.2-9.63a1.049,1.049,0,0,0-1.758-1.024,6.135,6.135,0,0,0-.6,1.147,77.058,77.058,0,0,0-3.293,7.8c-1.991,5.863.263,11.563.545,17.472.016.342.058,1.115-.179,1.35" transform="translate(-227.535 -139.099)" fill="#12263f"/>
        <path id="Trazado_991137" data-name="Trazado 991137" d="M158.115,226.841c.458.479.035,1.06-.328,1.419a37.6,37.6,0,0,1-5.044,3.564c-.9.567-2.63,1.893-3.639,1.622a33.583,33.583,0,0,1-4.857-3.022,27.846,27.846,0,0,1-3.023-2.229c-.807-.843-.4-1.725.688-1.577,2.024,1.371,3.942,2.925,6.04,4.186.4.242,1.235.836,1.654.813a19.243,19.243,0,0,0,3.048-1.776c.717-.468,4.41-3.327,4.818-3.294a2.427,2.427,0,0,1,.642.295" transform="translate(-120.258 -193.493)" fill="#12263f"/>
      </g>
    </g>
  </g>
</svg>
