<svg xmlns="http://www.w3.org/2000/svg" xmlns:xlink="http://www.w3.org/1999/xlink" width="124" height="124" viewBox="0 0 124 124">
  <defs>
    <clipPath id="clip-path">
      <rect id="Rectángulo_455101" data-name="Rectángulo 455101" width="61.888" height="58.069" fill="#bcc6f5"/>
    </clipPath>
  </defs>
  <g id="Grupo_1176313" data-name="Grupo 1176313" transform="translate(-1234.5 -458)">
    <g id="Elipse_12108" data-name="Elipse 12108" transform="translate(1241.5 465)" fill="#2142dc" stroke="#fff" stroke-width="7">
      <circle cx="55" cy="55" r="55" stroke="none"/>
      <circle cx="55" cy="55" r="58.5" fill="none"/>
    </g>
    <g id="Grupo_1183159" data-name="Grupo 1183159" transform="translate(1265.556 490.965)">
      <g id="Grupo_1183159-2" data-name="Grupo 1183159" clip-path="url(#clip-path)">
        <path id="Trazado_997258" data-name="Trazado 997258" d="M3.137,81.578c-3.854-.543-4.512-6.749.036-7.859.286-.07.809.029.949-.057.084-.052.455-1.427.727-1.827A4.843,4.843,0,0,1,13,72.027c.269.466.473,1.383.673,1.649.269.359,1.267.369,1.542.931,7.442-8.12,22.021-9.718,30.267-1.933.3.281,1.243,1.566,1.467,1.583.156.012.974-.467,1.276-.539.318-.076.98.031,1.106-.055.081-.056.439-1.386.726-1.828a4.837,4.837,0,0,1,8.2.294c.238.434.435,1.3.62,1.547.218.29.746.294,1.054.494a4.078,4.078,0,0,1,.642,6.477,5.29,5.29,0,0,1-1.857.929H50.277a17.165,17.165,0,0,1-.459,8.133c-2.408,7.831-9.19,9.133-6.275,19.113.735,2.517,2.5,5.183-1.393,6.193-6-.442-12.842.587-18.74.007-2.8-.275-2.562-3.178-3.314-5.209-2.96.5-9.283,1.434-9.439-3.105-.025-.716.5-2.035.457-2.449-.056-.54-1.245-.934-1.078-2.465.034-.312.293-.659.265-.924-.026-.242-.449-.7-.575-1.114a2.45,2.45,0,0,1-.006-1,6.21,6.21,0,0,1-2.07-.8c-2.237-2.087,1.391-5.526,2.4-7.46,1.615-3.082.976-5.652,1.522-8.928ZM21.6,107.932c.4.4.845,3.631,1.2,4.452.1.232.227.51.494.589L42,113.011c.611-.031.769-.419.659-.975-.187-.941-.886-2.264-1.164-3.334C38.47,97.039,47.95,95.4,48.58,86c.05-.748-.021-3.908-.4-4.417-.088-.12-1.311-.585-1.7-.931a4.252,4.252,0,0,1-1.3-3.626c.066-.539.463-.863.215-1.476a10.587,10.587,0,0,0-1.7-1.86c-6.38-5.645-17.079-5.2-23.871-.5a16.745,16.745,0,0,0-3.148,2.735c-.286.488.093,1.565-.005,2.318a4.481,4.481,0,0,1-1.149,2.256c-.431.421-1.787.982-1.909,1.187a16.33,16.33,0,0,0-.487,2.61c-.25,3.3.218,4.347-1.524,7.455-.59,1.053-2.924,3.709-2.667,4.748.143.577,2.481.178,3.034.714.919.89-.4,1.55-.4,1.943,0,.626,1.29.636,1.4,1.24.263,1.415-1.086,1.359-1.084,1.7.369.583,1.407.7,1.518,1.427.066.433-.706,2-.749,2.758-.146,2.635,3.381,2.1,5.168,1.911.777-.083,3.261-.767,3.776-.253M11.564,73.825c-.335-2.521-4.03-2.947-5.16-.746a7.755,7.755,0,0,0-.436,1.886c-.247.828-1.565.519-2.3.645a2.068,2.068,0,0,0,.24,4.111,61.141,61.141,0,0,0,8.676.006c3.763-.332,1.961-5.47-.915-3.856-.568.319-.888,1.238-1.8.829-1.509-.678.607-2.843,1.688-2.875m45.2,0c-.4-2.634-4.221-2.915-5.28-.556a7.56,7.56,0,0,0-.315,1.7c-.314,1.111-2.75.011-3.684,1.425a2.107,2.107,0,0,0,1.626,3.33,61.163,61.163,0,0,0,8.676.006,2.084,2.084,0,0,0,.262-4.157c-1.378-.153-2.01,1.762-3.066,1.066-1.419-.936.787-2.665,1.781-2.81" transform="translate(0 -57.138)" fill="#bcc6f5"/>
        <path id="Trazado_997259" data-name="Trazado 997259" d="M153.947,14.48a1.015,1.015,0,0,1-1.543-.319,42.007,42.007,0,0,1-1.673-6.073c-.1-1.486,1.324-1.844,1.865-.467a35.775,35.775,0,0,1,1.545,6.2,1.242,1.242,0,0,1-.2.661" transform="translate(-127.393 -5.713)" fill="#bcc6f5"/>
        <path id="Trazado_997260" data-name="Trazado 997260" d="M104.77,34.847a1.085,1.085,0,0,1-1.486-.214L100.074,29a.981.981,0,0,1,1.217-1.212c.776.22,3.083,5.119,3.764,6.012a1.35,1.35,0,0,1-.285,1.042" transform="translate(-84.566 -23.452)" fill="#bcc6f5"/>
        <path id="Trazado_997261" data-name="Trazado 997261" d="M292.789,27.858a1.032,1.032,0,0,1,1.217,1.211l-3.271,5.721c-.857.735-2.058.139-1.656-1.033a46.15,46.15,0,0,1,3.007-5.2c.162-.214.454-.624.7-.7" transform="translate(-244.26 -23.517)" fill="#bcc6f5"/>
        <path id="Trazado_997262" data-name="Trazado 997262" d="M250.543,6.907c.939-.165,1.169.628,1.087,1.4a43.012,43.012,0,0,1-1.588,5.849.966.966,0,0,1-1.868-.472l1.673-6.225a1.01,1.01,0,0,1,.7-.556" transform="translate(-209.75 -5.819)" fill="#bcc6f5"/>
        <path id="Trazado_997263" data-name="Trazado 997263" d="M206.209,7.836a1.118,1.118,0,0,1-1.468,0c-.488-.512-.037-6.061-.192-7.156a.97.97,0,0,1,1.851,0c-.156,1.089.3,6.641-.192,7.156" transform="translate(-172.847 0)" fill="#bcc6f5"/>
        <path id="Trazado_997264" data-name="Trazado 997264" d="M131.75,97.623c.231.181,1.433.409,1.921.636a6.336,6.336,0,0,1,3.435,4.769c.054.568-.165,1.732-.111,1.963.037.159.711.943.864,1.31a4.721,4.721,0,0,1-.394,4.324c-.337.524-.9.85-1.184,1.293s-.324.981-.573,1.439c-.19.35-1.151,1.289-1.18,1.437-.053.271.531,2.041.582,2.615.163,1.816.423,4-1.94,4.1-2.514.11-1.788-2.123-2.789-3.555a20.612,20.612,0,0,0-2.8-2.463c-.187-.037-.85.4-1.17.487a8.223,8.223,0,0,1-6.986-1.157c-.347-.258-1.2-1.311-1.29-1.341a11.506,11.506,0,0,0-1.676-.027,6.226,6.226,0,0,1-5.5-6.276c.028-.548.308-1.185.3-1.547-.013-.414-.538-1.325-.6-2.008a6.145,6.145,0,0,1,4.247-6.277c.769-.246,2.128-.187,2.56-.382.245-.111.774-.819,1.1-1.068a5.24,5.24,0,0,1,4.983-.676c.424.157,1.12.73,1.427.729s1.4-.532,2.032-.59a5.44,5.44,0,0,1,3.361.78c.6.4.994,1.171,1.385,1.477m3.362,6.082a3.812,3.812,0,0,0-2.059-3.591c-.729-.385-1.717-.4-2.268-.673-.783-.384-.836-1.826-2.575-2.069-1.932-.27-1.824.487-3,.844-1.156.351-1.154-.466-1.879-.921a3.239,3.239,0,0,0-3.7.3c-.051.114,1.94.565,1.434,1.736-.57,1.32-1.838.116-2.707-.155-4.5-1.4-7.954,4.115-4.133,7.074.56.434,1.4.489,1.393,1.41-.015,1.4-2.031.751-2.643.074.013,2.284,2.189,3.792,4.332,3.87-.017-.642-.168-1.71.705-1.859,1.352-.23,1.073,1.19,1.387,2.011,1.1,2.865,5.651,3.26,7.961,1.618.794-.564,1.234-1.948,2.29-1.5,1.139.484.235,1.893-.42,2.438a8.367,8.367,0,0,1,3.7,4.668c.081.239-.137.443.325.362a12.908,12.908,0,0,0-.9-4.749c-.287-.735-1.308-1.734-.487-2.443a.954.954,0,0,1,1.164-.091c.372.216.477.976.771.633.465-.543.391-1.388.709-1.923.288-.486,1.1-.731,1.463-1.478a2.7,2.7,0,0,0-1.435-3.694c-.827-.315-2.451-.1-2.214-1.494.2-1.164,2.014-.617,2.786-.4" transform="translate(-93.505 -80.195)" fill="#bcc6f5"/>
        <path id="Trazado_997265" data-name="Trazado 997265" d="M166.684,124.039c7.368-.592,9.055,10.193,2.046,11.953-8.55,2.147-10.574-11.268-2.046-11.953m-.161,2.007c-5.079.668-4.452,8.835,1.337,8.147,5.039-.6,4.412-8.9-1.337-8.147" transform="translate(-136.255 -104.817)" fill="#bcc6f5"/>
        <path id="Trazado_997266" data-name="Trazado 997266" d="M179.962,152.279c-.127-.087-1.689-1.693-1.787-1.847a.911.911,0,0,1,.029-1.281c1.092-1.115,2.085,1.081,2.539,1,.932-.578,2.369-3.2,3.593-2.322.678.484.224,1.221-.162,1.718a32.2,32.2,0,0,1-2.809,2.763,1.3,1.3,0,0,1-1.4-.032" transform="translate(-150.381 -124.796)" fill="#bcc6f5"/>
      </g>
    </g>
  </g>
</svg>
