<svg xmlns="http://www.w3.org/2000/svg" xmlns:xlink="http://www.w3.org/1999/xlink" width="124" height="124" viewBox="0 0 124 124">
  <defs>
    <clipPath id="clip-path">
      <rect id="Rectángulo_455103" data-name="Rectángulo 455103" width="61.362" height="61.261" fill="#bcc6f5"/>
    </clipPath>
  </defs>
  <g id="Grupo_1113092" data-name="Grupo 1113092" transform="translate(-1234.5 -458)">
    <g id="Elipse_12108" data-name="Elipse 12108" transform="translate(1241.5 465)" fill="#2142dc" stroke="#fff" stroke-width="7">
      <circle cx="55" cy="55" r="55" stroke="none"/>
      <circle cx="55" cy="55" r="58.5" fill="none"/>
    </g>
    <g id="Grupo_1183163" data-name="Grupo 1183163" transform="translate(1265.819 489.369)">
      <g id="Grupo_1183162" data-name="Grupo 1183162" clip-path="url(#clip-path)">
        <path id="Trazado_997271" data-name="Trazado 997271" d="M1.526,44.859a2.2,2.2,0,0,1-1.44-1.773c-.152-1.12-.134-4.836.318-5.777a4.576,4.576,0,0,1,.583-.794c2.984-3.661,7.534-7.133,10.762-10.664.381-.328,1.485-.13,1.617-.526L13.4,2.4A3.174,3.174,0,0,1,15.558.122C25.4-.125,35.289.094,45.15.011a3.084,3.084,0,0,1,2.829,2.528L48,25.325c.1.292,1.15.307,1.616.526a6.075,6.075,0,0,1,.889.648c3.358,2.886,6.427,7.094,9.874,10.015a4.576,4.576,0,0,1,.583.794c.452.941.47,4.657.318,5.777-.084.62-.8,1.773-1.44,1.773H57.387c-.168,0-.219.374-.237.528-.486,4.142.387,9.223,0,13.466a3.174,3.174,0,0,1-2.162,2.277c-16.181.175-32.433.175-48.611,0a3.173,3.173,0,0,1-2.162-2.277c-.389-4.243.485-9.324,0-13.466-.018-.154-.07-.528-.237-.528a17.654,17.654,0,0,1-2.449,0M45.985,31.7V2.849A1.37,1.37,0,0,0,44.692,2L16.521,2c-.376-.09-1.144.555-1.144.845V31.7h7.117c.274,0,.043-1.1.076-1.455a3.1,3.1,0,0,1,.759-1.689c.575-.62,1.2-.4,1.065-1.352-.278-1.989-2.66-3.718-3.632-5.555a11.255,11.255,0,1,1,19.841,0c-.951,1.8-3.363,3.609-3.632,5.555-.127.923.195.566.756,1.05a3.09,3.09,0,0,1,1.067,1.992c.034.358-.2,1.455.076,1.455ZM34.8,27.55c.283-3.506,3.638-5.189,4.611-8.321a9.195,9.195,0,1,0-17.02,1.093c.772,1.6,2.114,2.535,2.964,3.923a10.1,10.1,0,0,1,1.209,3.3Zm-21.411.015a1.238,1.238,0,0,0-1.074.38l-8.567,8.8H57.616c-3.014-3.024-5.911-6.21-9.022-9.114l-.62-.068v3.9c0,.418,1.453.015,1.844.491a1.052,1.052,0,0,1-.688,1.736l-37.272-.087c-.5-.392-.786-.9-.431-1.5.428-.724,1.959-.193,1.959-.643Zm12.2,2.026c-1.443.258-1.4,1.919.27,2.106a66.123,66.123,0,0,0,9.641,0c1.746-.2,1.746-1.947,0-2.142-3.065-.343-6.778.225-9.911.036M59.3,38.737H2.062V42.87H59.3Zm-4.132,6.122H6.194V58.4a1.37,1.37,0,0,0,1.294.849H53.874a1.37,1.37,0,0,0,1.294-.849Z" transform="translate(0 0)" fill="#bcc6f5"/>
        <path id="Trazado_997272" data-name="Trazado 997272" d="M193.774,73.154c.925-.163,1.2.667,1.27,1.424a36.876,36.876,0,0,1-.02,5.655c-.223,1.6-1.96,1.619-2.134-.286a36.9,36.9,0,0,1,.02-5.655,1.206,1.206,0,0,1,.865-1.138" transform="translate(-163.285 -61.941)" fill="#bcc6f5"/>
        <path id="Trazado_997273" data-name="Trazado 997273" d="M195.328,141.015a1.09,1.09,0,0,1-1.421-1.65c1.042-1.025,2.364.758,1.421,1.65" transform="translate(-163.921 -117.775)" fill="#bcc6f5"/>
      </g>
    </g>
  </g>
</svg>
