<svg xmlns="http://www.w3.org/2000/svg" xmlns:xlink="http://www.w3.org/1999/xlink" width="295" height="294" viewBox="0 0 295 294">
  <defs>
    <clipPath id="clip-path">
      <rect id="Rectángulo_455005" data-name="Rectángulo 455005" width="271.951" height="246.512" fill="none"/>
    </clipPath>
    <clipPath id="clip-path-3">
      <rect id="Rectángulo_454940" data-name="Rectángulo 454940" width="269.866" height="226.943" fill="#5bc0be"/>
    </clipPath>
    <clipPath id="clip-path-4">
      <rect id="Rectángulo_454941" data-name="Rectángulo 454941" width="8.522" height="8.522" fill="#5bc0be"/>
    </clipPath>
    <clipPath id="clip-path-6">
      <rect id="Rectángulo_454943" data-name="Rectángulo 454943" width="8.521" height="8.521" fill="#5bc0be"/>
    </clipPath>
    <clipPath id="clip-path-7">
      <rect id="Rectángulo_454944" data-name="Rectángulo 454944" width="4.589" height="4.589" fill="#5bc0be"/>
    </clipPath>
    <clipPath id="clip-path-9">
      <rect id="Rectángulo_454946" data-name="Rectángulo 454946" width="4.588" height="4.589" fill="#5bc0be"/>
    </clipPath>
    <clipPath id="clip-path-10">
      <rect id="Rectángulo_454947" data-name="Rectángulo 454947" width="94.144" height="41.239" fill="none"/>
    </clipPath>
    <clipPath id="clip-path-11">
      <rect id="Rectángulo_454948" data-name="Rectángulo 454948" width="9.129" height="16.927" fill="none"/>
    </clipPath>
    <clipPath id="clip-path-12">
      <rect id="Rectángulo_454949" data-name="Rectángulo 454949" width="11.159" height="41.913" fill="none"/>
    </clipPath>
    <clipPath id="clip-path-13">
      <rect id="Rectángulo_454951" data-name="Rectángulo 454951" width="5.651" height="4.602" fill="none"/>
    </clipPath>
    <clipPath id="clip-path-15">
      <rect id="Rectángulo_454953" data-name="Rectángulo 454953" width="2.386" height="0.931" fill="none"/>
    </clipPath>
    <clipPath id="clip-path-16">
      <rect id="Rectángulo_454954" data-name="Rectángulo 454954" width="11.836" height="1.682" fill="none"/>
    </clipPath>
    <clipPath id="clip-path-17">
      <rect id="Rectángulo_454955" data-name="Rectángulo 454955" width="2.379" height="9.686" fill="none"/>
    </clipPath>
    <clipPath id="clip-path-18">
      <rect id="Rectángulo_454956" data-name="Rectángulo 454956" width="37.139" height="25.423" fill="none"/>
    </clipPath>
    <clipPath id="clip-path-19">
      <rect id="Rectángulo_454957" data-name="Rectángulo 454957" width="10.561" height="7.362" fill="none"/>
    </clipPath>
    <clipPath id="clip-path-20">
      <rect id="Rectángulo_454958" data-name="Rectángulo 454958" width="13.034" height="38.676" fill="none"/>
    </clipPath>
    <clipPath id="clip-path-21">
      <rect id="Rectángulo_454959" data-name="Rectángulo 454959" width="35.301" height="3.035" fill="none"/>
    </clipPath>
    <clipPath id="clip-path-22">
      <rect id="Rectángulo_454960" data-name="Rectángulo 454960" width="1.341" height="7.447" fill="none"/>
    </clipPath>
    <clipPath id="clip-path-23">
      <rect id="Rectángulo_454961" data-name="Rectángulo 454961" width="1.855" height="7.095" fill="none"/>
    </clipPath>
    <clipPath id="clip-path-24">
      <rect id="Rectángulo_454962" data-name="Rectángulo 454962" width="19.789" height="3.741" fill="none"/>
    </clipPath>
    <clipPath id="clip-path-25">
      <rect id="Rectángulo_454963" data-name="Rectángulo 454963" width="10.47" height="3.921" fill="none"/>
    </clipPath>
    <clipPath id="clip-path-26">
      <rect id="Rectángulo_454964" data-name="Rectángulo 454964" width="8.962" height="10.743" fill="none"/>
    </clipPath>
    <clipPath id="clip-path-27">
      <rect id="Rectángulo_454967" data-name="Rectángulo 454967" width="2.242" height="12.537" fill="none"/>
    </clipPath>
    <clipPath id="clip-path-28">
      <rect id="Rectángulo_454968" data-name="Rectángulo 454968" width="3.072" height="1.076" fill="none"/>
    </clipPath>
    <clipPath id="clip-path-29">
      <rect id="Rectángulo_454969" data-name="Rectángulo 454969" width="8.706" height="16.803" fill="none"/>
    </clipPath>
    <clipPath id="clip-path-30">
      <rect id="Rectángulo_454972" data-name="Rectángulo 454972" width="18.471" height="35.823" fill="none"/>
    </clipPath>
    <clipPath id="clip-path-31">
      <rect id="Rectángulo_454973" data-name="Rectángulo 454973" width="18.152" height="6.094" fill="none"/>
    </clipPath>
    <clipPath id="clip-path-32">
      <rect id="Rectángulo_454974" data-name="Rectángulo 454974" width="21.675" height="27.805" fill="none"/>
    </clipPath>
    <clipPath id="clip-path-33">
      <rect id="Rectángulo_454975" data-name="Rectángulo 454975" width="6.709" height="7.001" fill="none"/>
    </clipPath>
    <clipPath id="clip-path-34">
      <rect id="Rectángulo_454976" data-name="Rectángulo 454976" width="39.175" height="32.861" fill="none"/>
    </clipPath>
    <clipPath id="clip-path-35">
      <rect id="Rectángulo_454977" data-name="Rectángulo 454977" width="16.943" height="2.776" fill="none"/>
    </clipPath>
    <clipPath id="clip-path-36">
      <rect id="Rectángulo_454978" data-name="Rectángulo 454978" width="7.055" height="3.293" fill="none"/>
    </clipPath>
    <clipPath id="clip-path-37">
      <rect id="Rectángulo_454979" data-name="Rectángulo 454979" width="3.552" height="21.218" fill="none"/>
    </clipPath>
    <clipPath id="clip-path-38">
      <rect id="Rectángulo_454980" data-name="Rectángulo 454980" width="3.53" height="18.452" fill="none"/>
    </clipPath>
    <clipPath id="clip-path-39">
      <rect id="Rectángulo_454981" data-name="Rectángulo 454981" width="8.828" height="3.566" fill="none"/>
    </clipPath>
    <clipPath id="clip-path-40">
      <rect id="Rectángulo_454982" data-name="Rectángulo 454982" width="9.55" height="3.413" fill="none"/>
    </clipPath>
    <clipPath id="clip-path-41">
      <rect id="Rectángulo_454983" data-name="Rectángulo 454983" width="37.369" height="8.158" fill="none"/>
    </clipPath>
    <clipPath id="clip-path-42">
      <rect id="Rectángulo_454984" data-name="Rectángulo 454984" width="15.235" height="8.832" fill="none"/>
    </clipPath>
    <clipPath id="clip-path-43">
      <rect id="Rectángulo_454986" data-name="Rectángulo 454986" width="5.25" height="5.142" fill="none"/>
    </clipPath>
    <clipPath id="clip-path-45">
      <rect id="Rectángulo_454987" data-name="Rectángulo 454987" width="5.501" height="17.012" fill="none"/>
    </clipPath>
    <clipPath id="clip-path-46">
      <rect id="Rectángulo_454988" data-name="Rectángulo 454988" width="37.78" height="40.816" fill="none"/>
    </clipPath>
    <clipPath id="clip-path-47">
      <rect id="Rectángulo_454989" data-name="Rectángulo 454989" width="39.096" height="35.346" fill="none"/>
    </clipPath>
    <clipPath id="clip-path-48">
      <rect id="Rectángulo_454991" data-name="Rectángulo 454991" width="60.197" height="59.913" fill="none"/>
    </clipPath>
    <clipPath id="clip-path-49">
      <rect id="Rectángulo_454993" data-name="Rectángulo 454993" width="5.954" height="6.598" fill="none"/>
    </clipPath>
    <clipPath id="clip-path-50">
      <rect id="Rectángulo_454994" data-name="Rectángulo 454994" width="4.814" height="5.016" fill="none"/>
    </clipPath>
    <clipPath id="clip-path-51">
      <rect id="Rectángulo_454995" data-name="Rectángulo 454995" width="5.441" height="6.598" fill="none"/>
    </clipPath>
    <clipPath id="clip-path-52">
      <rect id="Rectángulo_454996" data-name="Rectángulo 454996" width="4.399" height="5.016" fill="none"/>
    </clipPath>
    <clipPath id="clip-path-53">
      <rect id="Rectángulo_454997" data-name="Rectángulo 454997" width="2.569" height="6.372" fill="none"/>
    </clipPath>
    <clipPath id="clip-path-54">
      <rect id="Rectángulo_454998" data-name="Rectángulo 454998" width="2.813" height="4.647" fill="none"/>
    </clipPath>
    <clipPath id="clip-path-55">
      <rect id="Rectángulo_454999" data-name="Rectángulo 454999" width="22.308" height="12.507" fill="none"/>
    </clipPath>
    <clipPath id="clip-path-56">
      <rect id="Rectángulo_455000" data-name="Rectángulo 455000" width="5.534" height="9.56" fill="none"/>
    </clipPath>
    <clipPath id="clip-path-57">
      <rect id="Rectángulo_455001" data-name="Rectángulo 455001" width="3.092" height="12.41" fill="none"/>
    </clipPath>
    <clipPath id="clip-path-58">
      <rect id="Rectángulo_455002" data-name="Rectángulo 455002" width="13.245" height="10.952" fill="none"/>
    </clipPath>
    <clipPath id="clip-path-59">
      <rect id="Rectángulo_455003" data-name="Rectángulo 455003" width="6.575" height="2.407" fill="none"/>
    </clipPath>
  </defs>
  <g id="Grupo_1176405" data-name="Grupo 1176405" transform="translate(-600.256 -404)">
    <rect id="Rectángulo_35929" data-name="Rectángulo 35929" width="295" height="294" transform="translate(600.256 404)" fill="#cdeceb"/>
    <g id="Grupo_1176580" data-name="Grupo 1176580" transform="translate(611.781 427.744)">
      <g id="Grupo_1176579" data-name="Grupo 1176579" clip-path="url(#clip-path)">
        <g id="Grupo_1176578" data-name="Grupo 1176578">
          <g id="Grupo_1176577" data-name="Grupo 1176577" clip-path="url(#clip-path)">
            <g id="Grupo_1176408" data-name="Grupo 1176408" transform="translate(2.085)" opacity="0.34">
              <g id="Grupo_1176407" data-name="Grupo 1176407">
                <g id="Grupo_1176406" data-name="Grupo 1176406" clip-path="url(#clip-path-3)">
                  <path id="Trazado_988396" data-name="Trazado 988396" d="M29.1,219.2c2.674,3.806,6.838,6.078,11.593,7.738h191.88c6.106-1.823,11.622-4.246,14.861-8.963,7.692-11.2-.6-31.275,3.483-44.7,3.941-12.955,21.93-24.224,21.857-38.557s-18.177-25.4-22.251-38.309c-4.221-13.38,3.867-33.547-3.939-44.66-7.883-11.224-28.72-9.122-39.516-17.262-10.689-8.06-15.4-29.466-28.209-33.747-12.364-4.13-27.976,10.33-41.653,10.407S107.772-3.058,95.451,1.211C82.682,5.635,78.2,27.092,67.589,35.271c-10.712,8.261-31.568,6.393-39.337,17.7-7.691,11.2.6,31.276-3.483,44.7C20.828,110.633,2.839,121.9,2.912,136.234s18.177,25.4,22.251,38.31c4.222,13.38-3.866,33.547,3.939,44.66" transform="translate(-2.911 0)" fill="#5bc0be"/>
                </g>
              </g>
            </g>
            <g id="Grupo_1176411" data-name="Grupo 1176411" transform="translate(10.218 173.057)" opacity="0.34">
              <g id="Grupo_1176410" data-name="Grupo 1176410">
                <g id="Grupo_1176409" data-name="Grupo 1176409" clip-path="url(#clip-path-4)">
                  <path id="Trazado_988397" data-name="Trazado 988397" d="M22.788,245.889a4.261,4.261,0,1,1-4.261-4.261,4.26,4.26,0,0,1,4.261,4.261" transform="translate(-14.267 -241.628)" fill="#5bc0be"/>
                </g>
              </g>
            </g>
            <g id="Grupo_1176414" data-name="Grupo 1176414" transform="translate(208.51 25.567)" opacity="0.34">
              <g id="Grupo_1176413" data-name="Grupo 1176413">
                <g id="Grupo_1176412" data-name="Grupo 1176412" clip-path="url(#clip-path-4)">
                  <path id="Trazado_988398" data-name="Trazado 988398" d="M299.651,39.958a4.261,4.261,0,1,1-4.261-4.26,4.261,4.261,0,0,1,4.261,4.26" transform="translate(-291.129 -35.697)" fill="#5bc0be"/>
                </g>
              </g>
            </g>
            <g id="Grupo_1176417" data-name="Grupo 1176417" transform="translate(262.59 103.245)" opacity="0.34">
              <g id="Grupo_1176416" data-name="Grupo 1176416">
                <g id="Grupo_1176415" data-name="Grupo 1176415" clip-path="url(#clip-path-6)">
                  <path id="Trazado_988399" data-name="Trazado 988399" d="M375.159,148.415a4.261,4.261,0,1,1-4.261-4.261,4.261,4.261,0,0,1,4.261,4.261" transform="translate(-366.637 -144.154)" fill="#5bc0be"/>
                </g>
              </g>
            </g>
            <g id="Grupo_1176420" data-name="Grupo 1176420" transform="translate(16.773 186.167)" opacity="0.34">
              <g id="Grupo_1176419" data-name="Grupo 1176419">
                <g id="Grupo_1176418" data-name="Grupo 1176418" clip-path="url(#clip-path-7)">
                  <path id="Trazado_988400" data-name="Trazado 988400" d="M28.008,262.227a2.294,2.294,0,1,1-2.294-2.293,2.294,2.294,0,0,1,2.294,2.293" transform="translate(-23.419 -259.933)" fill="#5bc0be"/>
                </g>
              </g>
            </g>
            <g id="Grupo_1176423" data-name="Grupo 1176423" transform="translate(221.62 31.794)" opacity="0.34">
              <g id="Grupo_1176422" data-name="Grupo 1176422">
                <g id="Grupo_1176421" data-name="Grupo 1176421" clip-path="url(#clip-path-7)">
                  <path id="Trazado_988401" data-name="Trazado 988401" d="M314.023,46.687a2.294,2.294,0,1,1-2.294-2.294,2.294,2.294,0,0,1,2.294,2.294" transform="translate(-309.434 -44.392)" fill="#5bc0be"/>
                </g>
              </g>
            </g>
            <g id="Grupo_1176426" data-name="Grupo 1176426" transform="translate(257.018 99.639)" opacity="0.34">
              <g id="Grupo_1176425" data-name="Grupo 1176425">
                <g id="Grupo_1176424" data-name="Grupo 1176424" clip-path="url(#clip-path-9)">
                  <path id="Trazado_988402" data-name="Trazado 988402" d="M363.446,141.415a2.294,2.294,0,1,1-2.294-2.294,2.294,2.294,0,0,1,2.294,2.294" transform="translate(-358.858 -139.12)" fill="#5bc0be"/>
                </g>
              </g>
            </g>
            <path id="Trazado_988403" data-name="Trazado 988403" d="M44.876,261.838c-.374-1.035-9.128-25.5-7.025-38.819l1.508.239c-2.043,12.935,6.863,37.811,6.953,38.061Z" transform="translate(-10.649 -63.29)" fill="#00a58c"/>
            <path id="Trazado_988404" data-name="Trazado 988404" d="M67.808,263.013c0-.193-.312-19.438-4.428-33.846l1.468-.419c4.173,14.606,4.484,34.049,4.486,34.244Z" transform="translate(-17.986 -64.916)" fill="#00a58c"/>
            <path id="Trazado_988405" data-name="Trazado 988405" d="M338.545,279.374c-.035-.314-3.509-31.539-4.887-40.5l1.509-.233c1.384,9,4.862,40.253,4.9,40.568Z" transform="translate(-94.688 -67.722)" fill="#00a58c"/>
            <path id="Trazado_988406" data-name="Trazado 988406" d="M355.493,288.092l-1.345-.724a49.6,49.6,0,0,0,3.744-10.8,77.745,77.745,0,0,0,1.149-28.921l1.513-.216c3.489,24.429-4.974,40.5-5.06,40.662" transform="translate(-100.503 -70.218)" fill="#00a58c"/>
            <path id="Trazado_988407" data-name="Trazado 988407" d="M35.83,223.792s-5.781,2.223-7.56-12.9c0,0,1.779-1.334,3.557,2.668s0-7.114,2.224-4.446a12.313,12.313,0,0,1,2.668,4.891s.445-7.559,2.223-4.891c0,0,4.891,12.9-3.113,14.674" transform="translate(-8.023 -59.183)" fill="#ffa5d2"/>
            <path id="Trazado_988408" data-name="Trazado 988408" d="M63.1,233.732s-5.781,2.223-7.559-12.9c0,0,1.778-1.334,3.557,2.668s0-7.114,2.224-4.446a12.313,12.313,0,0,1,2.668,4.891s.445-7.559,2.223-4.891c0,0,4.891,12.9-3.113,14.674" transform="translate(-15.761 -62.004)" fill="#ffa5d2"/>
            <path id="Trazado_988409" data-name="Trazado 988409" d="M332.426,240.563s-5.781,2.223-7.56-12.9c0,0,1.779-1.334,3.557,2.668s0-7.114,2.224-4.446a12.313,12.313,0,0,1,2.668,4.891s.445-7.559,2.223-4.891c0,0,4.891,12.9-3.113,14.674" transform="translate(-92.193 -63.943)" fill="#ffa5d2"/>
            <path id="Trazado_988410" data-name="Trazado 988410" d="M359.75,248.369s-5.781,2.223-7.56-12.9c0,0,1.779-1.334,3.557,2.668s0-7.114,2.224-4.446a12.313,12.313,0,0,1,2.668,4.891s.445-7.559,2.223-4.891c0,0,4.891,12.9-3.113,14.674" transform="translate(-99.947 -66.158)" fill="#ffa5d2"/>
            <path id="Trazado_988411" data-name="Trazado 988411" d="M335.585,308.394c2.69-4.32,3.63-10.194.781-14.412s-10.185-5.011-12.816-.655c.319-5.538-.186-12.038-4.793-15.129-5.185-3.479-13.49,1.11-13.305,7.35-.4-5.781-1.14-12.237-5.614-15.92-3.782-3.113-9.553-3.207-13.784-.738a16.5,16.5,0,0,0-7.585,12c.823-6.692-7.084-12.433-13.486-10.32s-9.579,10.346-7.08,16.608c-1.419-4.547-8.411-5.419-11.676-1.95s-2.8,9.351.092,13.135l2.514,9.433Z" transform="translate(-69.233 -75.815)" fill="#00a58c"/>
            <path id="Trazado_988412" data-name="Trazado 988412" d="M114.07,298.636c2.69-4.32,3.63-10.194.781-14.412s-10.185-5.011-12.816-.655c.319-5.538-.186-12.038-4.793-15.129-5.185-3.479-13.49,1.11-13.305,7.35-.4-5.781-1.14-12.237-5.614-15.92-3.782-3.113-9.553-3.207-13.783-.738a16.5,16.5,0,0,0-7.585,12c.824-6.692-7.084-12.433-13.486-10.32s-9.579,10.346-7.08,16.608c-1.42-4.547-8.412-5.419-11.677-1.95s-2.8,9.351.092,13.135l2.514,9.433Z" transform="translate(-6.369 -73.046)" fill="#00a58c"/>
            <g id="Grupo_1176429" data-name="Grupo 1176429" transform="translate(96.702 185.662)" opacity="0.46">
              <g id="Grupo_1176428" data-name="Grupo 1176428">
                <g id="Grupo_1176427" data-name="Grupo 1176427" clip-path="url(#clip-path-10)">
                  <path id="Trazado_988413" data-name="Trazado 988413" d="M226.646,300.466c2.69-4.32,3.63-10.194.781-14.411s-10.185-5.012-12.816-.656c.319-5.538-.186-12.038-4.793-15.129-5.185-3.478-13.49,1.11-13.306,7.35-.4-5.781-1.139-12.236-5.614-15.92-3.782-3.113-9.553-3.207-13.783-.738a16.5,16.5,0,0,0-7.585,12c.824-6.692-7.084-12.433-13.486-10.32s-9.579,10.346-7.08,16.608c-1.419-4.547-8.411-5.419-11.676-1.95s-2.8,9.351.092,13.135l2.514,9.433Z" transform="translate(-135.019 -259.227)" fill="#00a58c"/>
                </g>
              </g>
            </g>
            <path id="Trazado_988414" data-name="Trazado 988414" d="M269.078,322.892c0,6.562-60.235,11.881-134.539,11.881S0,329.454,0,322.892s60.235-11.881,134.539-11.881,134.539,5.319,134.539,11.881" transform="translate(0 -88.261)" fill="#bcc6f5"/>
            <path id="Trazado_988415" data-name="Trazado 988415" d="M208.214,73.849a5.987,5.987,0,0,0-.9-3.16,7.833,7.833,0,0,0-2.641-10.014c.023-.256.039-.514.039-.775a8.53,8.53,0,0,0-10.173-8.383,6.016,6.016,0,0,0-11.014-.711A6.01,6.01,0,0,0,173.4,52.758a6.021,6.021,0,0,0-6.3,9.261,6.011,6.011,0,0,0-.426,10.065,6.022,6.022,0,1,0,8.275-1.227,6.007,6.007,0,0,0,.208-7.055,6.033,6.033,0,0,0,2.574-3.1,5.993,5.993,0,0,0,6.677-3.119,6.007,6.007,0,0,0,3.247,1.876c-.008.148-.023.294-.023.443a8.535,8.535,0,0,0,4.832,7.685,7.833,7.833,0,0,0,3.712,6.282,5.935,5.935,0,0,0,.047.709,6.021,6.021,0,1,0,8.194,5.614,6.086,6.086,0,0,0-.048-.727,6.02,6.02,0,0,0,3.853-5.614" transform="translate(-46.583 -13.49)" fill="#223147"/>
            <path id="Trazado_988416" data-name="Trazado 988416" d="M201.1,94.489s-.543,11.134.271,12.763c0,0-5.431,3.259-13.578,1.086l-.271-9.233s8.418-12.492,13.578-4.617" transform="translate(-53.215 -26.076)" fill="#aa664f"/>
            <g id="Grupo_1176432" data-name="Grupo 1176432" transform="translate(134.303 66.082)" opacity="0.17">
              <g id="Grupo_1176431" data-name="Grupo 1176431">
                <g id="Grupo_1176430" data-name="Grupo 1176430" clip-path="url(#clip-path-11)">
                  <path id="Trazado_988417" data-name="Trazado 988417" d="M196.607,105.25c.016-4.092.352-9.031-1.238-12.984-4.056,1.317-7.85,6.948-7.85,6.948l.271,9.233a20.656,20.656,0,0,0,8.777.481c.016-1.228.036-2.455.041-3.678" transform="translate(-187.518 -92.266)" fill="#051d58"/>
                </g>
              </g>
            </g>
            <path id="Trazado_988418" data-name="Trazado 988418" d="M181.856,171.339s-7.022,9.363-7.608,19.019c0,0,10.533,0,14.045,5.56h7.315s6.437-9.364,16.385-8.193a32.781,32.781,0,0,0-8.778-16.678c-7.608-7.9-15.8-11.119-21.36.292" transform="translate(-49.45 -46.516)" fill="#155897"/>
            <path id="Trazado_988419" data-name="Trazado 988419" d="M204.071,202.286s1.179,31.93,4.981,36.574c0,0,5.975,5.676,10.319-1.548,0,0,5.431-35.6-.271-47.471,0,0-13.22-5.811-15.028,12.446" transform="translate(-57.913 -53.625)" fill="#155897"/>
            <path id="Trazado_988420" data-name="Trazado 988420" d="M173.68,199.632s1.381,31.922,5.212,36.542c0,0,6.01,5.638,10.309-1.614,0,0,5.205-35.637-.572-47.469,0,0-13.256-5.725-14.949,12.541" transform="translate(-49.288 -52.853)" fill="#155897"/>
            <path id="Trazado_988421" data-name="Trazado 988421" d="M190.379,249.832s6.031,8.923-1.909,41.561l-5.16.032-5.451-46.13s12.74-3.611,12.52,4.537" transform="translate(-50.474 -69.386)" fill="#155897"/>
            <g id="Grupo_1176435" data-name="Grupo 1176435" transform="translate(130.939 180.128)" opacity="0.17">
              <g id="Grupo_1176434" data-name="Grupo 1176434">
                <g id="Grupo_1176433" data-name="Grupo 1176433" clip-path="url(#clip-path-12)">
                  <path id="Trazado_988422" data-name="Trazado 988422" d="M191.78,251.5c-2.787,6.919.342,16.444-2.957,23.238-1.335,2.75-3.8,3.6-6,2.625l1.9,16.05,5.159-.033c7.941-32.637,1.909-41.56,1.909-41.56,0-.112-.005-.213-.007-.319" transform="translate(-182.822 -251.5)" fill="#051d58"/>
                </g>
              </g>
            </g>
            <path id="Trazado_988423" data-name="Trazado 988423" d="M143.771,107.621l-1.623-5.743c-.381-.955-1.391-3.5-1.443-3.779a.579.579,0,0,1,.262-.551c.722-.435,1.932,2.992,2.1,3.473.074-.044.15-.087.229-.13-.554-1.563-1.6-4.542-1.662-4.887a.661.661,0,0,1,.3-.689c.843-.44,2.345,4.239,2.586,5.011.14-.057.281-.112.422-.165-.478-1.716-1.505-5.426-1.558-5.833a.675.675,0,0,1,.333-.718c.953-.406,2.458,5.986,2.458,5.986.009.044.017.085.024.127q.238-.077.457-.145c-.272-1.592-.827-4.87-.829-5.23a.662.662,0,0,1,.413-.628c.986-.317,1.71,5.49,1.71,5.49l1.463,3.12c.278-.064.544-.352.719-1.06.339-1.375.624-1.374.624-1.374,1.327.095.536,2.342.219,4.427a5.307,5.307,0,0,1-1.743,3.067,1.143,1.143,0,0,1-.27.221l-.161,2.6-4.549.922Z" transform="translate(-39.928 -26.56)" fill="#aa664f"/>
            <g id="Grupo_1176441" data-name="Grupo 1176441" transform="translate(103.853 75.719)" opacity="0.62">
              <g id="Grupo_1176440" data-name="Grupo 1176440">
                <g id="Grupo_1176439" data-name="Grupo 1176439" clip-path="url(#clip-path-13)">
                  <g id="Grupo_1176438" data-name="Grupo 1176438" opacity="0.48">
                    <g id="Grupo_1176437" data-name="Grupo 1176437">
                      <g id="Grupo_1176436" data-name="Grupo 1176436" clip-path="url(#clip-path-13)">
                        <path id="Trazado_988424" data-name="Trazado 988424" d="M147.444,110.311c-.357-2.833,2.929-4.367,3.193-4.484l.017-.008-.042-.1-.012.006c-.127.056-1.259.549-2.469.975-2.121.748-2.84.727-3.07.578l-.057.088c.631.409,3.3-.581,4.732-1.164-1.055.678-2.654,2.062-2.4,4.118Z" transform="translate(-145.003 -105.722)" fill="#051d58"/>
                      </g>
                    </g>
                  </g>
                </g>
              </g>
            </g>
            <path id="Trazado_988425" data-name="Trazado 988425" d="M176.161,119.441s4.8,4.416-18.518,26.98a5.182,5.182,0,0,1-5.157-.985c-2.495-2.114,15.469-26.236,15.469-26.236s4.923-5.694,8.206.241" transform="translate(-43.206 -33.129)" fill="#63cfe8"/>
            <path id="Trazado_988426" data-name="Trazado 988426" d="M156.134,142.373c.188-1.574,3.821-6.263-5.189-28.441l-6.51.415s1.826,22.931,5.923,31.174c0,0,5.082,2.664,5.776-3.148" transform="translate(-40.989 -32.333)" fill="#63cfe8"/>
            <path id="Trazado_988427" data-name="Trazado 988427" d="M188,309.825c-.612-3.816,1.223-15.095,1.223-15.095l-10.6-.142L181.2,306.57c-.741,2.053-3.04,5.968-9.838,6.171,0,0-3.411,2.107-.524,4.928,0,0,13.363.567,17.3-1.843,0,0,.471-1.419-.129-5.155a2.7,2.7,0,0,0-.01-.847" transform="translate(-48.151 -83.601)" fill="#223147"/>
            <g id="Grupo_1176444" data-name="Grupo 1176444" transform="translate(137.566 180.219)" opacity="0.48">
              <g id="Grupo_1176443" data-name="Grupo 1176443">
                <g id="Grupo_1176442" data-name="Grupo 1176442" clip-path="url(#clip-path-15)">
                  <rect id="Rectángulo_454952" data-name="Rectángulo 454952" width="2.341" height="0.465" transform="matrix(0.979, -0.203, 0.203, 0.979, 0, 0.476)" fill="#223147"/>
                </g>
              </g>
            </g>
            <g id="Grupo_1176447" data-name="Grupo 1176447" transform="translate(137.372 147.861)" opacity="0.48">
              <g id="Grupo_1176446" data-name="Grupo 1176446">
                <g id="Grupo_1176445" data-name="Grupo 1176445" clip-path="url(#clip-path-16)">
                  <path id="Trazado_988428" data-name="Trazado 988428" d="M200.337,208.131a33.6,33.6,0,0,1-8.534-1.238l.135-.445c.062.019,6.354,1.9,11.619.955l.082.458a18.912,18.912,0,0,1-3.3.27" transform="translate(-191.803 -206.449)" fill="#223147"/>
                </g>
              </g>
            </g>
            <g id="Grupo_1176450" data-name="Grupo 1176450" transform="translate(143.248 134.831)" opacity="0.48">
              <g id="Grupo_1176449" data-name="Grupo 1176449">
                <g id="Grupo_1176448" data-name="Grupo 1176448" clip-path="url(#clip-path-17)">
                  <path id="Trazado_988429" data-name="Trazado 988429" d="M200.008,197.942l.4-9.686.465.019-.373,9.155,1.85-.168.042.464Z" transform="translate(-200.008 -188.256)" fill="#223147"/>
                </g>
              </g>
            </g>
            <path id="Trazado_988430" data-name="Trazado 988430" d="M178.214,114.947l5.482-2.6,15.76-2.192,7.263,3.7s-2.192,32.754-1.508,33.85,7.264,19.871,7.4,23.434c0,0-30.013,0-37.139-2.33,0,0,3.974-11.1,6.167-15.212s-.138-14.664-.138-14.664-5.893-5.756-2.467-13.157Z" transform="translate(-49.797 -31.26)" fill="#63cfe8"/>
            <g id="Grupo_1176453" data-name="Grupo 1176453" transform="translate(125.676 114.453)" opacity="0.17">
              <g id="Grupo_1176452" data-name="Grupo 1176452">
                <g id="Grupo_1176451" data-name="Grupo 1176451" clip-path="url(#clip-path-18)">
                  <path id="Trazado_988431" data-name="Trazado 988431" d="M205.212,161.791a7.442,7.442,0,0,1-.132-1.989c-2.639,5.662-6.638,11.09-12.027,14.294-4.774,2.838-10.287,3.85-15.78,3.943-1.039,2.733-1.8,4.856-1.8,4.856,7.126,2.33,37.139,2.33,37.139,2.33-.138-3.563-6.715-22.338-7.4-23.434" transform="translate(-175.473 -159.803)" fill="#051d58"/>
                </g>
              </g>
            </g>
            <path id="Trazado_988432" data-name="Trazado 988432" d="M182.418,115.048s-5.161,39.281-2.294,53.331c0,0,8.029,1.434,9.749.574s2.867-50.464,2.581-53.618-8.889-2.867-10.036-.286" transform="translate(-50.871 -32.08)" fill="#ffd7a2"/>
            <g id="Grupo_1176456" data-name="Grupo 1176456" transform="translate(131.065 80.961)" opacity="0.17">
              <g id="Grupo_1176455" data-name="Grupo 1176455">
                <g id="Grupo_1176454" data-name="Grupo 1176454" clip-path="url(#clip-path-19)">
                  <path id="Trazado_988433" data-name="Trazado 988433" d="M191.8,120.358q.879-.063,1.748-.191c.026-2.567.017-4.319-.029-4.832-.286-3.154-8.889-2.867-10.036-.286,0,0-.193,1.467-.482,3.928a21.956,21.956,0,0,0,8.8,1.382" transform="translate(-182.998 -113.041)" fill="#051d58"/>
                </g>
              </g>
            </g>
            <g id="Grupo_1176459" data-name="Grupo 1176459" transform="translate(128.387 98.471)" opacity="0.17">
              <g id="Grupo_1176458" data-name="Grupo 1176458">
                <g id="Grupo_1176457" data-name="Grupo 1176457" clip-path="url(#clip-path-20)">
                  <path id="Trazado_988434" data-name="Trazado 988434" d="M189.537,152.532a22.635,22.635,0,0,1-4.3,6.755c-1.738,1.864-3.816,2.417-5.98,3.254a67.513,67.513,0,0,0,.866,12.776s8.028,1.434,9.748.574c1.145-.572,2.035-22.713,2.419-38.4-.876,5.025-.8,10.212-2.755,15.044" transform="translate(-179.258 -137.489)" fill="#051d58"/>
                </g>
              </g>
            </g>
            <path id="Trazado_988435" data-name="Trazado 988435" d="M182.9,107.17s-1.872,1.872-.535,3.21-2.14,1.605-.8,3.477,17.12,5.083,22.2-1.605c0,0,1.605-1.605.268-3.21s-.8-2.942-1.07-3.745-16.852,3.21-20.063,1.873" transform="translate(-51.438 -29.852)" fill="#ffd7a2"/>
            <g id="Grupo_1176462" data-name="Grupo 1176462" transform="translate(126.188 136.083)" opacity="0.48">
              <g id="Grupo_1176461" data-name="Grupo 1176461">
                <g id="Grupo_1176460" data-name="Grupo 1176460" clip-path="url(#clip-path-21)">
                  <path id="Trazado_988436" data-name="Trazado 988436" d="M204.334,193.039c-11.462,0-27.941-2.544-28.146-2.576l.072-.46c.254.039,25.562,3.946,35.14,2.057l.09.456a39.118,39.118,0,0,1-7.155.522" transform="translate(-176.188 -190.004)" fill="#223147"/>
                </g>
              </g>
            </g>
            <g id="Grupo_1176465" data-name="Grupo 1176465" transform="translate(127.993 91.22)" opacity="0.48">
              <g id="Grupo_1176464" data-name="Grupo 1176464">
                <g id="Grupo_1176463" data-name="Grupo 1176463" clip-path="url(#clip-path-22)">
                  <path id="Trazado_988437" data-name="Trazado 988437" d="M179.007,134.812l-.3-.357c.511-.426.819-4.4.875-7.09l.466.009c-.023,1.117-.183,6.721-1.043,7.438" transform="translate(-178.709 -127.365)" fill="#223147"/>
                </g>
              </g>
            </g>
            <g id="Grupo_1176468" data-name="Grupo 1176468" transform="translate(113.85 98.752)" opacity="0.48">
              <g id="Grupo_1176467" data-name="Grupo 1176467">
                <g id="Grupo_1176466" data-name="Grupo 1176466" clip-path="url(#clip-path-23)">
                  <path id="Trazado_988438" data-name="Trazado 988438" d="M158.994,144.976c-.279-1.815,1.311-6.881,1.379-7.095l.443.14c-.016.052-1.624,5.176-1.362,6.884Z" transform="translate(-158.961 -137.881)" fill="#223147"/>
                </g>
              </g>
            </g>
            <g id="Grupo_1176471" data-name="Grupo 1176471" transform="translate(131.61 78.521)" opacity="0.48">
              <g id="Grupo_1176470" data-name="Grupo 1176470">
                <g id="Grupo_1176469" data-name="Grupo 1176469" clip-path="url(#clip-path-24)">
                  <path id="Trazado_988439" data-name="Trazado 988439" d="M190.983,113.375a46.691,46.691,0,0,1-7.032-.538.233.233,0,1,1,.079-.458c.135.023,13.524,2.252,19.13-2.687a.233.233,0,1,1,.308.35c-2.43,2.141-6.458,3.261-11.971,3.33l-.514,0" transform="translate(-183.758 -109.634)" fill="#223147"/>
                </g>
              </g>
            </g>
            <g id="Grupo_1176474" data-name="Grupo 1176474" transform="translate(141.203 80.44)" opacity="0.48">
              <g id="Grupo_1176473" data-name="Grupo 1176473">
                <g id="Grupo_1176472" data-name="Grupo 1176472" clip-path="url(#clip-path-25)">
                  <path id="Trazado_988440" data-name="Trazado 988440" d="M198.378,116.234c-.572,0-.944-.025-1.01-.03a.233.233,0,0,1,.034-.464c.074.005,7.426.491,9.79-3.317a.233.233,0,0,1,.4.246c-1.989,3.2-7.037,3.565-9.209,3.565" transform="translate(-197.153 -112.313)" fill="#223147"/>
                </g>
              </g>
            </g>
            <g id="Grupo_1176477" data-name="Grupo 1176477" transform="translate(129.965 112.371)" opacity="0.48">
              <g id="Grupo_1176476" data-name="Grupo 1176476">
                <g id="Grupo_1176475" data-name="Grupo 1176475" clip-path="url(#clip-path-26)">
                  <path id="Trazado_988441" data-name="Trazado 988441" d="M181.695,167.64a.232.232,0,0,1-.072-.453c.076-.025,7.54-2.516,8.337-10.081a.233.233,0,1,1,.463.048c-.828,7.873-8.578,10.45-8.657,10.476a.221.221,0,0,1-.071.011" transform="translate(-181.462 -156.897)" fill="#223147"/>
                </g>
              </g>
            </g>
            <path id="Trazado_988442" data-name="Trazado 988442" d="M214.472,155.109l1.259,41.548c.148,4.876,3.928,8.754,8.4,8.619s8.012-4.236,7.864-9.112l-1.259-41.548Zm14.631,2.244,1.008,33.285-12.835.389-1.008-33.285Zm-5.085,44.166h0c-3.529.107-6.523-3.285-6.651-7.538l-.053-1.75,12.835-.389.053,1.75c.129,4.253-2.654,7.82-6.183,7.927" transform="translate(-60.865 -43.878)" fill="#223147"/>
            <path id="Trazado_988443" data-name="Trazado 988443" d="M230.475,155.717l-16.56.5a1,1,0,0,1-.061-2l16.56-.5a1,1,0,0,1,.061,2" transform="translate(-60.414 -43.622)" fill="#223147"/>
            <rect id="Rectángulo_454965" data-name="Rectángulo 454965" width="3.005" height="74.049" transform="matrix(1, -0.03, 0.03, 1, 161.705, 159.394)" fill="#223147"/>
            <path id="Trazado_988444" data-name="Trazado 988444" d="M232.175,327.363l-6.1.185a1.742,1.742,0,1,1-.105-3.483l6.1-.185a1.742,1.742,0,1,1,.105,3.483" transform="translate(-63.649 -91.913)" fill="#223147"/>
            <path id="Trazado_988445" data-name="Trazado 988445" d="M218.971,115.538s6.516-.271,5.973,32.587a5.192,5.192,0,0,1-4.344,2.987c-3.259.272-7.6-29.871-7.6-29.871s-.544-7.6,5.974-5.7" transform="translate(-60.443 -32.702)" fill="#63cfe8"/>
            <path id="Trazado_988446" data-name="Trazado 988446" d="M220.8,158.661c-.3,1.558-2.775,5.748,4.713,28.486l5.062.267s-.271-23-3.8-31.5c0,0-4.889-3-5.974,2.75" transform="translate(-62.482 -44.024)" fill="#63cfe8"/>
            <g id="Grupo_1176480" data-name="Grupo 1176480" transform="translate(153.539 93.522)" opacity="0.48">
              <g id="Grupo_1176479" data-name="Grupo 1176479">
                <g id="Grupo_1176478" data-name="Grupo 1176478" clip-path="url(#clip-path-27)">
                  <rect id="Rectángulo_454966" data-name="Rectángulo 454966" width="0.466" height="12.598" transform="translate(0 0.066) rotate(-8.128)" fill="#223147"/>
                </g>
              </g>
            </g>
            <g id="Grupo_1176483" data-name="Grupo 1176483" transform="translate(160.47 115.333)" opacity="0.48">
              <g id="Grupo_1176482" data-name="Grupo 1176482">
                <g id="Grupo_1176481" data-name="Grupo 1176481" clip-path="url(#clip-path-28)">
                  <path id="Trazado_988447" data-name="Trazado 988447" d="M224.425,162.107c-.209,0-.348-.008-.37-.009l.029-.465c.579.036,2.185,0,2.684-.6l.358.3c-.576.691-2.017.778-2.7.778" transform="translate(-224.054 -161.032)" fill="#223147"/>
                </g>
              </g>
            </g>
            <path id="Trazado_988448" data-name="Trazado 988448" d="M226.017,199.834s-1.861,2.235-3.095,2.509-1.507,1.507.411,1.507,3.426.138,3.426,1.233,4.111,1.371,4.8.138l-.477-5.119Z" transform="translate(-62.985 -56.711)" fill="#aa664f"/>
            <path id="Trazado_988449" data-name="Trazado 988449" d="M198.381,72.623a11.275,11.275,0,0,0,.389-2.934c0-6.674-5.836-12.084-13.034-12.084S172.7,63.015,172.7,69.689a11.3,11.3,0,0,0,.123,1.642l-.123.121s-1.9,20.895,13.307,20.643c0,0,13.034,1.51,12.491-19.385l-.117-.087" transform="translate(-48.989 -16.348)" fill="#aa664f"/>
            <path id="Trazado_988450" data-name="Trazado 988450" d="M173.885,64.34s3.17-.317,4.121,2.22,4.756,2.536,6.975-.317,6.657-.317,6.657,3.487-2.219,6.974.317,9.194c0,0,0-4.756,2.219-4.756s4.122,5.707,2.22,6.974-1.268,6.023.951,6.341,8.559-25.045-4.756-29.8c0,0-15.535-5.389-18.7,6.658" transform="translate(-49.347 -16.028)" fill="#223147"/>
            <path id="Trazado_988451" data-name="Trazado 988451" d="M205.385,90.571a1.594,1.594,0,1,1-1.585-1.427,1.512,1.512,0,0,1,1.585,1.427" transform="translate(-57.386 -25.298)" fill="#fff"/>
            <path id="Trazado_988452" data-name="Trazado 988452" d="M178.62,88.509a1.954,1.954,0,0,1-1.238-.423c-.41-.328-.348-.977.183-1.928a10.086,10.086,0,0,1,.819-1.219l.363.291c-.685.857-1.44,2.2-1.075,2.492a1.614,1.614,0,0,0,1.414.258l.147.442a2.1,2.1,0,0,1-.613.087" transform="translate(-50.263 -24.105)" fill="#223147"/>
            <path id="Trazado_988453" data-name="Trazado 988453" d="M189.475,83.725a2.4,2.4,0,0,0-1.731-1.007,3.23,3.23,0,0,0-2.079.877l-.329-.329a3.537,3.537,0,0,1,2.432-1.012,2.849,2.849,0,0,1,2.068,1.178Z" transform="translate(-52.596 -23.341)" fill="#223147"/>
            <path id="Trazado_988454" data-name="Trazado 988454" d="M174.971,83.965c-.005-.008-.5-.8-1.147-.84a1.24,1.24,0,0,0-1,.568l-.36-.294a1.659,1.659,0,0,1,1.391-.738,2.276,2.276,0,0,1,1.51,1.061Z" transform="translate(-48.944 -23.457)" fill="#223147"/>
            <path id="Trazado_988455" data-name="Trazado 988455" d="M184.4,78.209l-.251-.392c.138-.089,3.424-2.136,6.335-.3l-.249.394c-2.658-1.679-5.8.277-5.836.3" transform="translate(-52.259 -21.782)" fill="#223147"/>
            <path id="Trazado_988456" data-name="Trazado 988456" d="M174.716,78.064c-.011-.015-1.079-1.482-1.922-1.053l-.211-.415c1.215-.615,2.46,1.125,2.512,1.2Z" transform="translate(-48.977 -21.7)" fill="#223147"/>
            <path id="Trazado_988457" data-name="Trazado 988457" d="M178.572,94.207a11,11,0,0,0,3.871.246c1.551-.322.759,2.439-1.235,2.758s-3.419-1.681-2.636-3" transform="translate(-50.615 -26.735)" fill="#223147"/>
            <path id="Trazado_988458" data-name="Trazado 988458" d="M179.65,95.223a2.932,2.932,0,0,1-1.168-.743,1.536,1.536,0,0,1,.126-.273,11,11,0,0,0,3.871.246.855.855,0,0,1,.468.012,3.449,3.449,0,0,1-3.3.758" transform="translate(-50.651 -26.735)" fill="#fff"/>
            <path id="Trazado_988459" data-name="Trazado 988459" d="M182.158,97.725a2.338,2.338,0,0,1-.762.267,2.494,2.494,0,0,1-2.38-.915,3.876,3.876,0,0,1,3.142.648" transform="translate(-50.803 -27.517)" fill="#fd6c6b"/>
            <path id="Trazado_988460" data-name="Trazado 988460" d="M288.535,94.489s-.543,11.134.271,12.763c0,0-5.431,3.259-13.578,1.086l-.271-9.233s8.418-12.492,13.578-4.617" transform="translate(-78.03 -26.076)" fill="#f7cbad"/>
            <g id="Grupo_1176486" data-name="Grupo 1176486" transform="translate(196.928 66.207)" opacity="0.34">
              <g id="Grupo_1176485" data-name="Grupo 1176485">
                <g id="Grupo_1176484" data-name="Grupo 1176484" clip-path="url(#clip-path-29)">
                  <path id="Trazado_988461" data-name="Trazado 988461" d="M282.46,92.44c-3.922,1.512-7.5,6.823-7.5,6.823l.271,9.233a20.761,20.761,0,0,0,8.434.536c-.256-5.541-.614-11.076-1.2-16.592" transform="translate(-274.958 -92.44)" fill="#aa664f"/>
                </g>
              </g>
            </g>
            <path id="Trazado_988462" data-name="Trazado 988462" d="M285.82,72.623a11.274,11.274,0,0,0,.389-2.934c0-6.674-5.836-12.084-13.034-12.084s-13.035,5.41-13.035,12.084a11.3,11.3,0,0,0,.123,1.642l-.123.121s-1.9,20.895,13.306,20.643c0,0,13.034,1.51,12.491-19.385l-.117-.087" transform="translate(-73.803 -16.348)" fill="#f7cbad"/>
            <path id="Trazado_988463" data-name="Trazado 988463" d="M297.882,85.336c-.869,2.46-2.973,3.96-4.7,3.35s-2.421-3.1-1.551-5.559,2.973-3.961,4.7-3.35,2.421,3.1,1.551,5.559" transform="translate(-82.655 -22.601)" fill="#f7cbad"/>
            <path id="Trazado_988464" data-name="Trazado 988464" d="M274.754,66.321s-6.417,6.709-10.21,3.5c0,0,2.917-.874,3.209-2.042s-12.252,4.084-11.376-3.209l1.75.292s-4.375-6.709-.292-8.46c0,0-.292,3.792,1.167,3.5s-1.167-4.668,3.209-5.543l.292,2.626s12.835-7,20.128,2.333l.875-3.5.875,4.667,3.209-2.042-2.042,3.792a21.436,21.436,0,0,1,.8,10.366s-3.721,1.011-3.721,6.553c0,0-2.626-2.334-1.167-7s-6.709-5.834-6.709-5.834" transform="translate(-72.676 -15.427)" fill="#223147"/>
            <path id="Trazado_988465" data-name="Trazado 988465" d="M296.142,85.121s-.106-3.444,1.352-1.985.292,4.667-1.167,4.084" transform="translate(-84.041 -23.491)" fill="none" stroke="#aa664f" stroke-miterlimit="10" stroke-width="1"/>
            <path id="Trazado_988466" data-name="Trazado 988466" d="M273.64,78.049s3.784.372,4.974,2.087c0,0,.043.884-.515.8a47.279,47.279,0,0,0-4.611-1.44s-.506-1.3.152-1.447" transform="translate(-77.56 -22.149)" fill="#223147"/>
            <path id="Trazado_988467" data-name="Trazado 988467" d="M264.468,77.393s-2.628-.178-3.845,1.314c0,0-.244.851.15.849a26.8,26.8,0,0,1,3.443-.738s.658-1.193.251-1.425" transform="translate(-73.941 -21.961)" fill="#223147"/>
            <path id="Trazado_988468" data-name="Trazado 988468" d="M273.13,84.1c-.009.581.28,1.056.646,1.062s.672-.46.681-1.04-.279-1.056-.646-1.062-.672.46-.681,1.04" transform="translate(-77.511 -23.571)" fill="#223147"/>
            <path id="Trazado_988469" data-name="Trazado 988469" d="M262.438,83.683c-.009.581.28,1.056.647,1.062s.671-.46.681-1.04-.28-1.056-.647-1.062-.672.46-.681,1.04" transform="translate(-74.477 -23.453)" fill="#223147"/>
            <path id="Trazado_988470" data-name="Trazado 988470" d="M266.824,88.9h.009a.216.216,0,0,0,.2-.231c-.016-.107-.111-.178-.261-.158a2.583,2.583,0,0,1-1.782-.361c.2-.711,1.332-4.933.9-6.641a.22.22,0,0,0-.275-.141.21.21,0,0,0-.179.242c.44,1.742-.91,6.512-.924,6.56l-.026.09.064.072a2.829,2.829,0,0,0,2.275.569" transform="translate(-75.058 -23.089)" fill="#223147"/>
            <path id="Trazado_988471" data-name="Trazado 988471" d="M264.614,94.96a11,11,0,0,0,3.879.035c1.531-.406.89,2.394-1.083,2.821s-3.506-1.493-2.8-2.856" transform="translate(-75.044 -26.947)" fill="#223147"/>
            <path id="Trazado_988472" data-name="Trazado 988472" d="M265.736,95.918a2.936,2.936,0,0,1-1.207-.678,1.566,1.566,0,0,1,.111-.279,10.992,10.992,0,0,0,3.878.035.866.866,0,0,1,.469-.014,3.449,3.449,0,0,1-3.252.936" transform="translate(-75.07 -26.947)" fill="#fff"/>
            <path id="Trazado_988473" data-name="Trazado 988473" d="M268.373,98.266a2.355,2.355,0,0,1-.746.308,2.5,2.5,0,0,1-2.427-.784,3.876,3.876,0,0,1,3.173.476" transform="translate(-75.261 -27.705)" fill="#fd6c6b"/>
            <path id="Trazado_988474" data-name="Trazado 988474" d="M304.669,308.381s5.16,11.376,4.345,13.652-10.047,2.6-12.219,0l4.887-13.652s2.716-1.625,2.987,0" transform="translate(-84.227 -87.31)" fill="#fff"/>
            <path id="Trazado_988475" data-name="Trazado 988475" d="M304.53,328.141a19.738,19.738,0,0,1-7.038-1.586l.189-.425c.077.034,7.78,3.4,11.416.042l.316.342a7.015,7.015,0,0,1-4.882,1.628" transform="translate(-84.425 -92.552)" fill="#223147"/>
            <rect id="Rectángulo_454970" data-name="Rectángulo 454970" width="0.465" height="4.993" transform="translate(216.927 230.813) rotate(-83.287)" fill="#223147"/>
            <rect id="Rectángulo_454971" data-name="Rectángulo 454971" width="3.501" height="0.466" transform="translate(217.537 229.183)" fill="#223147"/>
            <path id="Trazado_988476" data-name="Trazado 988476" d="M275.963,189.351s-12.908-6.475-15.641,11.666c0,0-.445,31.949,3.116,36.78a8.96,8.96,0,0,0,3.355,2.087,6.553,6.553,0,0,0-.66.313l1.358,41.929h2.444l-.814-41.28a1.6,1.6,0,0,0-.191-.69c1.569-.12,3.287-.995,4.894-3.382,0,0,7.232-35.282,2.14-47.424" transform="translate(-73.871 -53.417)" fill="#223147"/>
            <path id="Trazado_988477" data-name="Trazado 988477" d="M290.87,204.62s1.179,31.932,5.155,36.583c0,0,6.251,5.687,10.817-1.529,0,0,5.755-35.594-.2-47.472,0,0-13.844-5.835-15.771,12.418" transform="translate(-82.545 -54.293)" fill="#f7cbad"/>
            <path id="Trazado_988478" data-name="Trazado 988478" d="M290.87,204.62s1.179,31.932,5.155,36.583c0,0,6.251,5.687,10.817-1.529,0,0,5.755-35.594-.2-47.472,0,0-13.844-5.835-15.771,12.418" transform="translate(-82.545 -54.293)" fill="#f7cbad"/>
            <g id="Grupo_1176489" data-name="Grupo 1176489" transform="translate(208.325 137.022)" opacity="0.34">
              <g id="Grupo_1176488" data-name="Grupo 1176488">
                <g id="Grupo_1176487" data-name="Grupo 1176487" clip-path="url(#clip-path-30)">
                  <path id="Trazado_988479" data-name="Trazado 988479" d="M308.414,227.138c1.128-11.444,1.881-27.649-1.772-34.935,0,0-13.844-5.835-15.771,12.418,0,0,.448,12.123,1.722,22.518Z" transform="translate(-290.87 -191.315)" fill="#aa664f"/>
                </g>
              </g>
            </g>
            <path id="Trazado_988480" data-name="Trazado 988480" d="M307.99,254.94s6.245,8.973-2.35,41.544l-5.407-.009L294.907,250.3s13.382-3.507,13.083,4.64" transform="translate(-83.691 -70.819)" fill="#f7cbad"/>
            <path id="Trazado_988481" data-name="Trazado 988481" d="M299.877,195.243c.129.018-1.571-10.619-1.571-10.619l-36.3-1.387-.327,6.715-.054,0s-3.254,28.1-2.662,30.763l18.044,1.183s0-18.931,1.479-16.269,1.479,16.86,1.479,16.86l21.593-.3Z" transform="translate(-73.471 -52)" fill="#aa664f"/>
            <g id="Grupo_1176492" data-name="Grupo 1176492" transform="translate(185.422 163.798)" opacity="0.2" style="mix-blend-mode: multiply;isolation: isolate">
              <g id="Grupo_1176491" data-name="Grupo 1176491">
                <g id="Grupo_1176490" data-name="Grupo 1176490" clip-path="url(#clip-path-31)">
                  <path id="Trazado_988482" data-name="Trazado 988482" d="M259.059,228.7a28.155,28.155,0,0,0-.095,4.912l18.044,1.183s0-1.594.036-3.789c-6.051.495-12.141-.706-17.986-2.305" transform="translate(-258.893 -228.701)" fill="#223147"/>
                </g>
              </g>
            </g>
            <g id="Grupo_1176495" data-name="Grupo 1176495" transform="translate(206.414 142.679)" opacity="0.2" style="mix-blend-mode: multiply;isolation: isolate">
              <g id="Grupo_1176494" data-name="Grupo 1176494">
                <g id="Grupo_1176493" data-name="Grupo 1176493" clip-path="url(#clip-path-32)">
                  <path id="Trazado_988483" data-name="Trazado 988483" d="M308.2,199.777a2.462,2.462,0,0,0-.044-.562,26.248,26.248,0,0,1-3.47,11.731,24.547,24.547,0,0,1-16.478,11.33c.081,2.69.082,4.744.082,4.744l21.593-.3Z" transform="translate(-288.203 -199.214)" fill="#223147"/>
                </g>
              </g>
            </g>
            <line id="Línea_26969" data-name="Línea 26969" x2="18.044" y2="1.479" transform="translate(185.494 167.231)" fill="none" stroke="#051d58" stroke-miterlimit="10" stroke-width="1"/>
            <line id="Línea_26970" data-name="Línea 26970" x2="21.593" transform="translate(206.791 168.71)" fill="none" stroke="#051d58" stroke-miterlimit="10" stroke-width="1"/>
            <line id="Línea_26971" data-name="Línea 26971" x2="9.17" y2="2.662" transform="translate(199.692 151.849)" fill="none" stroke="#051d58" stroke-miterlimit="10" stroke-width="1"/>
            <path id="Trazado_988484" data-name="Trazado 988484" d="M314.408,205l-5.029.3,1.775,15.973h4.437" transform="translate(-87.798 -58.176)" fill="none" stroke="#051d58" stroke-miterlimit="10" stroke-width="1"/>
            <line id="Línea_26972" data-name="Línea 26972" x2="5.029" transform="translate(221.877 150.962)" fill="none" stroke="#051d58" stroke-miterlimit="10" stroke-width="1"/>
            <path id="Trazado_988485" data-name="Trazado 988485" d="M261.181,202.931l3.549,1.183-2.071,16.269h-3.254" transform="translate(-73.616 -57.589)" fill="none" stroke="#051d58" stroke-miterlimit="10" stroke-width="1"/>
            <line id="Línea_26973" data-name="Línea 26973" x1="3.845" y1="0.296" transform="translate(186.677 150.666)" fill="none" stroke="#051d58" stroke-miterlimit="10" stroke-width="1"/>
            <path id="Trazado_988486" data-name="Trazado 988486" d="M262.949,309.308s-1.394,6.795-10.3,6.423c0,0-3.428,1.792-.844,4.706,0,0,12.819,1.468,16.774-.579,0,0,1.081-2.606-.657-10.488Z" transform="translate(-71.186 -87.778)" fill="#fff"/>
            <path id="Trazado_988487" data-name="Trazado 988487" d="M259.724,323.725c-4.359,0-8.625-.309-8.961-.334l.034-.465c5.415.4,16.127.746,17.915-.818l.307.35c-1.145,1-5.259,1.266-9.295,1.266" transform="translate(-71.164 -91.411)" fill="#223147"/>
            <path id="Trazado_988488" data-name="Trazado 988488" d="M261.921,321.113l-.455-.1.61-2.745,8.865-3.546.173.432-8.637,3.455Z" transform="translate(-74.201 -89.314)" fill="#223147"/>
            <path id="Trazado_988489" data-name="Trazado 988489" d="M264.361,322.122l-.441-.148.617-1.852,7.393-2.957.173.433-7.192,2.876Z" transform="translate(-74.897 -90.008)" fill="#223147"/>
            <g id="Grupo_1176498" data-name="Grupo 1176498" transform="translate(213.454 183.035)" opacity="0.34">
              <g id="Grupo_1176497" data-name="Grupo 1176497">
                <g id="Grupo_1176496" data-name="Grupo 1176496" clip-path="url(#clip-path-33)">
                  <path id="Trazado_988490" data-name="Trazado 988490" d="M304.741,259.06a3.358,3.358,0,1,1-3.355-3.5,3.43,3.43,0,0,1,3.355,3.5" transform="translate(-298.032 -255.56)" fill="#aa664f"/>
                </g>
              </g>
            </g>
            <path id="Trazado_988491" data-name="Trazado 988491" d="M305.9,115.022s7.686-1.778,13.342,30.6a6.2,6.2,0,0,1-4.586,3.94c-3.817,1.023-14.757-27.553-14.757-27.553s-2.1-7.337,6-6.983" transform="translate(-85.037 -32.637)" fill="#223147"/>
            <path id="Trazado_988492" data-name="Trazado 988492" d="M262.455,114.209s-7.8-1.189-10.976,31.522a6.193,6.193,0,0,0,4.872,3.58c3.884.729,12.618-28.6,12.618-28.6s1.538-7.475-6.515-6.506" transform="translate(-71.367 -32.386)" fill="#223147"/>
            <path id="Trazado_988493" data-name="Trazado 988493" d="M284.15,111.878s10.292,1.992,12.616,2.324-2.656,32.867-.665,34.527,3.652,18.591,4.317,24.235c0,0-33.532,0-39.175-8.963l2.323-49.467,7.636-2.656s4.316,2.988,12.948,0" transform="translate(-74.138 -31.75)" fill="#223147"/>
            <g id="Grupo_1176501" data-name="Grupo 1176501" transform="translate(187.105 108.354)" opacity="0.2" style="mix-blend-mode: multiply;isolation: isolate">
              <g id="Grupo_1176500" data-name="Grupo 1176500">
                <g id="Grupo_1176499" data-name="Grupo 1176499" clip-path="url(#clip-path-34)">
                  <path id="Trazado_988494" data-name="Trazado 988494" d="M296.1,159.913c-.62-.517-.564-4.027-.264-8.625a30.779,30.779,0,0,1-9.085,12.926c-7.148,5.789-16.393,7.66-25.38,8.186l-.131,2.785c5.644,8.963,39.175,8.963,39.175,8.963-.664-5.644-2.324-22.575-4.316-24.235" transform="translate(-261.242 -151.287)" fill="#223147"/>
                </g>
              </g>
            </g>
            <path id="Trazado_988495" data-name="Trazado 988495" d="M322.079,147.05a6.819,6.819,0,1,1-9.314-2.5,6.818,6.818,0,0,1,9.314,2.5" transform="translate(-87.791 -40.763)" fill="#223147"/>
            <path id="Trazado_988496" data-name="Trazado 988496" d="M259.719,150.382a6.819,6.819,0,1,1-9.315-2.5,6.818,6.818,0,0,1,9.315,2.5" transform="translate(-70.094 -41.709)" fill="#223147"/>
            <g id="Grupo_1176504" data-name="Grupo 1176504" transform="translate(195.31 80.862)" opacity="0.53">
              <g id="Grupo_1176503" data-name="Grupo 1176503">
                <g id="Grupo_1176502" data-name="Grupo 1176502" clip-path="url(#clip-path-35)">
                  <path id="Trazado_988497" data-name="Trazado 988497" d="M281.379,115.678a20.418,20.418,0,0,1-8.68-2.035l.221-.41c.088.047,8.837,4.647,16.469-.331l.254.39a14.893,14.893,0,0,1-8.263,2.386" transform="translate(-272.699 -112.902)" fill="#63cfe8"/>
                </g>
              </g>
            </g>
            <g id="Grupo_1176507" data-name="Grupo 1176507" transform="translate(182.084 105.583)" opacity="0.53">
              <g id="Grupo_1176506" data-name="Grupo 1176506">
                <g id="Grupo_1176505" data-name="Grupo 1176505" clip-path="url(#clip-path-36)">
                  <path id="Trazado_988498" data-name="Trazado 988498" d="M260.827,150.711a2.82,2.82,0,0,0-1.168-1.932c-1.881-1.348-5.311-.767-5.346-.761l-.081-.458c.148-.026,3.656-.621,5.7.841a3.269,3.269,0,0,1,1.358,2.239Z" transform="translate(-254.232 -147.418)" fill="#63cfe8"/>
                </g>
              </g>
            </g>
            <g id="Grupo_1176510" data-name="Grupo 1176510" transform="translate(188.024 94.492)" opacity="0.53">
              <g id="Grupo_1176509" data-name="Grupo 1176509">
                <g id="Grupo_1176508" data-name="Grupo 1176508" clip-path="url(#clip-path-37)">
                  <path id="Trazado_988499" data-name="Trazado 988499" d="M262.551,153.151c-.344-2.062,2.929-20.436,3.069-21.218l.458.082c-1.177,6.59-3.333,19.472-3.068,21.059Z" transform="translate(-262.526 -131.933)" fill="#63cfe8"/>
                </g>
              </g>
            </g>
            <g id="Grupo_1176513" data-name="Grupo 1176513" transform="translate(218.035 92.948)" opacity="0.53">
              <g id="Grupo_1176512" data-name="Grupo 1176512">
                <g id="Grupo_1176511" data-name="Grupo 1176511" clip-path="url(#clip-path-38)">
                  <path id="Trazado_988500" data-name="Trazado 988500" d="M307.958,148.229h-.466c0-1.664-3.034-18.2-3.065-18.369l.458-.084c.125.683,3.073,16.746,3.073,18.452" transform="translate(-304.428 -129.777)" fill="#63cfe8"/>
                </g>
              </g>
            </g>
            <g id="Grupo_1176516" data-name="Grupo 1176516" transform="translate(222.861 103.555)" opacity="0.53">
              <g id="Grupo_1176515" data-name="Grupo 1176515">
                <g id="Grupo_1176514" data-name="Grupo 1176514" clip-path="url(#clip-path-39)">
                  <path id="Trazado_988501" data-name="Trazado 988501" d="M311.519,148.153l-.352-.305c.045-.053,4.615-5.236,8.828-2.427l-.258.387c-3.872-2.582-8.176,2.3-8.219,2.346" transform="translate(-311.167 -144.587)" fill="#63cfe8"/>
                </g>
              </g>
            </g>
            <g id="Grupo_1176519" data-name="Grupo 1176519" transform="translate(224.221 106.771)" opacity="0.53">
              <g id="Grupo_1176518" data-name="Grupo 1176518">
                <g id="Grupo_1176517" data-name="Grupo 1176517" clip-path="url(#clip-path-40)">
                  <path id="Trazado_988502" data-name="Trazado 988502" d="M313.425,152.491l-.359-.3c.1-.121,2.476-2.967,5.5-3.113a5.278,5.278,0,0,1,4.049,1.732l-.329.329a4.818,4.818,0,0,0-3.7-1.6c-2.82.136-5.14,2.915-5.163,2.943" transform="translate(-313.065 -149.078)" fill="#63cfe8"/>
                </g>
              </g>
            </g>
            <g id="Grupo_1176522" data-name="Grupo 1176522" transform="translate(188.417 131.036)" opacity="0.53">
              <g id="Grupo_1176521" data-name="Grupo 1176521">
                <g id="Grupo_1176520" data-name="Grupo 1176520" clip-path="url(#clip-path-41)">
                  <path id="Trazado_988503" data-name="Trazado 988503" d="M294.385,191.115a66.535,66.535,0,0,1-31.31-7.759l.24-.4a66.4,66.4,0,0,0,37.085,7.408l.044.463c-2.073.2-4.1.286-6.059.286" transform="translate(-263.075 -182.957)" fill="#63cfe8"/>
                </g>
              </g>
            </g>
            <g id="Grupo_1176525" data-name="Grupo 1176525" transform="translate(195.749 114.734)" opacity="0.53">
              <g id="Grupo_1176524" data-name="Grupo 1176524">
                <g id="Grupo_1176523" data-name="Grupo 1176523" clip-path="url(#clip-path-42)">
                  <path id="Trazado_988504" data-name="Trazado 988504" d="M273.337,169.027l-.026-.465c.121-.006,12.15-.765,14.795-8.368l.439.153c-2.747,7.9-15.083,8.672-15.208,8.679" transform="translate(-273.311 -160.195)" fill="#63cfe8"/>
                </g>
              </g>
            </g>
            <path id="Trazado_988505" data-name="Trazado 988505" d="M326.984,194.264l1.917,5.652c.43.935,1.571,3.425,1.637,3.7a.58.58,0,0,1-.233.564c-.7.471-2.085-2.888-2.275-3.36-.071.047-.145.095-.222.141.633,1.533,1.832,4.453,1.913,4.8a.66.66,0,0,1-.265.7c-.818.483-2.56-4.112-2.841-4.87-.137.064-.275.126-.413.186.566,1.689,1.785,5.341,1.858,5.745a.674.674,0,0,1-.3.735c-.93.455-2.765-5.851-2.765-5.851-.011-.043-.021-.085-.029-.125-.156.059-.307.115-.449.168.354,1.576,1.076,4.821,1.1,5.181a.661.661,0,0,1-.38.648c-.968.367-1.992-5.394-1.992-5.394l-1.622-3.04c-.275.079-.526.38-.664,1.1-.267,1.39-.551,1.4-.551,1.4-1.331-.026-.656-2.311-.448-4.41a5.3,5.3,0,0,1,1.582-3.153,1.107,1.107,0,0,1,.259-.234l.026-2.606,4.495-1.157Z" transform="translate(-90.701 -54.142)" fill="#f7cbad"/>
            <path id="Trazado_988506" data-name="Trazado 988506" d="M322.454,155.085c.813,1.516,4.148,6.366,3.079,31.82l-3.252,1.049s-7.4-23.865-6.708-33.789c0,0,3.88-4.675,6.881.92" transform="translate(-89.543 -43.231)" fill="#f7cbad"/>
            <path id="Trazado_988507" data-name="Trazado 988507" d="M238.269,195.486l-1.917,5.652c-.43.935-1.571,3.425-1.637,3.7a.58.58,0,0,0,.233.564c.7.471,2.085-2.888,2.275-3.36.072.047.145.095.222.141-.633,1.533-1.832,4.453-1.913,4.8a.661.661,0,0,0,.265.7c.818.483,2.56-4.112,2.841-4.87.136.064.274.126.413.187-.566,1.688-1.785,5.341-1.858,5.744a.675.675,0,0,0,.3.735c.93.455,2.765-5.851,2.765-5.851.011-.043.021-.085.029-.125.156.059.307.115.449.168-.355,1.576-1.076,4.821-1.1,5.181a.661.661,0,0,0,.38.648c.968.367,1.992-5.394,1.992-5.394l1.622-3.04c.275.079.526.38.664,1.1.267,1.39.551,1.4.551,1.4,1.331-.026.656-2.311.448-4.41A5.3,5.3,0,0,0,243.708,196a1.124,1.124,0,0,0-.259-.235l-.027-2.606L238.929,192Z" transform="translate(-66.605 -54.488)" fill="#f7cbad"/>
            <path id="Trazado_988508" data-name="Trazado 988508" d="M254.95,157.669c.156,1.722,1.429,7.55-11.472,30.1l-3.916-.459s3.238-24.775,8.556-33.447c0,0,6.255-2.547,6.832,3.81" transform="translate(-67.985 -43.52)" fill="#f7cbad"/>
            <path id="Trazado_988509" data-name="Trazado 988509" d="M59.774,110.452l-2.692-5.326c-.557-.865-2.036-3.171-2.141-3.434a.581.581,0,0,1,.152-.592c.625-.564,2.47,2.568,2.724,3.007.064-.057.131-.113.2-.17-.842-1.428-2.439-4.152-2.568-4.479a.661.661,0,0,1,.163-.733c.743-.594,3.113,3.712,3.5,4.423.126-.082.254-.163.382-.243-.8-1.592-2.517-5.038-2.646-5.427a.674.674,0,0,1,.19-.769c.857-.58,3.558,5.405,3.558,5.405.017.042.033.081.047.12.145-.08.286-.157.42-.228-.572-1.511-1.743-4.622-1.815-4.976a.661.661,0,0,1,.286-.7c.907-.5,2.729,5.061,2.729,5.061l2.033,2.782c.261-.117.467-.45.5-1.179.069-1.414.349-1.467.349-1.467,1.321-.162.974,2.2,1.063,4.3a5.307,5.307,0,0,1-1.124,3.343,1.112,1.112,0,0,1-.223.269l.34,2.584-4.288,1.775Z" transform="translate(-15.582 -27.33)" fill="#f7cbad"/>
            <g id="Grupo_1176531" data-name="Grupo 1176531" transform="translate(43.494 76.804)" opacity="0.62">
              <g id="Grupo_1176530" data-name="Grupo 1176530">
                <g id="Grupo_1176529" data-name="Grupo 1176529" clip-path="url(#clip-path-43)">
                  <g id="Grupo_1176528" data-name="Grupo 1176528" opacity="0.48">
                    <g id="Grupo_1176527" data-name="Grupo 1176527">
                      <g id="Grupo_1176526" data-name="Grupo 1176526" clip-path="url(#clip-path-43)">
                        <path id="Trazado_988510" data-name="Trazado 988510" d="M63.687,112.346c-.892-2.713,2.04-4.847,2.275-5.013a.075.075,0,0,0,.015-.011l-.059-.087-.011.008c-.114.079-1.131.779-2.237,1.43-1.938,1.139-2.648,1.257-2.9,1.155l-.039.1c.7.28,3.125-1.2,4.422-2.048-.906.867-2.211,2.533-1.563,4.5Z" transform="translate(-60.728 -107.237)" fill="#051d58"/>
                      </g>
                    </g>
                  </g>
                </g>
              </g>
            </g>
            <path id="Trazado_988511" data-name="Trazado 988511" d="M89.909,310.942s-5.061,11.421-4.226,13.689,10.07,2.512,12.219-.106L92.9,310.916s-2.73-1.6-2.987.026" transform="translate(-24.289 -88.034)" fill="#fff"/>
            <path id="Trazado_988512" data-name="Trazado 988512" d="M103.143,92.989s.648,12.12-.151,13.9c0,0,5.462,3.5,13.588,1.065l.184-10.056s-8.536-13.53-13.621-4.91" transform="translate(-29.228 -25.574)" fill="#f7cbad"/>
            <g id="Grupo_1176534" data-name="Grupo 1176534" transform="translate(82.035 66.166)" opacity="0.34">
              <g id="Grupo_1176533" data-name="Grupo 1176533">
                <g id="Grupo_1176532" data-name="Grupo 1176532" clip-path="url(#clip-path-45)">
                  <path id="Trazado_988513" data-name="Trazado 988513" d="M114.54,92.383c.236,5.68.693,11.346,1.143,17.012a20.3,20.3,0,0,0,4.174-.8l.184-10.057a26.7,26.7,0,0,0-5.5-6.158" transform="translate(-114.54 -92.383)" fill="#aa664f"/>
                </g>
              </g>
            </g>
            <path id="Trazado_988514" data-name="Trazado 988514" d="M130.771,200.94c-2.891-18.116-15.742-11.53-15.742-11.53-4.912,12,2.328,46.351,2.546,47.38-1.175,3.731-2.91,14.481,3.606,38.4l4.976-.1,3.812-45.175-.069-.014c1.275-11.039.87-28.954.87-28.954" transform="translate(-32.16 -53.421)" fill="#155897"/>
            <path id="Trazado_988515" data-name="Trazado 988515" d="M84.077,192.766c-5.27,10.743-.878,40.629.048,46.47-.889,1.675-5.171,11.863,2.861,41.263l6.731.718,3.486-45.49c2.187-10.666,2.753-30.68,2.753-30.68-2.086-18.235-15.878-12.28-15.878-12.28" transform="translate(-23.137 -54.441)" fill="#155897"/>
            <g id="Grupo_1176537" data-name="Grupo 1176537" transform="translate(59.052 185.96)" opacity="0.17">
              <g id="Grupo_1176536" data-name="Grupo 1176536">
                <g id="Grupo_1176535" data-name="Grupo 1176535" clip-path="url(#clip-path-46)">
                  <path id="Trazado_988516" data-name="Trazado 988516" d="M129.658,264.832c-.874,3.111-2.307,9.152-6.208,9.761-2.514.392-4.336-1.6-5.614-3.8.344,6.051,1.587,14.338,4.625,25.491l4.976-.1,2.835-33.595q-.3,1.125-.615,2.246" transform="translate(-92.493 -260.479)" fill="#051d58"/>
                  <path id="Trazado_988517" data-name="Trazado 988517" d="M90.113,270.831c-3.58-2.209-5.142-7.262-6.231-11.186-1.314,3.6-3.587,14.651,3.365,40.1l6.731.718L96.266,270.6c-1.641,1.4-3.665,1.768-6.153.233" transform="translate(-82.451 -259.644)" fill="#051d58"/>
                </g>
              </g>
            </g>
            <path id="Trazado_988518" data-name="Trazado 988518" d="M128.905,309.493s1.452,6.783,10.352,6.333c0,0,3.444,1.762.885,4.7,0,0-12.807,1.579-16.779-.434,0,0-1.1-2.6.566-10.493Z" transform="translate(-34.908 -87.83)" fill="#fff"/>
            <path id="Trazado_988519" data-name="Trazado 988519" d="M84.266,115.247s-7.809-1.121-10.7,31.616a6.194,6.194,0,0,0,4.9,3.537c3.89.7,12.37-28.7,12.37-28.7s1.474-7.488-6.571-6.449" transform="translate(-20.877 -32.678)" fill="#fd6c6b"/>
            <path id="Trazado_988520" data-name="Trazado 988520" d="M127.881,114.4s7.787-1.256,11.249,31.426a6.192,6.192,0,0,1-4.842,3.621c-3.878.763-12.866-28.484-12.866-28.484s-1.6-7.461,6.459-6.563" transform="translate(-34.421 -32.443)" fill="#fd6c6b"/>
            <path id="Trazado_988521" data-name="Trazado 988521" d="M134.651,157.434c.294,1.7.573,7.663,18.869,26.1l3.663-1.457s-9.538-23.094-16.918-30.095c0,0-6.7-.842-5.614,5.448" transform="translate(-38.178 -43.121)" fill="#fd6c6b"/>
            <path id="Trazado_988522" data-name="Trazado 988522" d="M70.073,148.132c-1.149-1.292-5.636-5.223-8.658-31.024l6.226-1.938S76.955,137,77.831,147.137c0,0-3.517,5.766-7.758,1" transform="translate(-17.429 -32.684)" fill="#fd6c6b"/>
            <path id="Trazado_988523" data-name="Trazado 988523" d="M83.558,193.787s11.669.392,15.987,8.6l7.784-.614s6.594-1.563,14.826-3.133l-.508-14.864-36.011,1.768s-3,6.23-2.078,8.242" transform="translate(-23.663 -52.154)" fill="#155897"/>
            <path id="Trazado_988524" data-name="Trazado 988524" d="M97.813,112.245s-10.274,2.081-12.6,2.434,2.941,32.843.964,34.52-3.491,18.623-4.106,24.272c0,0,33.53-.291,39.1-9.3l-2.753-49.445-7.659-2.59s-4.289,3.025-12.947.112" transform="translate(-23.292 -31.822)" fill="#fd6c6b"/>
            <g id="Grupo_1176540" data-name="Grupo 1176540" transform="translate(58.784 106.304)" opacity="0.17">
              <g id="Grupo_1176539" data-name="Grupo 1176539">
                <g id="Grupo_1176538" data-name="Grupo 1176538" clip-path="url(#clip-path-47)">
                  <path id="Trazado_988525" data-name="Trazado 988525" d="M120.145,164.768c-2.141,5.007-6.687,6.97-11.941,6.053-11.852-2.067-18.3-11.845-22.029-22.4.486,5.753.727,10.462.006,11.073-1.977,1.677-3.49,18.623-4.105,24.272,0,0,33.53-.291,39.1-9.3l-.6-10.8c-.132.37-.271.736-.426,1.1" transform="translate(-82.076 -148.425)" fill="#051d58"/>
                </g>
              </g>
            </g>
            <path id="Trazado_988526" data-name="Trazado 988526" d="M160.062,196.958a2.851,2.851,0,0,0-2.2,3.324l1.723,5.8a2.51,2.51,0,0,0,2.038,1.673l26.265,85.728,1.6-.476-24.832-86.153a2.511,2.511,0,0,0,.793-2.515l-1.722-5.8a2.851,2.851,0,0,0-3.661-1.581" transform="translate(-44.773 -55.852)" fill="#223147"/>
            <path id="Trazado_988527" data-name="Trazado 988527" d="M109.211,114.028l-.718-3.01-7.166-1.72-3.583,3.3s8.743,2.437,11.467,1.433" transform="translate(-27.739 -31.017)" fill="#fd6c6b"/>
            <path id="Trazado_988528" data-name="Trazado 988528" d="M118.157,111.275l.86,2.724,4.013-2.15-1.29-2.15Z" transform="translate(-33.532 -31.131)" fill="#fd6c6b"/>
            <g id="Grupo_1176543" data-name="Grupo 1176543" transform="translate(44.566 81.095)" opacity="0.42">
              <g id="Grupo_1176542" data-name="Grupo 1176542">
                <g id="Grupo_1176541" data-name="Grupo 1176541" clip-path="url(#clip-path-48)">
                  <path id="Trazado_988529" data-name="Trazado 988529" d="M109.28,114.257l-.464-.033-.124,1.738-10.918-2.379-.1.455,11.443,2.494Z" transform="translate(-72.285 -113.328)" fill="#223147"/>
                  <path id="Trazado_988530" data-name="Trazado 988530" d="M123.388,113.619l-.251-.392-3.365,2.154-.888-1.775-.416.208,1.119,2.238Z" transform="translate(-78.185 -113.227)" fill="#223147"/>
                  <path id="Trazado_988531" data-name="Trazado 988531" d="M108.536,169.793c.308-6.232-1.25-53.441-1.319-55.5l-.466.016c.016.509,1.652,50.013,1.313,55.593q-.639.142-1.288.276l-.993-55.738-.466.009.995,55.822a178.088,178.088,0,0,1-23.991,2.709l.018.466c.085,0,8.587-.327,17.607-1.614q3.451-.493,6.374-1.074v.022l.466-.009v-.108c8.077-1.65,13.033-3.82,14.756-6.475l-.39-.254c-1.708,2.631-6.728,4.517-12.615,5.862" transform="translate(-67.928 -113.529)" fill="#223147"/>
                  <path id="Trazado_988532" data-name="Trazado 988532" d="M77.218,133.351c.033.119,3.281,11.878,3,14.1l.462.057c.289-2.313-2.881-13.793-3.016-14.281Z" transform="translate(-66.479 -118.903)" fill="#223147"/>
                  <path id="Trazado_988533" data-name="Trazado 988533" d="M88.272,146.1C88.3,146.011,91,136.948,90,130.661l-.46.073c.983,6.181-1.686,15.144-1.713,15.233Z" transform="translate(-69.49 -118.175)" fill="#223147"/>
                  <path id="Trazado_988534" data-name="Trazado 988534" d="M134.6,151.821c0-2.283-2.2-18.273-2.3-18.952l-.461.063c.023.166,2.291,16.638,2.291,18.889Z" transform="translate(-81.982 -118.801)" fill="#223147"/>
                  <path id="Trazado_988535" data-name="Trazado 988535" d="M141.361,159.474l.3.353c.542-.468,2.156-1.631,3.107-1.4l.108-.453c-1.372-.326-3.432,1.427-3.519,1.5" transform="translate(-84.682 -125.914)" fill="#223147"/>
                  <rect id="Rectángulo_454990" data-name="Rectángulo 454990" width="7.208" height="0.465" transform="matrix(0.954, -0.299, 0.299, 0.954, 0, 6.425)" fill="#223147"/>
                </g>
              </g>
            </g>
            <path id="Trazado_988536" data-name="Trazado 988536" d="M100.8,73.018a11.307,11.307,0,0,1-.415-2.93c-.058-6.674,5.731-12.135,12.93-12.2s13.081,5.3,13.139,11.969a11.22,11.22,0,0,1-.109,1.643l.124.12s2.082,20.878-13.127,20.758c0,0-13.021,1.624-12.659-19.275l.117-.088" transform="translate(-28.487 -16.429)" fill="#f7cbad"/>
            <path id="Trazado_988537" data-name="Trazado 988537" d="M122.961,322.637s14.333,2.293,17.486.574" transform="translate(-34.895 -91.561)" fill="none" stroke="#223147" stroke-miterlimit="10" stroke-width="1"/>
            <path id="Trazado_988538" data-name="Trazado 988538" d="M134.1,315.832a1.594,1.594,0,0,0-1.147,2.007" transform="translate(-37.719 -89.629)" fill="none" stroke="#223147" stroke-miterlimit="10" stroke-width="1"/>
            <path id="Trazado_988539" data-name="Trazado 988539" d="M137.161,317.033s-2.007.86-1.433,2.293" transform="translate(-38.489 -89.97)" fill="none" stroke="#223147" stroke-miterlimit="10" stroke-width="1"/>
            <line id="Línea_26974" data-name="Línea 26974" x2="3.153" transform="translate(65.419 229.643)" fill="none" stroke="#223147" stroke-miterlimit="10" stroke-width="1"/>
            <line id="Línea_26975" data-name="Línea 26975" x2="3.153" y2="0.573" transform="translate(65.419 231.363)" fill="none" stroke="#223147" stroke-miterlimit="10" stroke-width="1"/>
            <path id="Trazado_988540" data-name="Trazado 988540" d="M93.2,260.577a15.249,15.249,0,0,1-3.963-.647l.139-.445c.045.014,4.486,1.379,6.089.044l.3.357a4.037,4.037,0,0,1-2.563.691" transform="translate(-25.326 -73.639)" fill="#223147"/>
            <path id="Trazado_988541" data-name="Trazado 988541" d="M122.884,257.226a11.927,11.927,0,0,1-3.657-.8l.171-.433c.034.014,3.358,1.309,4.676.516l.24.4a2.808,2.808,0,0,1-1.43.316" transform="translate(-33.835 -72.648)" fill="#223147"/>
            <rect id="Rectángulo_454992" data-name="Rectángulo 454992" width="13.495" height="0.465" transform="matrix(0.995, -0.103, 0.103, 0.995, 74.164, 150.413)" fill="#223147"/>
            <path id="Trazado_988542" data-name="Trazado 988542" d="M118.194,200.623h-2.838v-.466h2.321l-.546-5.19.463-.049Z" transform="translate(-32.737 -55.316)" fill="#223147"/>
            <path id="Trazado_988543" data-name="Trazado 988543" d="M88.967,203.423l-.094-.456,8.113-1.679-.271-3.522.465-.036.3,3.931Z" transform="translate(-25.221 -56.114)" fill="#223147"/>
            <path id="Trazado_988544" data-name="Trazado 988544" d="M129.645,196.684l-.6-4.514.461-.062.544,4.086,4.658-.274.027.464Z" transform="translate(-36.621 -54.518)" fill="#223147"/>
            <path id="Trazado_988545" data-name="Trazado 988545" d="M163.353,192.552l-4.3,1.433s-3,2.438-1.354,5.089c.213.345.377.612.5.822.072-.705.579-4.574,2.856-3.617,2.5,1.053,4.226,6.851,4.226,6.851s3.8.89-1.933-10.577" transform="translate(-44.614 -54.644)" fill="#f7cbad"/>
            <path id="Trazado_988546" data-name="Trazado 988546" d="M120.48,80.481a3.617,3.617,0,1,1-3.6-3.986,3.807,3.807,0,0,1,3.6,3.986" transform="translate(-32.149 -21.708)" fill="#223147"/>
            <g id="Grupo_1176546" data-name="Grupo 1176546" transform="translate(81.757 55.474)" opacity="0.24">
              <g id="Grupo_1176545" data-name="Grupo 1176545">
                <g id="Grupo_1176544" data-name="Grupo 1176544" clip-path="url(#clip-path-49)">
                  <path id="Trazado_988547" data-name="Trazado 988547" d="M120.106,80.754a2.993,2.993,0,1,1-2.977-3.3,3.15,3.15,0,0,1,2.977,3.3" transform="translate(-114.152 -77.455)" fill="#63cfe8"/>
                </g>
              </g>
            </g>
            <g id="Grupo_1176549" data-name="Grupo 1176549" transform="translate(82.47 56.22)" opacity="0.17">
              <g id="Grupo_1176548" data-name="Grupo 1176548">
                <g id="Grupo_1176547" data-name="Grupo 1176547" clip-path="url(#clip-path-50)">
                  <path id="Trazado_988548" data-name="Trazado 988548" d="M115.148,83.108l4.37-4.612.445.445-4.733,4.572Z" transform="translate(-115.148 -78.496)" fill="#63cfe8"/>
                </g>
              </g>
            </g>
            <path id="Trazado_988549" data-name="Trazado 988549" d="M135.676,79.8c0,2.2-1.472,3.986-3.287,3.986S129.1,82.005,129.1,79.8s1.472-3.986,3.287-3.986,3.287,1.785,3.287,3.986" transform="translate(-36.638 -21.516)" fill="#223147"/>
            <g id="Grupo_1176552" data-name="Grupo 1176552" transform="translate(93.031 54.989)" opacity="0.24">
              <g id="Grupo_1176551" data-name="Grupo 1176551">
                <g id="Grupo_1176550" data-name="Grupo 1176550" clip-path="url(#clip-path-51)">
                  <path id="Trazado_988550" data-name="Trazado 988550" d="M135.334,80.076a2.771,2.771,0,1,1-2.72-3.3,3.052,3.052,0,0,1,2.72,3.3" transform="translate(-129.893 -76.777)" fill="#63cfe8"/>
                </g>
              </g>
            </g>
            <g id="Grupo_1176555" data-name="Grupo 1176555" transform="translate(93.683 55.734)" opacity="0.17">
              <g id="Grupo_1176554" data-name="Grupo 1176554">
                <g id="Grupo_1176553" data-name="Grupo 1176553" clip-path="url(#clip-path-52)">
                  <path id="Trazado_988551" data-name="Trazado 988551" d="M130.8,82.43l3.992-4.612.407.445-4.325,4.572Z" transform="translate(-130.804 -77.818)" fill="#63cfe8"/>
                </g>
              </g>
            </g>
            <path id="Trazado_988552" data-name="Trazado 988552" d="M122.83,79.73s3.479-2.022,4.854.081" transform="translate(-34.858 -22.378)" fill="none" stroke="#223147" stroke-miterlimit="10" stroke-width="1"/>
            <line id="Línea_26976" data-name="Línea 26976" x1="9.226" y1="1.808" transform="translate(72.193 56.677)" fill="none" stroke="#223147" stroke-miterlimit="10" stroke-width="1"/>
            <g id="Grupo_1176558" data-name="Grupo 1176558" transform="translate(91.381 58.414)" opacity="0.61">
              <g id="Grupo_1176557" data-name="Grupo 1176557">
                <g id="Grupo_1176556" data-name="Grupo 1176556" clip-path="url(#clip-path-53)">
                  <path id="Trazado_988553" data-name="Trazado 988553" d="M127.822,87.932a.233.233,0,0,1-.018-.465c.617-.048,1.889-.312,1.889-.82a11.077,11.077,0,0,0-.779-2.331c-.645-1.619-.892-2.31-.734-2.628a.233.233,0,1,1,.417.208,10.319,10.319,0,0,0,.75,2.247,10.238,10.238,0,0,1,.811,2.5c0,1.075-2.081,1.266-2.318,1.284h-.018" transform="translate(-127.589 -81.56)" fill="#223147"/>
                </g>
              </g>
            </g>
            <path id="Trazado_988554" data-name="Trazado 988554" d="M128.2,94.11a10.992,10.992,0,0,1-3.878.035c-1.532-.406-.891,2.394,1.082,2.821s3.506-1.493,2.8-2.856" transform="translate(-35.039 -26.706)" fill="#223147"/>
            <path id="Trazado_988555" data-name="Trazado 988555" d="M127.253,95.068a2.935,2.935,0,0,0,1.207-.678,1.564,1.564,0,0,0-.111-.279,10.992,10.992,0,0,1-3.878.035.866.866,0,0,0-.469-.014,3.449,3.449,0,0,0,3.252.936" transform="translate(-35.19 -26.706)" fill="#fff"/>
            <path id="Trazado_988556" data-name="Trazado 988556" d="M125.126,97.416a2.355,2.355,0,0,0,.746.308,2.5,2.5,0,0,0,2.426-.784,3.874,3.874,0,0,0-3.172.476" transform="translate(-35.509 -27.464)" fill="#fd6c6b"/>
            <path id="Trazado_988557" data-name="Trazado 988557" d="M112.965,75.6,112.6,75.3c.112-.138,2.765-3.347,5.314-1.86l-.235.4c-2.209-1.29-4.692,1.72-4.717,1.751" transform="translate(-31.955 -20.731)" fill="#223147"/>
            <path id="Trazado_988558" data-name="Trazado 988558" d="M134.236,73.848a2.249,2.249,0,0,0-3.093-.353l-.266-.382c.021-.015,2.205-1.509,3.727.449Z" transform="translate(-37.141 -20.59)" fill="#223147"/>
            <path id="Trazado_988559" data-name="Trazado 988559" d="M102.616,81.269c.463,2.053-.43,4.005-2,4.359S97.4,84.6,96.941,82.551s.43-4.005,2-4.359,3.213,1.023,3.677,3.077" transform="translate(-27.476 -22.174)" fill="#f7cbad"/>
            <g id="Grupo_1176561" data-name="Grupo 1176561" transform="translate(70.625 57.714)" opacity="0.56">
              <g id="Grupo_1176560" data-name="Grupo 1176560">
                <g id="Grupo_1176559" data-name="Grupo 1176559" clip-path="url(#clip-path-54)">
                  <path id="Trazado_988560" data-name="Trazado 988560" d="M100.374,85.229a.914.914,0,0,1-.471-.141,4.134,4.134,0,0,1-1.128-3.993.831.831,0,0,1,.665-.509c.822-.085,1.821,1.131,1.932,1.27a.233.233,0,0,1-.364.291c-.36-.448-1.1-1.142-1.52-1.1-.077.009-.192.044-.3.254a3.741,3.741,0,0,0,.956,3.388c.155.1.37.158.655-.222a.233.233,0,0,1,.372.279,1,1,0,0,1-.8.48" transform="translate(-98.61 -80.582)" fill="#fd6c6b"/>
                </g>
              </g>
            </g>
            <path id="Trazado_988561" data-name="Trazado 988561" d="M99.533,72.1a4.351,4.351,0,0,1,2.573,2.841c.609,2.176.609,4.873,1.219,4s1.218-6.178.7-8.789a35.156,35.156,0,0,0,3.48-6.265l-.783,3.568s8.528-.522,11.66-4.612l-1.218,3.22s5.656-.7,6.874-2.7c0,0,1.218,4.351,2,5.221,0,0,.87-10.094-12.53-11.921,0,0-17.752.435-14.1,15.141" transform="translate(-28.07 -16.081)" fill="#223147"/>
            <path id="Trazado_988562" data-name="Trazado 988562" d="M79.231,278.62a9.875,9.875,0,1,1-9.064-10.625,9.875,9.875,0,0,1,9.064,10.625" transform="translate(-16.889 -76.045)" fill="#223147"/>
            <path id="Trazado_988563" data-name="Trazado 988563" d="M83.387,277.355s2.772,5.333,7.193,6c0,0,2.264,3.695-.4,5.081s-13.73-.13-13.73-.13,1.96-12.627,6.94-10.954" transform="translate(-21.695 -78.667)" fill="#223147"/>
            <path id="Trazado_988564" data-name="Trazado 988564" d="M74.127,293.824s12.894,2.62,13.513-1.165-11.865-3.5-11.865-3.5-4.037,2.556-1.648,4.663" transform="translate(-20.822 -82.059)" fill="#223147"/>
            <path id="Trazado_988565" data-name="Trazado 988565" d="M44.809,279.927s-3.137,12.785-11.759,11.05-25.07-1.987-25.411,6.745.15,15.779,35.621,14.737c0,0,18.47,5.669,19.121-20.207,0,0-12.035-20.294-17.572-12.325" transform="translate(-2.154 -78.914)" fill="#223147"/>
            <path id="Trazado_988566" data-name="Trazado 988566" d="M62.9,269.755s-3.967-6.386-5.338-5.216-4.874,5.046-4.874,5.046a8.765,8.765,0,0,1,3.785.62c1.22.736,3.166,4.405,3.166,4.405a4.048,4.048,0,0,0,3.261-4.854" transform="translate(-14.952 -75.033)" fill="#223147"/>
            <path id="Trazado_988567" data-name="Trazado 988567" d="M78.314,267.384s4.924-5.681,6.094-4.31,4.018,5.751,4.018,5.751a8.764,8.764,0,0,0-3.836.015c-1.321.534-3.82,3.852-3.82,3.852a4.048,4.048,0,0,1-2.455-5.308" transform="translate(-22.149 -74.597)" fill="#223147"/>
            <path id="Trazado_988568" data-name="Trazado 988568" d="M80.69,297.525s-3.652,15.127.819,16.182,10.152.1,10.656,2.6-.973,3.426-3.758,3.206-16.155.471-16.272-6.9-.222-19.288,8.554-15.088" transform="translate(-20.464 -84.186)" fill="#223147"/>
            <path id="Trazado_988569" data-name="Trazado 988569" d="M62.355,300.474s-3.652,15.127.819,16.182,10.152.1,10.656,2.6-.973,3.426-3.758,3.206-16.155.471-16.272-6.9-.222-19.288,8.554-15.088" transform="translate(-15.26 -85.023)" fill="#223147"/>
            <path id="Trazado_988570" data-name="Trazado 988570" d="M21.312,304.346s6.754-1.216,7.29,9.688l-1.486,5.488s9.163-.675,9.263,2.487S14.792,320.3,14.792,320.3,1.754,316.81,8.191,301.9c0,0,10.374-2.682,13.121,2.442" transform="translate(-1.818 -85.478)" fill="#223147"/>
            <path id="Trazado_988571" data-name="Trazado 988571" d="M10.685,296.747s-3.847-4.509-2.178-7.881-10.523,8.976-1.452,13.9c0,0,3.941-1.089,3.63-6.019" transform="translate(-1.04 -81.814)" fill="#223147"/>
            <path id="Trazado_988572" data-name="Trazado 988572" d="M24.053,294.892l.484,11.071s16.259,2.788,21.834,1.186l-1.677-13.208a11.212,11.212,0,0,1-6.974,1.54c-3.588-.607-12.175-2.241-13.668-.589" transform="translate(-6.826 -83.417)" fill="#fd6c6b"/>
            <g id="Grupo_1176564" data-name="Grupo 1176564" transform="translate(17.238 211.722)" opacity="0.17">
              <g id="Grupo_1176563" data-name="Grupo 1176563">
                <g id="Grupo_1176562" data-name="Grupo 1176562" clip-path="url(#clip-path-55)">
                  <path id="Trazado_988573" data-name="Trazado 988573" d="M45.016,296.9c-1.68,3.413-4.571,5.965-8.817,6.184-5.8.3-9.181-3.191-12.13-7.474l.473,10.824s16.259,2.787,21.834,1.186Z" transform="translate(-24.069 -295.614)" fill="#051d58"/>
                </g>
              </g>
            </g>
            <path id="Trazado_988574" data-name="Trazado 988574" d="M54.863,290.4s14.738,7.176,20.628,5.351l-.016,3.873s-15.628-.291-21.685-7.648Z" transform="translate(-15.265 -82.412)" fill="#fd6c6b"/>
            <path id="Trazado_988575" data-name="Trazado 988575" d="M34.538,306.466c-4.4-.349-8.5-.839-8.839-.881l-.2-.024-.344-10.9.466-.015.331,10.5c5.825.7,16.866,1.728,19.137.906l-1.438-11.324.462-.059,1.481,11.663-.148.074c-1.284.638-6.268.428-10.909.059" transform="translate(-7.139 -83.618)" fill="#fff"/>
            <g id="Grupo_1176567" data-name="Grupo 1176567" transform="translate(19.997 224.717)" opacity="0.35">
              <g id="Grupo_1176566" data-name="Grupo 1176566">
                <g id="Grupo_1176565" data-name="Grupo 1176565" clip-path="url(#clip-path-56)">
                  <path id="Trazado_988576" data-name="Trazado 988576" d="M33.2,323.316a.233.233,0,0,1-.214-.226c-.149-5.594-4.918-8.875-4.966-8.908a.233.233,0,1,1,.26-.386c.05.034,5.016,3.444,5.172,9.281a.233.233,0,0,1-.226.239H33.2" transform="translate(-27.921 -313.757)" fill="#fff"/>
                </g>
              </g>
            </g>
            <g id="Grupo_1176570" data-name="Grupo 1176570" transform="translate(38.973 221.45)" opacity="0.35">
              <g id="Grupo_1176569" data-name="Grupo 1176569">
                <g id="Grupo_1176568" data-name="Grupo 1176568" clip-path="url(#clip-path-57)">
                  <path id="Trazado_988577" data-name="Trazado 988577" d="M55.361,321.605a.229.229,0,0,1-.143-.064c-2.514-2.412,1.665-11.808,1.844-12.207a.233.233,0,0,1,.425.19,43.644,43.644,0,0,0-1.846,5.074c-.991,3.436-1.025,5.72-.1,6.608a.232.232,0,0,1-.18.4" transform="translate(-54.415 -309.196)" fill="#fff"/>
                </g>
              </g>
            </g>
            <g id="Grupo_1176573" data-name="Grupo 1176573" transform="translate(45.557 223.511)" opacity="0.35">
              <g id="Grupo_1176572" data-name="Grupo 1176572">
                <g id="Grupo_1176571" data-name="Grupo 1176571" clip-path="url(#clip-path-58)">
                  <path id="Trazado_988578" data-name="Trazado 988578" d="M76.6,323.024a.231.231,0,0,1-.211-.193c-.28-1.634-1.287-1.743-3.743-1.848a26.86,26.86,0,0,1-5.536-.686,4.275,4.275,0,0,1-3.168-2.341c-1.059-2.44.714-5.631.79-5.766a.233.233,0,0,1,.405.228c-.018.031-1.735,3.126-.768,5.353a3.836,3.836,0,0,0,2.85,2.072,26.48,26.48,0,0,0,5.447.674c2.3.1,3.827.165,4.181,2.234a.232.232,0,0,1-.19.269.227.227,0,0,1-.058,0" transform="translate(-63.608 -312.073)" fill="#fff"/>
                </g>
              </g>
            </g>
            <g id="Grupo_1176576" data-name="Grupo 1176576" transform="translate(60.289 208.491)" opacity="0.56">
              <g id="Grupo_1176575" data-name="Grupo 1176575">
                <g id="Grupo_1176574" data-name="Grupo 1176574" clip-path="url(#clip-path-59)">
                  <path id="Trazado_988579" data-name="Trazado 988579" d="M89.557,293.492a14.764,14.764,0,0,1-5.379-1.993l.244-.4c.039.024,3.87,2.348,6.241,1.88l.09.456a4.4,4.4,0,0,1-1.2.054" transform="translate(-84.178 -291.103)" fill="#fff"/>
                </g>
              </g>
            </g>
            <path id="Trazado_988580" data-name="Trazado 988580" d="M94.081,285.529l1.5.192s1.611,2.427.829,3.313-2.443-2.091-2.331-3.505" transform="translate(-26.697 -81.03)" fill="#ffa5d2"/>
            <path id="Trazado_988581" data-name="Trazado 988581" d="M80.15,282.366a.862.862,0,1,1-.748-1.137.979.979,0,0,1,.748,1.137" transform="translate(-22.271 -79.809)" fill="#fff"/>
          </g>
        </g>
      </g>
    </g>
  </g>
</svg>
