<svg xmlns="http://www.w3.org/2000/svg" xmlns:xlink="http://www.w3.org/1999/xlink" width="295" height="358" viewBox="0 0 295 358">
  <defs>
    <clipPath id="clip-path">
      <rect id="Rect치ngulo_455092" data-name="Rect치ngulo 455092" width="236.657" height="334.534" fill="none"/>
    </clipPath>
  </defs>
  <g id="Grupo_1182492" data-name="Grupo 1182492" transform="translate(-1124.711 -27387)">
    <rect id="Rect치ngulo_454421" data-name="Rect치ngulo 454421" width="295" height="358" rx="10" transform="translate(1124.711 27387)" fill="#ddbd66"/>
    <g id="Grupo_1183133" data-name="Grupo 1183133" transform="translate(1153.882 27398.732)">
      <g id="Grupo_1183133-2" data-name="Grupo 1183133" clip-path="url(#clip-path)">
        <path id="Trazado_996797" data-name="Trazado 996797" d="M140.853,241.434,60.825,234.25l-2.454,6.068s79.014,7.585,79.014,6.447,3.468-5.331,3.468-5.331" transform="translate(37.433 0)" fill="#282726"/>
        <path id="Trazado_996798" data-name="Trazado 996798" d="M127,239.568c-1.112.141-70.212,27.088-70.212,27.088l.327,10.792,71.959-29.826Z" transform="translate(50.797 0)" fill="#282726"/>
        <path id="Trazado_996799" data-name="Trazado 996799" d="M61.021,195.3l1.636,51.994-6.871,1.642-1.309-51.72Z" transform="translate(119.523 0)" fill="#282726"/>
        <path id="Trazado_996800" data-name="Trazado 996800" d="M63.4,243.161c0,4.483-2.529,8.117-5.648,8.117s-5.648-3.634-5.648-8.117,2.529-8.117,5.648-8.117,5.648,3.634,5.648,8.117" transform="translate(121.159 0)" fill="#77706b"/>
        <path id="Trazado_996801" data-name="Trazado 996801" d="M217.666,320.843s.033-9.853,2.414-10.16,8.435,4,8.435,4l2.225-6.2s-6.94,1.078-8.762-.911,7.193-7.156,7.193-7.156l-5.021-5.108s-3.6,8.778-5.174,8.893-3.643-9.674-3.643-9.674-5.888,2.9-5.668,2.876,6.291,6,6.369,8-9.778-.288-9.778-.288l.53,8.462s7.333-4.882,8.82-3.514-4.771,8.3-4.771,8.3Z" transform="translate(-200.339 0)" fill="#282726"/>
        <path id="Trazado_996802" data-name="Trazado 996802" d="M59.031,241.124,46.6,238.408a7.776,7.776,0,0,0-1.309,8.148L57.4,248.932Z" transform="translate(132.964 0)" fill="#77706b"/>
        <path id="Trazado_996803" data-name="Trazado 996803" d="M215.186,323.772c-8.307-1.88-13.449-10.973-11.493-20.315s10.276-15.4,18.58-13.524,13.452,10.967,11.5,20.309-10.279,15.4-18.582,13.53m13.98-14.271c1.346-6.443-2.2-12.716-7.923-14.007s-11.454,2.885-12.8,9.325,2.194,12.707,7.919,14,11.457-2.876,12.809-9.316" transform="translate(-200.804 0)" fill="#282726"/>
        <path id="Trazado_996804" data-name="Trazado 996804" d="M119.4,330.2s-4.026-8.924-2-10.257,9.273-.122,9.273-.122l-.541-6.592s-5.832,4.049-8.3,3.059,3.558-9.658,3.558-9.658l-6.643-2.394s.363,9.53-1.018,10.334-7.276-7.132-7.276-7.132-4.13,5.23-3.941,5.112,8.158,2.639,9.051,4.41-8.96,4.073-8.96,4.073l3.963,7.416s4.621-7.664,6.528-7.086-.9,9.619-.9,9.619Z" transform="translate(7.477 0)" fill="#282726"/>
        <path id="Trazado_996805" data-name="Trazado 996805" d="M188.348,308.1c-24.722-.368-44.843-30.479-44.941-67.249s19.87-66.277,44.586-65.9,44.843,30.479,44.941,67.249-19.864,66.272-44.586,65.9m39.488-65.113c-.088-33.625-17.874-61.144-39.732-61.476s-39.5,26.665-39.407,60.291,17.88,61.151,39.732,61.482,39.5-26.672,39.407-60.3" transform="translate(-139.684 0)" fill="#77706b"/>
        <path id="Trazado_996806" data-name="Trazado 996806" d="M209.569,182.3l-1.191,3.207q-1.612,4.346-3.226,8.686l-4.767,12.837-5.838,15.721q-3.186,8.58-6.371,17.158l-6.432,17.319q-3.009,8.1-6.019,16.209l-5.067,13.647-3.647,9.819c-.578,1.556-1.129,3.124-1.734,4.67-.026.066-.049.133-.074.2-.092.247-.491.14-.4-.11L166,298.457q1.614-4.344,3.226-8.686l4.767-12.837,5.838-15.721q3.186-8.58,6.371-17.158l6.432-17.319,6.019-16.209q2.534-6.822,5.068-13.645,1.822-4.913,3.646-9.821c.578-1.556,1.13-3.123,1.734-4.67.026-.065.05-.133.074-.2.092-.248.491-.141.4.109" transform="translate(-137.717 0)" fill="#282726"/>
        <path id="Trazado_996807" data-name="Trazado 996807" d="M222.813,270.951l-2-1.979-5.424-5.353-8.054-7.952q-4.892-4.829-9.784-9.658l-10.764-10.626L175.965,224.7l-10.132-10-8.526-8.417-6.16-6.081c-.965-.953-1.99-1.872-2.908-2.871-.04-.043-.085-.084-.127-.125a.206.206,0,0,1,.291-.292l2.005,1.979,5.423,5.353,8.055,7.952,9.783,9.658,10.764,10.626,10.818,10.679,10.132,10,8.526,8.417,6.16,6.081c.966.953,1.99,1.872,2.909,2.871.04.043.084.084.127.125.189.187-.1.479-.292.292" transform="translate(-134.559 0)" fill="#282726"/>
        <path id="Trazado_996808" data-name="Trazado 996808" d="M172.3,168.579l.627,3.66q.852,4.98,1.706,9.961l2.523,14.733,3.078,17.977q1.686,9.845,3.373,19.691,1.7,9.939,3.4,19.877,1.587,9.267,3.175,18.534l2.682,15.663,1.929,11.263c.3,1.777.615,3.554.913,5.333l.039.228c.044.26-.353.371-.4.11l-.627-3.66q-.852-4.982-1.706-9.961l-2.523-14.733-3.078-17.977-3.372-19.691q-1.7-9.939-3.4-19.877l-3.174-18.535q-1.343-7.832-2.683-15.662-.965-5.633-1.928-11.263c-.305-1.778-.616-3.554-.914-5.333l-.039-.228c-.044-.26.353-.372.4-.11" transform="translate(-130.983 0)" fill="#282726"/>
        <path id="Trazado_996809" data-name="Trazado 996809" d="M230.064,223.864l-8.238,2.753-19.78,6.611-23.918,7.994L157.562,248.1l-6.824,2.28a33.771,33.771,0,0,1-3.242,1.084,1.41,1.41,0,0,0-.143.048c-.252.084-.361-.314-.11-.4l8.239-2.753,19.779-6.611,23.919-7.994,20.565-6.874,6.825-2.281a33.944,33.944,0,0,1,3.242-1.083,1.4,1.4,0,0,0,.142-.048c.253-.084.361.314.11.4" transform="translate(-140.65 0)" fill="#282726"/>
        <path id="Trazado_996810" data-name="Trazado 996810" d="M146.524,223.009l8.316,2.368,19.962,5.684,24,6.833,20.849,5.936,6.83,1.945c1.069.3,2.211.53,3.251.925.046.018.1.028.145.042a.206.206,0,0,1-.109.4l-8.317-2.368-19.962-5.684-24-6.833-20.849-5.936-6.831-1.945c-1.069-.3-2.21-.53-3.25-.926-.047-.017-.1-.028-.146-.041a.207.207,0,0,1,.11-.4" transform="translate(-139.633 0)" fill="#282726"/>
        <path id="Trazado_996811" data-name="Trazado 996811" d="M222.627,199.707l-1.82,2.24-4.952,6.1q-3.663,4.507-7.325,9.017l-8.937,11-9.79,12.052q-4.941,6.084-9.883,12.166l-9.215,11.344q-3.894,4.794-7.787,9.587l-5.6,6.894c-.878,1.08-1.707,2.243-2.653,3.265-.04.044-.076.093-.113.14-.168.206-.458-.088-.292-.292q.909-1.121,1.82-2.24l4.952-6.1q3.663-4.507,7.325-9.017l8.937-11,9.79-12.052q4.941-6.084,9.883-12.166l9.215-11.344q3.894-4.794,7.787-9.587l5.6-6.894c.878-1.08,1.707-2.243,2.653-3.265.04-.044.076-.093.113-.14.168-.206.458.088.292.292" transform="translate(-140.23 0)" fill="#282726"/>
        <path id="Trazado_996812" data-name="Trazado 996812" d="M190.951,171.242q-.165,1.867-.331,3.735-.45,5.082-.9,10.165l-1.332,15.035-1.626,18.345q-.89,10.048-1.78,20.1-.9,10.143-1.8,20.287l-1.677,18.919q-.708,8-1.417,15.99-.509,5.751-1.019,11.5c-.161,1.818-.314,3.637-.483,5.454l-.021.236c-.023.262-.436.265-.413,0q.167-1.868.331-3.735.451-5.082.9-10.165l1.332-15.035,1.626-18.345q.891-10.049,1.781-20.1.9-10.143,1.8-20.287.837-9.459,1.676-18.919.708-8,1.417-15.99.51-5.751,1.019-11.5c.161-1.817.315-3.636.484-5.453.007-.079.013-.157.02-.236.024-.262.436-.265.413,0" transform="translate(-132.447 0)" fill="#282726"/>
        <path id="Trazado_996813" data-name="Trazado 996813" d="M158.872,180.6l1.385,2.945q1.886,4.007,3.77,8.014l5.55,11.8,6.8,14.449q3.723,7.916,7.445,15.829,3.743,7.957,7.486,15.916l7.008,14.9q2.96,6.294,5.92,12.587l4.242,9.019c.672,1.429,1.373,2.849,2.018,4.291.028.062.058.122.087.183.112.239-.244.449-.357.209q-.691-1.473-1.385-2.945-1.884-4.008-3.769-8.014l-5.55-11.8-6.8-14.45L185.276,237.7q-3.743-7.959-7.486-15.916l-7.007-14.9L164.862,194.3q-2.121-4.509-4.241-9.018c-.673-1.43-1.373-2.85-2.019-4.291-.028-.062-.057-.123-.086-.184-.113-.239.243-.448.356-.208" transform="translate(-132.438 0)" fill="#282726"/>
        <path id="Trazado_996814" data-name="Trazado 996814" d="M231.513,292.66s-27.2,22.469-27.36,23.827-80-5.432-79.668-7.469c.094-.586-1.6-4.565,1.636-7.468,8-7.178,25.683-16.634,25.683-16.634l78.359,3.734Z" transform="translate(-118.981 0)" fill="#282726"/>
        <path id="Trazado_996815" data-name="Trazado 996815" d="M67.5,227.75s40.815-23.674,42.166-24.986l-.491-7.468L64.293,222.97Z" transform="translate(62.702 0)" fill="#282726"/>
        <path id="Trazado_996816" data-name="Trazado 996816" d="M201.38,185.112s-40.9,26.479-42.206,26.479S66.91,199.709,66.91,199.709l38.28-26.478L201.707,179Z" transform="translate(-31.96 0)" fill="#8255a5"/>
        <path id="Trazado_996817" data-name="Trazado 996817" d="M177.059,184.6s2.454-89.62,0-91.148S79.4,86.836,76.452,90.909,62.22,169.836,62.22,169.836Z" transform="translate(-3.713 0)" fill="#8255a5"/>
        <path id="Trazado_996818" data-name="Trazado 996818" d="M57.051,227.214s52.569-22.862,54.152-24.166l-1.044-20.281L56.035,209.522Z" transform="translate(69.419 0)" fill="#282726"/>
        <path id="Trazado_996819" data-name="Trazado 996819" d="M181.1,76.142s-20.612,24.187-26.256,36.154c-2.527,5.358-4.417,22.914-4.417,36.153V163.98l24.784-6.111s2.454-37.171,3.926-38.19,15.95-23.933,15.95-23.933Z" transform="translate(-108.847 0)" fill="#c98b61"/>
        <path id="Trazado_996820" data-name="Trazado 996820" d="M233.854,248.828c-9.239,39.152-38.567,64.669-65.507,56.982S127.051,260.153,136.3,221s38.567-64.676,65.507-56.989,41.29,45.657,32.052,84.816m-32.815-76.337c-23.692-6.754-49.49,15.689-57.618,50.128s4.494,67.844,28.192,74.605,49.5-15.689,57.618-50.128-4.494-67.845-28.192-74.605" transform="translate(-133.49 0)" fill="#282726"/>
        <path id="Trazado_996821" data-name="Trazado 996821" d="M159.291,148.449l44.052,19.35-.28,5.856-44.052-17.568Z" transform="translate(-125.696 0)" fill="#282726"/>
        <path id="Trazado_996822" data-name="Trazado 996822" d="M197.747,276.654a17.713,17.713,0,0,1-3.555,4.38c-2,1.613-13.551,10.372-17.772,14.521s-2.222,8.99-.222,11.3,9.775.692,14-.461,11.107-3.457,13.107-4.84,10.664-5.071,15.773-9.451,6.887-8.529,6.887-13.139-.222-7.146-.222-7.146Z" transform="translate(-163.235 0)" fill="#fff"/>
        <path id="Trazado_996823" data-name="Trazado 996823" d="M194.355,281.123s.46,10.742-.23,12.89-24.617,19.1-32.669,22.2-15.645,1.194-16.105-2.387.69-7.4,3.681-11.458,16.8-17.187,18.175-20.29,27.148-.955,27.148-.955" transform="translate(-103.101 0)" fill="#fff"/>
        <path id="Trazado_996824" data-name="Trazado 996824" d="M104.981,252.368c-3.156,43.881-27.668,77.19-57,74.846S.589,287.762,3.745,243.881s24.5-77.557,53.832-75.213,50.559,39.819,47.4,83.7m-7.194-.171c2.668-37.1-14.425-68.716-38.173-70.613s-45.168,26.645-47.836,63.742S26.2,314.041,49.95,315.939,95.119,289.3,97.787,252.2" transform="translate(127.977 0)" fill="#282726"/>
        <path id="Trazado_996825" data-name="Trazado 996825" d="M206.124,142.848l-.834,31.825-7.509.764.834-32.08Z" transform="translate(-167.248 0)" fill="#282726"/>
        <path id="Trazado_996826" data-name="Trazado 996826" d="M141.117,131.319S94,161.986,86.545,179.386c-3.507,8.182,5.1,99.556,5.1,99.556s11.171.432,15.588.681a83.769,83.769,0,0,0,8.588,0V283.9s6.316-.012,20.858,1.019a189.208,189.208,0,0,0,22.883.422s1.995-33.945,2.485-44.431,1.865-43.189,1.865-43.189,18.148-10.659,27.964-17.4,20.626-12.05,22.1-18.791.245-24.218-.982-28.463-74.106-5.492-74.106-5.492Z" transform="translate(-63.694 0)" fill="#f9ba6e"/>
        <path id="Trazado_996827" data-name="Trazado 996827" d="M67.027,162.707l44.052,19.35-.281,5.856L66.746,170.345Z" transform="translate(58.831 0)" fill="#282726"/>
        <path id="Trazado_996828" data-name="Trazado 996828" d="M75.9,169.426s-4.078,10.073-3.431,15.28,1.654,10.436,4.151,10.961,3.833-2.053,3.658-4.086.384-6.231.845-6.728S75.9,169.426,75.9,169.426" transform="translate(83.104 0)" fill="#c98b61"/>
        <path id="Trazado_996829" data-name="Trazado 996829" d="M210.169,118.936s-9.949-3.668-13.015-3.352-46.314,19.8-46.741,21.753-1.172,4.456.116,5.7,14.685,3.205,16.059,3.319,41.578-19.333,43.06-20.634.521-6.787.521-6.787" transform="translate(-123.627 0)" fill="#9c61bc"/>
        <path id="Trazado_996830" data-name="Trazado 996830" d="M72.266,192.918l-1.308,3.189-3.542,8.637-5.235,12.764q-3.2,7.815-6.41,15.631l-7,17.059q-3.531,8.608-7.061,17.218l-6.608,16.112-5.563,13.564q-2,4.878-4,9.755c-.634,1.544-1.248,3.1-1.9,4.633-.027.065-.053.13-.079.195-.1.243-.5.137-.4-.109l1.308-3.19q1.77-4.318,3.542-8.636l5.234-12.765,6.411-15.63,7-17.059q3.53-8.608,7.061-17.218,3.3-8.056,6.608-16.112l5.562-13.564,4-9.756c.633-1.544,1.248-3.1,1.9-4.633.028-.064.054-.13.08-.2.1-.242.5-.136.4.11" transform="translate(141.226 0)" fill="#282726"/>
        <path id="Trazado_996831" data-name="Trazado 996831" d="M86.837,281.037q-1.092-.978-2.187-1.955l-5.983-5.349q-4.407-3.939-8.815-7.88L59.1,256.242,47.27,245.668,35.38,235.041q-5.543-4.954-11.085-9.91l-9.371-8.377L8.18,210.726c-1.064-.951-2.2-1.861-3.21-2.869-.043-.043-.091-.082-.137-.122-.2-.178.095-.469.292-.292L7.312,209.4l5.984,5.35,8.815,7.879q5.375,4.806,10.753,9.612l11.828,10.573,11.889,10.628,11.087,9.91q4.686,4.188,9.371,8.377,3.371,3.013,6.745,6.028c1.064.951,2.2,1.861,3.209,2.869.043.043.091.082.137.122.2.178-.094.468-.293.292" transform="translate(144.694 0)" fill="#282726"/>
        <path id="Trazado_996832" data-name="Trazado 996832" d="M31.349,179.276q.347,1.83.692,3.661.935,4.938,1.868,9.877,1.391,7.349,2.78,14.7l3.369,17.81,3.714,19.64q1.862,9.845,3.724,19.689l3.5,18.482,2.934,15.511,2.118,11.2c.334,1.768.677,3.536,1,5.306.014.076.029.152.043.228.049.26-.348.371-.4.11q-.345-1.832-.692-3.662-.935-4.938-1.868-9.876-1.389-7.349-2.78-14.7-1.685-8.906-3.368-17.811-1.857-9.819-3.715-19.639l-3.723-19.689q-1.748-9.241-3.5-18.482-1.467-7.755-2.933-15.511L32,184.92c-.335-1.769-.678-3.536-1-5.306-.014-.076-.028-.152-.043-.228-.049-.26.349-.371.4-.11" transform="translate(148.617 0)" fill="#282726"/>
        <path id="Trazado_996833" data-name="Trazado 996833" d="M94.779,234.231l-2.425.734-6.6,2-9.763,2.954-11.914,3.606-13.051,3.95L37.848,251.46l-12.289,3.72-10.39,3.144-7.478,2.263c-1.168.353-2.362.833-3.559,1.077-.05.01-.1.031-.15.046a.207.207,0,0,1-.11-.4l2.425-.734,6.6-2,9.763-2.955,11.914-3.6,13.051-3.95L60.8,244.082l12.29-3.719,10.389-3.144,7.478-2.263c1.168-.354,2.362-.833,3.559-1.077.051-.011.1-.031.15-.046a.207.207,0,0,1,.11.4" transform="translate(138.006 0)" fill="#282726"/>
        <path id="Trazado_996834" data-name="Trazado 996834" d="M3.071,233.38l2.439.629,6.68,1.722,9.834,2.536,12,3.092,13.138,3.387,13.329,3.437,12.368,3.189,10.455,2.7,7.525,1.94c1.178.3,2.437.518,3.585.924a1.54,1.54,0,0,0,.152.04.207.207,0,0,1-.11.4l-2.438-.629-6.681-1.723-9.834-2.535-12-3.092L50.376,246l-13.33-3.436-12.367-3.189-10.455-2.695L6.7,234.741c-1.178-.3-2.437-.517-3.585-.924-.049-.017-.1-.026-.153-.039a.207.207,0,0,1,.11-.4" transform="translate(139.124 0)" fill="#282726"/>
        <path id="Trazado_996835" data-name="Trazado 996835" d="M86.606,210.219l-1.991,2.22-5.449,6.074-8.029,8.948q-4.917,5.482-9.837,10.965L50.571,250.387,39.739,262.46,29.6,273.765q-4.269,4.756-8.535,9.514L14.9,290.147c-.963,1.073-1.884,2.215-2.9,3.236-.044.044-.083.093-.125.139-.177.2-.468-.1-.292-.292l1.992-2.22,5.449-6.074q4.013-4.475,8.027-8.948l9.837-10.965,10.73-11.961,10.831-12.073,10.142-11.3q4.268-4.757,8.534-9.514,3.081-3.434,6.161-6.868c.963-1.073,1.885-2.215,2.9-3.236.044-.044.083-.093.124-.139.178-.2.469.1.292.292" transform="translate(138.469 0)" fill="#282726"/>
        <path id="Trazado_996836" data-name="Trazado 996836" d="M51.826,181.923q-.183,1.863-.365,3.727-.494,5.051-.988,10.1-.733,7.491-1.466,14.983-.892,9.109-1.783,18.217L45.271,248.9l-1.977,20.207q-.92,9.389-1.838,18.777-.779,7.961-1.558,15.92L38.782,315.21c-.176,1.8-.347,3.606-.529,5.407-.008.078-.015.156-.023.234-.025.262-.438.265-.412,0q.181-1.863.364-3.727.5-5.051.989-10.1.732-7.491,1.466-14.983.891-9.109,1.783-18.217.976-9.977,1.952-19.951.989-10.1,1.978-20.207.918-9.389,1.837-18.777.779-7.961,1.558-15.92l1.116-11.406c.177-1.8.347-3.6.529-5.407.008-.078.016-.156.023-.234.026-.262.439-.265.413,0" transform="translate(147.013 0)" fill="#282726"/>
        <path id="Trazado_996837" data-name="Trazado 996837" d="M16.615,191.22l1.515,2.916,4.143,7.976,6.105,11.754L35.825,228.2l8.157,15.7,8.264,15.91q3.837,7.387,7.675,14.776l6.486,12.486q2.333,4.49,4.664,8.979c.736,1.417,1.508,2.821,2.211,4.255.03.062.063.122.1.183.122.235-.234.444-.357.208q-.756-1.458-1.514-2.916l-4.143-7.976q-3.054-5.877-6.106-11.754L53.81,263.72l-8.156-15.7-8.265-15.91q-3.837-7.389-7.675-14.776l-6.486-12.486q-2.331-4.489-4.664-8.979c-.736-1.417-1.507-2.822-2.21-4.256-.03-.061-.064-.122-.1-.183-.123-.235.233-.444.356-.208" transform="translate(147.021 0)" fill="#282726"/>
        <path id="Trazado_996838" data-name="Trazado 996838" d="M48.8,324.935c-27.155-.15-49-33.446-48.8-74.36s22.394-73.958,49.541-73.8,49,33.446,48.794,74.36-22.386,73.952-49.54,73.8m43.934-72.868c.19-37.416-19.112-67.851-43.121-67.99S6,214.162,5.806,251.577s19.118,67.858,43.121,68,43.614-30.092,43.8-67.508" transform="translate(138.318 0)" fill="#77706b"/>
        <path id="Trazado_996839" data-name="Trazado 996839" d="M64.323,167.1s7.367,3.814,10.7,7.535,3.173,10.378,1.549,12.3-3.457-.134-3.457-.134-.426,2.446-2.347,3.229-3.585-1.077-3.585-1.077a3.72,3.72,0,0,1-1.678,3.532c-2.022,1.3-3.835-1.13-3.835-1.13s-1.118,3.865-3.556,3.568c-4.266-.519-3.894-5.889-7.883-9.425s-2.7-13.439-2.913-16.074S64.323,167.1,64.323,167.1" transform="translate(111.692 0)" fill="#c98b61"/>
        <path id="Trazado_996840" data-name="Trazado 996840" d="M185.751,147.561c-2.406,1.46-4.767,3-7.113,4.549-5.366,3.55-10.632,7.259-15.729,11.186A124.2,124.2,0,0,0,146.9,177.519a16,16,0,0,0-2.473,3.158,15.784,15.784,0,0,0-1.341,3.732,50.225,50.225,0,0,0-1.125,9.97c-.27,7.369.18,14.758-.3,22.12-.246,3.8-.332,7.594-.349,11.4-.025,5.383.034,10.767.117,16.149q.134,8.689.352,17.376.176,7.263.391,14.527.111,3.795.234,7.591l.012.355c.008.266-.4.265-.413,0q-.09-2.679-.169-5.357-.2-6.694-.375-13.39-.22-8.578-.379-17.16c-.1-5.637-.179-11.276-.187-16.914-.006-4.123-.014-8.257.206-12.376.148-2.78.32-5.546.348-8.332.038-3.817-.025-7.633.005-11.45a92.25,92.25,0,0,1,.563-10.835,21.283,21.283,0,0,1,2.169-7.829,17.485,17.485,0,0,1,2.478-3.091c1.144-1.245,2.332-2.449,3.55-3.621,2.6-2.505,5.332-4.872,8.127-7.155,5.339-4.36,10.919-8.424,16.613-12.305,3.316-2.259,6.671-4.465,10.086-6.573l.5-.3a.206.206,0,0,1,.208.356" transform="translate(-90.091 0)" fill="#282726"/>
        <path id="Trazado_996841" data-name="Trazado 996841" d="M146.92,140.047a53.876,53.876,0,0,1-.213,12.64,22.968,22.968,0,0,1-2.633,8.641,15.941,15.941,0,0,1-3.152,3.5,133.568,133.568,0,0,1-12.7,9.791c-5.19,3.674-10.473,7.216-15.791,10.7q-3.406,2.232-6.835,4.43-1.372.881-2.749,1.755a9.169,9.169,0,0,0-3.644,4.208c-.979,2.358-.758,5.2-.858,7.718q-.162,4.1-.321,8.194-.374,9.687-.714,19.376c-.209,6.043-.41,12.086-.559,18.131-.134,5.429-.109,10.859-.247,16.287q-.24,9.473-.8,18.933-.031.537-.064,1.074c-.016.264-.429.266-.413,0,.291-4.683.506-9.373.68-14.062.232-6.268.236-12.534.357-18.8.108-5.58.287-11.159.472-16.738q.326-9.826.7-19.652.306-8.075.631-16.149a13.19,13.19,0,0,1,.592-4.05,9.279,9.279,0,0,1,3-4.144c.9-.705,1.92-1.275,2.882-1.89q1.554-.995,3.1-2,7.686-4.963,15.247-10.115c4.978-3.41,9.94-6.877,14.642-10.663a49.327,49.327,0,0,0,4.665-4.133,13.412,13.412,0,0,0,3.084-5.567c1.592-5.215,1.69-10.948,1.315-16.353-.024-.355-.05-.709-.087-1.063-.027-.264.386-.262.413,0" transform="translate(-5.758 0)" fill="#282726"/>
        <path id="Trazado_996842" data-name="Trazado 996842" d="M118.768,157.36l-1.379,69.557-8.273.289,1.609-69.82Z" transform="translate(8.773 0)" fill="#282726"/>
        <path id="Trazado_996843" data-name="Trazado 996843" d="M122.2,133.762s-9.749-3.722-12.767-3.438-45.735,19.165-46.174,21.1-1.194,4.4.059,5.644,14.411,3.308,15.761,3.433,41.073-18.751,42.544-20.024.577-6.713.577-6.713" transform="translate(51.563 0)" fill="#9c61bc"/>
        <path id="Trazado_996844" data-name="Trazado 996844" d="M129.279,221.265s-13.741,5.96-15.7,9-2.863,7.819-2.863,16.523.491,47.976.491,47.976l7.974-2.1s-1.1-45.927-.858-50.178,1.472-8.056,3.435-9.675,10.837-5.4,10.837-5.4Z" transform="translate(-6.646 0)" fill="#282726"/>
        <path id="Trazado_996845" data-name="Trazado 996845" d="M54.988,186.887c-.1-1.4-.263-2.8-.477-4.181a27.312,27.312,0,0,0-.665-3.229,7.887,7.887,0,0,0-1.3-2.623l-1-1.382c-.156-.215.2-.422.356-.208a13.274,13.274,0,0,1,2.207,3.655,31.657,31.657,0,0,1,1.141,6.324c.058.547.112,1.1.151,1.644.018.265-.394.264-.413,0" transform="translate(129.748 0)" fill="#282726"/>
        <path id="Trazado_996846" data-name="Trazado 996846" d="M60.648,189.412c-.214-1.806-.49-3.611-.853-5.392a13.3,13.3,0,0,0-.877-3.074c-.45-.939-.94-1.865-1.433-2.782-.125-.234.231-.443.356-.209.5.939,1.013,1.885,1.466,2.85a13.85,13.85,0,0,1,.886,3.105c.371,1.818.649,3.66.868,5.5.031.263-.382.261-.413,0" transform="translate(118.137 0)" fill="#282726"/>
        <path id="Trazado_996847" data-name="Trazado 996847" d="M66.6,191.585a30.688,30.688,0,0,0-.618-5.424,11.742,11.742,0,0,0-1.516-3.84,4.752,4.752,0,0,0-1.335-1.559c-.226-.138-.019-.495.208-.356a4.767,4.767,0,0,1,1.322,1.458,11.622,11.622,0,0,1,1.657,3.908,30.291,30.291,0,0,1,.7,5.813c.008.266-.4.265-.413,0" transform="translate(106.614 0)" fill="#282726"/>
        <path id="Trazado_996848" data-name="Trazado 996848" d="M50.31,245.537c0,4.484-2.529,8.118-5.648,8.118s-5.648-3.634-5.648-8.118,2.529-8.116,5.648-8.116,5.648,3.634,5.648,8.116" transform="translate(147.333 0)" fill="#77706b"/>
        <path id="Trazado_996849" data-name="Trazado 996849" d="M47.529,245.091c0,2.761-1.557,5-3.478,5s-3.479-2.238-3.479-5,1.558-5,3.479-5,3.478,2.238,3.478,5" transform="translate(148.556 0)" fill="#282726"/>
        <path id="Trazado_996850" data-name="Trazado 996850" d="M185.685,284.268c-2.683,3.143-5.389,6.268-8.148,9.344-.87.971-1.745,1.937-2.649,2.877-.184.192-.476-.1-.292-.292,3.412-3.547,6.6-7.328,9.8-11.059q.5-.58.995-1.162c.173-.2.464.092.292.292" transform="translate(-123.618 0)" fill="#282726"/>
        <path id="Trazado_996851" data-name="Trazado 996851" d="M175.437,291.087a15.709,15.709,0,0,0-10.477-2.864,1.039,1.039,0,0,1-1.031-1.032,1.052,1.052,0,0,1,1.031-1.031,17.5,17.5,0,0,1,11.518,3.146,1.059,1.059,0,0,1,.37,1.411,1.039,1.039,0,0,1-1.411.37" transform="translate(-104.258 0)" fill="#282726"/>
        <path id="Trazado_996852" data-name="Trazado 996852" d="M179.544,297.046a17.122,17.122,0,0,0-11.251-4.931c-1.323-.053-1.329-2.116,0-2.063A19.293,19.293,0,0,1,181,295.587c.948.932-.511,2.391-1.459,1.459" transform="translate(-111.952 0)" fill="#282726"/>
        <path id="Trazado_996853" data-name="Trazado 996853" d="M182.591,302.6a12.467,12.467,0,0,0-9.673-4.924,1.032,1.032,0,0,1,0-2.063,14.649,14.649,0,0,1,11.454,5.946,1.037,1.037,0,0,1-.37,1.411,1.056,1.056,0,0,1-1.411-.37" transform="translate(-119.789 0)" fill="#282726"/>
        <path id="Trazado_996854" data-name="Trazado 996854" d="M205.717,284.751a10.036,10.036,0,0,0-4.543-2.34,16.571,16.571,0,0,0-2.727-.549c-.44-.047-.882-.075-1.325-.078-.2,0-.407,0-.61.014-.1.005-.193.012-.289.021-.034,0-.34.042-.162.016a1.066,1.066,0,0,1-1.269-.721,1.039,1.039,0,0,1,.72-1.269,15.077,15.077,0,0,1,6.211.577,11.948,11.948,0,0,1,5.453,2.87c.915.962-.541,2.423-1.459,1.459" transform="translate(-165.57 0)" fill="#282726"/>
        <path id="Trazado_996855" data-name="Trazado 996855" d="M208.587,289.358a18.388,18.388,0,0,0-9.523-4.31,1.04,1.04,0,0,1-.72-1.27,1.059,1.059,0,0,1,1.268-.721,20.278,20.278,0,0,1,10.434,4.842,1.032,1.032,0,0,1-1.459,1.459" transform="translate(-171.999 0)" fill="#282726"/>
        <path id="Trazado_996856" data-name="Trazado 996856" d="M213.466,294.111a12.689,12.689,0,0,0-8.592-4.851,1.062,1.062,0,0,1-1.032-1.032,1.038,1.038,0,0,1,1.032-1.031,14.964,14.964,0,0,1,10.373,5.873,1.037,1.037,0,0,1-.37,1.411,1.057,1.057,0,0,1-1.411-.37" transform="translate(-182.585 0)" fill="#282726"/>
        <path id="Trazado_996857" data-name="Trazado 996857" d="M194.066,290.372q-6.881,5.239-13.951,10.227c-3.682,2.608-7.4,5.175-11.213,7.586-3.791,2.4-7.729,4.782-12.182,5.674a16.628,16.628,0,0,1-7.218-.038,7.149,7.149,0,0,1-3.309-1.52.206.206,0,0,1,.291-.292,6.5,6.5,0,0,0,2.892,1.353,15.6,15.6,0,0,0,6.445.241c4.537-.722,8.529-3.054,12.364-5.454,7.126-4.461,13.95-9.42,20.707-14.417q2.493-1.844,4.966-3.716c.211-.161.417.2.208.356" transform="translate(-103.627 0)" fill="#282726"/>
        <path id="Trazado_996858" data-name="Trazado 996858" d="M225.568,289.049q-7.11,3.438-14.306,6.7c-3.694,1.679-7.4,3.328-11.152,4.879a52.9,52.9,0,0,1-8.745,3.108,13.227,13.227,0,0,1-7.584-.3,6.5,6.5,0,0,1-2.45-1.508c-.179-.2.112-.489.291-.292a5.835,5.835,0,0,0,2.024,1.3,12.11,12.11,0,0,0,6.792.562,43.129,43.129,0,0,0,8.785-2.949c7.123-2.91,14.113-6.158,21.07-9.441q2.538-1.2,5.067-2.414c.238-.115.447.24.208.356" transform="translate(-170.29 0)" fill="#282726"/>
        <path id="Trazado_996859" data-name="Trazado 996859" d="M118.763,334.154c-8.285,1.981-16.678-3.963-18.754-13.276s2.954-18.475,11.232-20.463,16.678,3.956,18.754,13.269-2.954,18.482-11.232,20.47m6.766-19.1c-1.435-6.422-7.221-10.524-12.93-9.154s-9.169,7.685-7.74,14.107,7.215,10.517,12.924,9.147,9.175-7.678,7.746-14.1" transform="translate(6.655 0)" fill="#282726"/>
        <path id="Trazado_996860" data-name="Trazado 996860" d="M114.314,277.957s11.778,5.262,13.087,7.977.982,17.313.982,17.313H120.04s.654-12.39-.655-13.239-7.688-3.9-7.688-3.9Z" transform="translate(-3.459 0)" fill="#282726"/>
        <path id="Trazado_996861" data-name="Trazado 996861" d="M121.794,298.665,111,299.683l5.644,18.586,4.417-.763Z" transform="translate(3.866 0)" fill="#77706b"/>
        <path id="Trazado_996862" data-name="Trazado 996862" d="M69.124,79.706s16.108,19.678,19.692,35.318c2.8,12.221-12.477,55.758-12.477,55.758l-18.747-1.456s.9-16.8,2.208-26.988,3.19-20.623,3.19-20.623L45.485,99.735Z" transform="translate(102.013 0)" fill="#c98b61"/>
        <path id="Trazado_996863" data-name="Trazado 996863" d="M143.656,107.543c-9.323,4.414-15.051,6.449-15.051,6.449a60.77,60.77,0,0,1,1.064,14.6c-.077,1.269.038,3.862.141,5.883-3.28,1.389-7.016,3.011-10.8,4.7-5.01-.518-17.8,1.279-22.3.68-10.143-1.363-21.08-3.437-28.936-4.122s-14.933-2.55-14.766-3.055,2.062-13.409,2.715-18.841-.4-14.949,2.05-24.967S61.7,65.787,64.809,63.58s11.616-4.753,17.011-6.109a26.06,26.06,0,0,0,7.855-3.058l20.772,1.19s12.11,1.615,19.959,6.029,12.6,7.293,19.632,15.783,13.25,17.058,13.25,17.058-10.31,8.656-19.632,13.07" transform="translate(20.364 0)" fill="#fff"/>
        <path id="Trazado_996864" data-name="Trazado 996864" d="M94.064,112.712c-1.02-2.66-1.8-5.426-2.635-8.148-1.08-3.52-2.136-7.049-3.139-10.593-.328-1.156-.675-2.314-.931-3.488-.057-.259.34-.37.4-.11.578,2.639,1.425,5.237,2.189,7.826,1.054,3.571,2.129,7.136,3.264,10.682.4,1.246.784,2.5,1.253,3.721.1.248-.3.356-.4.11" transform="translate(54.827 0)" fill="#282726"/>
        <path id="Trazado_996865" data-name="Trazado 996865" d="M101.87,103.956c-3.81-1.9-7.7-3.659-11.6-5.371-.243-.106-.033-.462.208-.356,3.9,1.712,7.79,3.472,11.6,5.371.238.118.029.474-.208.356" transform="translate(44.311 0)" fill="#282726"/>
        <path id="Trazado_996866" data-name="Trazado 996866" d="M99.948,105.532a77.95,77.95,0,0,1-9.974-.219c-.262-.022-.264-.435,0-.412a78.132,78.132,0,0,0,9.974.218c.267-.011.266.4,0,.413" transform="translate(46.732 0)" fill="#282726"/>
        <path id="Trazado_996867" data-name="Trazado 996867" d="M134.31,57.868a18.309,18.309,0,0,1-11.243,8.237c-5.115,1.409-11.176,1.311-15.941-1.188a12.979,12.979,0,0,1-5.9-6.124c-.107-.241.249-.451.356-.208,2.331,5.25,7.937,7.605,13.381,7.931A22.914,22.914,0,0,0,128.49,63.3a16.2,16.2,0,0,0,5.464-5.64.206.206,0,0,1,.356.208" transform="translate(1.107 0)" fill="#282726"/>
        <path id="Trazado_996868" data-name="Trazado 996868" d="M183.222,62.9A54.759,54.759,0,0,0,171.493,69.7c-6.173,4.64-15.279,17.234-17.748,21.212s-3.241,5.469-3.241,5.469,2.778,4.474,9.414,9.28,15.433,6.3,15.433,6.3Z" transform="translate(-97.069 0)" fill="#fff"/>
        <path id="Trazado_996869" data-name="Trazado 996869" d="M152.565,111.731c.871-4.147,1.832-8.283,2.934-12.374.7-2.591,1.618-5.11,2.332-7.7.78-2.823,1.4-5.691,1.968-8.563.35-1.763.684-3.529.979-5.3.044-.261.44-.15.4.11-.717,4.31-1.571,8.617-2.673,12.845-.676,2.6-1.605,5.111-2.325,7.694-.772,2.769-1.451,5.565-2.1,8.366-.385,1.673-.763,3.349-1.114,5.029-.055.259-.452.15-.4-.11" transform="translate(-77.081 0)" fill="#282726"/>
        <path id="Trazado_996870" data-name="Trazado 996870" d="M64.712,35.044a9.407,9.407,0,0,1-.25-8.823c2.377-4.671,4.5-7.007,8.505-8.3a19.838,19.838,0,0,1,7.5-.909,8.792,8.792,0,0,1,0-8.434c2.376-4.8,9.253-4.152,9.253-4.152s1-4.671,7.378-4.411S104.23,5.2,104.23,5.2s3.628-3.114,7.755.519,3.126,6.1,3.126,6.1,2.876-1.038,6.627,2.6a8.126,8.126,0,0,1,1.876,8.434,6.257,6.257,0,0,1,4.251,3.633c1.376,3.114.751,8.564,4.127,9.732s4.752.778,4.377,1.557-4.5,4.411-10.379,2.725-8.378-6.1-7.878-9.732a20.027,20.027,0,0,1,1.375-5.45s-6,1.558-8.128-1.427-1.5-5.19-1.5-5.19-4.5,2.206-6.254.26a7.491,7.491,0,0,1-1.751-4.542A5.666,5.666,0,0,1,97.227,17.4c-3.5.389-3.626-1.817-3.626-1.817s.25,2.855-2.126,3.633-3.252,0-3.252,0A12.042,12.042,0,0,1,94.6,23.885c2.626,3.763,3.376,9.732,1.876,13.5s-3.5,8.693-5.127,10.12S64.712,35.044,64.712,35.044" transform="translate(36.761 0)" fill="#282726"/>
        <path id="Trazado_996871" data-name="Trazado 996871" d="M130.684,58.425s-.51,2.557-7.689,3.792-13.6-1.4-14.862-3.43a14.687,14.687,0,0,0,1.149-2.517,9.168,9.168,0,0,0,.265-.954,66.709,66.709,0,0,0,.473-7.066l13.873-4.192,5.784-1.75s-.24,5.269,0,7.961,1.007,8.156,1.007,8.156" transform="translate(-2.16 0)" fill="#c98b61"/>
        <path id="Trazado_996872" data-name="Trazado 996872" d="M105.383,36.129s1.1-2.944,3.153-2.617,2.68,1.472,2.365,3.762-2.05,7.688-3.784,8.342-4.414.327-4.572-.654,2.838-8.833,2.838-8.833" transform="translate(23.14 0)" fill="#c98b61"/>
        <path id="Trazado_996873" data-name="Trazado 996873" d="M109.117,30.915s-1.049,5.114-1.656,10.479,1.889,8.887,4.928,10.731,8.68,2.264,14.3.084,7.122-5.868,8.49-10.563.075-6.278.075-6.278-5.188-4.308-8.379-6.488a33.88,33.88,0,0,1-5.883-5.384s-8.029,2.138-11.877,7.419" transform="translate(-6.521 0)" fill="#c98b61"/>
        <path id="Trazado_996874" data-name="Trazado 996874" d="M139.393,33.577a2.806,2.806,0,0,0-2.615-1.987c-2.153-.133-2.769,1.987-2.615,4.239s.154,4.371,1.231,5.431,2.307,1.59,2.922,1.06,1.077-8.743,1.077-8.743" transform="translate(-36.877 0)" fill="#c98b61"/>
        <path id="Trazado_996875" data-name="Trazado 996875" d="M136.261,32.237a70.174,70.174,0,0,0-1.539,10.679.207.207,0,0,1-.413,0,71.006,71.006,0,0,1,1.554-10.789c.047-.261.445-.15.4.11" transform="translate(-33.917 0)" fill="#282726"/>
        <path id="Trazado_996876" data-name="Trazado 996876" d="M117.065,35.678a.9.9,0,0,1,0-1.788.895.895,0,0,1,0,1.788" transform="translate(2.527 0)" fill="#282726"/>
        <path id="Trazado_996877" data-name="Trazado 996877" d="M128.963,33.054v.086a1,1,0,0,1-.262.633.681.681,0,0,1-.288.185.666.666,0,0,1-.344.076L127.831,34a.9.9,0,0,1-.394-.23l-.14-.181a.9.9,0,0,1-.122-.452v-.086a.919.919,0,0,1,.894-.894l.238.032a.894.894,0,0,1,.394.23l.14.181a.893.893,0,0,1,.122.451" transform="translate(-19.481 0)" fill="#282726"/>
        <path id="Trazado_996878" data-name="Trazado 996878" d="M126.574,34.484a3.26,3.26,0,0,1-.859,1.566,3.517,3.517,0,0,1-.746.554,3.951,3.951,0,0,0-.878.582,1,1,0,0,0-.324.833c.057.313.356.49.623.61a3.059,3.059,0,0,0,2.065.142.207.207,0,0,1,.11.4,3.48,3.48,0,0,1-2.228-.116c-.628-.255-1.159-.749-.942-1.486s.926-1.041,1.533-1.418a2.82,2.82,0,0,0,1.248-1.775c.06-.258.458-.149.4.11" transform="translate(-13.398 0)" fill="#282726"/>
        <path id="Trazado_996879" data-name="Trazado 996879" d="M126.555,40.483a5.321,5.321,0,0,1-6.781,1.415c-.233-.128-.025-.484.208-.356a4.915,4.915,0,0,0,6.281-1.351c.163-.209.453.085.292.292" transform="translate(-9.617 0)" fill="#282726"/>
        <path id="Trazado_996880" data-name="Trazado 996880" d="M118.187,31.856a36.825,36.825,0,0,0-4.135-.96c-.261-.045-.15-.442.11-.4a37.046,37.046,0,0,1,4.135.96.207.207,0,0,1-.11.4" transform="translate(4.312 0)" fill="#282726"/>
        <path id="Trazado_996881" data-name="Trazado 996881" d="M129.8,29.8a16.636,16.636,0,0,0-4.111.081c-.26.038-.372-.359-.11-.4a17.04,17.04,0,0,1,4.221-.1c.262.027.264.44,0,.413" transform="translate(-18.76 0)" fill="#282726"/>
        <path id="Trazado_996882" data-name="Trazado 996882" d="M105.086,42.582a3.1,3.1,0,0,0,1.224-1.571,1.628,1.628,0,0,0,.053-1.094.665.665,0,0,0-.966-.414.209.209,0,0,1-.3-.234,6.147,6.147,0,0,1,3.231-3.6c.24-.108.45.247.208.357a5.738,5.738,0,0,0-3.041,3.354l-.3-.233c.95-.533,1.724.432,1.654,1.344a3.388,3.388,0,0,1-1.549,2.448c-.222.147-.429-.21-.208-.356" transform="translate(23.025 0)" fill="#282726"/>
        <path id="Trazado_996883" data-name="Trazado 996883" d="M137.863,35.443a4,4,0,0,0-2-2.376c-.237-.12-.029-.476.208-.357a4.417,4.417,0,0,1,2.187,2.623c.079.255-.319.363-.4.11" transform="translate(-37.376 0)" fill="#282726"/>
        <path id="Trazado_996884" data-name="Trazado 996884" d="M81.874,22.632a1.566,1.566,0,0,0-1.252-1.512c-1.4-.42-3.062.443-4.231,1.184-1.275.808-2.893,1.935-2.638,3.711a1.8,1.8,0,0,0,1.774,1.336c2.178.1,4.819-1.568,6.087-3.343a1.674,1.674,0,0,0,.26-1.376" transform="translate(81.009 0)" fill="#9c61bc"/>
        <path id="Trazado_996885" data-name="Trazado 996885" d="M112.868,53a14.241,14.241,0,0,0,9.349.417,12.735,12.735,0,0,0,6.414-4.634c.145-.221.5-.015.356.208a13.17,13.17,0,0,1-6.44,4.746,14.519,14.519,0,0,1-9.789-.339c-.245-.095-.138-.494.11-.4" transform="translate(-4.984 0)" fill="#282726"/>
      </g>
    </g>
  </g>
</svg>
