<svg xmlns="http://www.w3.org/2000/svg" xmlns:xlink="http://www.w3.org/1999/xlink" width="70" height="70" viewBox="0 0 70 70">
  <defs>
    <clipPath id="clip-path">
      <rect id="Rectángulo_455179" data-name="Rectángulo 455179" width="37.932" height="43.378" fill="#2142dc"/>
    </clipPath>
  </defs>
  <g id="Grupo_1183049" data-name="Grupo 1183049" transform="translate(-269 -958.087)">
    <circle id="Elipse_5614" data-name="Elipse 5614" cx="35" cy="35" r="35" transform="translate(269 958.087)" fill="#fff"/>
    <g id="Grupo_1183241" data-name="Grupo 1183241" transform="translate(285.034 971.398)">
      <g id="Grupo_1183241-2" data-name="Grupo 1183241" clip-path="url(#clip-path)">
        <path id="Trazado_997581" data-name="Trazado 997581" d="M9.314,91.287c-1.1-1.417-2.848-2.615-3.941-3.992a2.247,2.247,0,0,1-.6-1.346,47.338,47.338,0,0,1,.006-6.587,3.359,3.359,0,0,1,6.689.324c.222,2.589-.181,5.453.024,8.071.955,1.321,3.119,2.242,2.575,4.168L34.9,103.643a.6.6,0,0,1-.484,1.036c-7.085-3.768-14.055-7.841-21.077-11.758a2.552,2.552,0,0,1-1.862.2v14.463a3.374,3.374,0,0,1,2.689,2.985c.037.654-.167.848-.8.905a31.556,31.556,0,0,1-4.54,0c-.474-.055-.646-.224-.7-.7-.1-.868.071-1.894-.011-2.8-.126-1.393-.659-2.99-.9-4.384L4.345,107.86c-.021.14.649.5.865.753.542.628,1.475,2.707.166,2.86a31.327,31.327,0,0,1-4.645,0c-.3-.035-.551-.117-.652-.427a15.371,15.371,0,0,1,0-3.14l4.674-9.358L4.8,89.634c1.284-1.242,1.376.71,1.274,1.652Zm.863-4.965V79.36a6.073,6.073,0,0,0-.341-.738,2.07,2.07,0,0,0-3.763.736,45.294,45.294,0,0,0,0,6.485c.015.153-.012.306.109.431l3.946,3.932,1.023-1.023L7.5,85.49c.113-1.594-.232-3.609-.012-5.153.111-.774,1.147-.737,1.279.108.214,1.372-.164,3.19.028,4.613.117.163,1.254,1.407,1.381,1.263m1.889,3.78-1.023,1.023c1.262,1.76,2.769.26,1.023-1.023M9.746,92.582H6.076v6.1l-4.317,8.8c.447-.055,1.057.152,1.407-.157l4.616-6.933c1.081-2.438,1.258-5.238,1.964-7.8m.432,14.9V96.9c-.167-.025-.128.2-.16.325-.449,1.747-.554,3.307-1.771,4.8l1.055,5.4Zm-5.5,2.7a2.409,2.409,0,0,0-1.565-1.4H1.327v1.4Zm8.1,0a2.409,2.409,0,0,0-1.565-1.4H9.422v1.4Z" transform="translate(0 -68.18)" fill="#2142dc"/>
        <path id="Trazado_997582" data-name="Trazado 997582" d="M128.049,8.1a35.345,35.345,0,0,0,3.024,2.751,1.464,1.464,0,0,1,.65,1.185c.155,1.654-.244,3.819,0,5.394a2.136,2.136,0,0,0,1.394,1.521l14.688,0a2.031,2.031,0,0,0,1.505-1.733c-.3-4.49.4-9.5,0-13.928a2,2,0,0,0-1.889-1.889l-14.118.03a2.093,2.093,0,0,0-1.584,1.546c-.086.548.177,1.983-.266,2.323a.893.893,0,0,1-.856,0c-.258-.163-.222-2.051-.17-2.427A3.437,3.437,0,0,1,133.6.112c4.5-.353,9.472.262,14.024.016A3.4,3.4,0,0,1,150.611,3.3c.38,4.411-.3,9.356,0,13.824a3.423,3.423,0,0,1-2.973,3.179c-4.567-.256-9.512.345-14.035.006a3.457,3.457,0,0,1-3.18-2.864c-.183-1.687.156-3.657-.021-5.375L126.749,8.7a1.053,1.053,0,0,1,.7-1.792c1.2-.126,2.646.09,3.872.028.56.17.291,1.167.021,1.167Z" transform="translate(-112.799 0)" fill="#2142dc"/>
        <path id="Trazado_997583" data-name="Trazado 997583" d="M200.7,53.354a13.555,13.555,0,0,1,1.81-.294,6.543,6.543,0,0,0,3.888-2.592,7.45,7.45,0,0,0-2.169-1.947c-.123-.043-.167-.068-.266.05l-6.957,6.972c-.527.5-1.341.319-1.171-.517.09-.442,1.536-1.475,1.384-1.7-.736-.335-2.68-2.032-2.787-2.78-.076-.53,1.243-1.83,1.657-2.184a7.62,7.62,0,0,1,7.663-1.442c.635-.378,1.624-2.1,2.423-1.744,1.252.564-1.151,2.067-1.077,2.37a10.126,10.126,0,0,1,2.048,1.734c.338.405.883.959.634,1.489a8.46,8.46,0,0,1-3.84,3.177c-.6.236-3.1,1.007-3.355.166a1.029,1.029,0,0,1,.115-.762m.163-5.616a1.431,1.431,0,0,0-.458,2.566c.226-.324,1.845-1.7,1.881-1.9.076-.433-1.056-.734-1.422-.664m-2.24.517a6.648,6.648,0,0,0-2.7,2.213,6.01,6.01,0,0,0,2.235,1.982c.227.022,1.07-1.038,1.329-1.226a2.8,2.8,0,0,1-.863-2.968" transform="translate(-173.447 -40.26)" fill="#2142dc"/>
        <path id="Trazado_997584" data-name="Trazado 997584" d="M60.217,1.03c5.011-.622,5.622,6.856.931,7.3-4.92.464-5.524-6.728-.931-7.3m-1.23,1.954a2.414,2.414,0,0,0,3.145,3.631c2.8-2.056-.755-6.035-3.145-3.631" transform="translate(-50.93 -0.886)" fill="#2142dc"/>
      </g>
    </g>
  </g>
</svg>
