<svg xmlns="http://www.w3.org/2000/svg" xmlns:xlink="http://www.w3.org/1999/xlink" width="124" height="124" viewBox="0 0 124 124">
  <defs>
    <clipPath id="clip-path">
      <rect id="Rectángulo_455102" data-name="Rectángulo 455102" width="54.256" height="54.247" fill="#bcc6f5"/>
    </clipPath>
  </defs>
  <g id="Grupo_1176312" data-name="Grupo 1176312" transform="translate(-1234.5 -458)">
    <g id="Elipse_12108" data-name="Elipse 12108" transform="translate(1241.5 465)" fill="#2142dc" stroke="#fff" stroke-width="7">
      <circle cx="55" cy="55" r="55" stroke="none"/>
      <circle cx="55" cy="55" r="58.5" fill="none"/>
    </g>
    <g id="Grupo_1183161" data-name="Grupo 1183161" transform="translate(1269.372 492.876)">
      <g id="Grupo_1183160" data-name="Grupo 1183160" clip-path="url(#clip-path)">
        <path id="Trazado_997267" data-name="Trazado 997267" d="M5.693,48.55c1.769-.26,3.692-1.168,5.419-1.43a2.317,2.317,0,0,1,.743-.058,34.1,34.1,0,0,1,3.107,1.919C36.808,61.045,60.906,37.3,49,14.949c-.452-.849-2.205-2.728-.961-3.492,1.277-.784,2.4,1.7,2.907,2.631a27.146,27.146,0,0,1-39.5,35.179l-6.91,1.851A1.131,1.131,0,0,1,3.148,49.6l1.829-6.8A27.216,27.216,0,0,1,16.28,2.223c8.085-3.5,18.125-2.9,25.491,2.042.669.449,1.6.989,1.017,1.944-.764,1.245-2.641-.507-3.492-.961C16.96-6.655-6.775,17.372,5.262,39.281c.322.585,1.867,2.749,1.918,3.108.147,1.022-1.712,5.937-1.487,6.162" transform="translate(0 0)" fill="#bcc6f5"/>
        <path id="Trazado_997268" data-name="Trazado 997268" d="M132.34,71.8c10.9-1.025,16.386,12.635,7.67,19.066-1.239.914-2.63,1.154-2.97,2.864a5.26,5.26,0,0,1-.439,2,3.363,3.363,0,0,1-5.526.45c-1.915-2.412.147-6.883,2.1-8.755,1.193-1.141,3.043-1.635,3.873-3.047,2.384-4.054-3.261-8.2-6.382-4.618a11.141,11.141,0,0,0-1.043,1.941c-2.075,3.484-7.848,1.229-5.652-3.752A10.721,10.721,0,0,1,132.34,71.8M125.9,80.946a1.291,1.291,0,0,0,1.634.025c.352-.276.878-1.743,1.331-2.332,4.281-5.571,13.039-.461,10.4,6.062-1.208,2.989-4.257,3.108-5.837,5.831-.634,1.092-1.922,4.934.315,4.764,1.426-.109,1.086-1.708,1.374-2.668.734-2.449,4.2-3.22,5.772-5.76,5.28-8.534-6.3-17.7-13.36-10.443-.772.793-2.714,3.535-1.633,4.522" transform="translate(-106.731 -62.015)" fill="#bcc6f5"/>
        <path id="Trazado_997269" data-name="Trazado 997269" d="M177.148,278.923c4.323-.508,5.037,6.049,1.037,6.6-4.751.658-5.369-6.093-1.037-6.6m1.211,4.266c1.269-1.18-.717-3.058-1.782-1.713-.883,1.115.718,2.7,1.782,1.713" transform="translate(-150.594 -241.057)" fill="#bcc6f5"/>
        <path id="Trazado_997270" data-name="Trazado 997270" d="M329.058,55.94a1.079,1.079,0,0,1,.23,2.146c-1.446.148-1.435-1.957-.23-2.146" transform="translate(-283.653 -48.338)" fill="#bcc6f5"/>
      </g>
    </g>
  </g>
</svg>
