<svg xmlns="http://www.w3.org/2000/svg" xmlns:xlink="http://www.w3.org/1999/xlink" width="70" height="70" viewBox="0 0 70 70">
  <defs>
    <clipPath id="clip-path">
      <rect id="Rectángulo_455181" data-name="Rectángulo 455181" width="25.55" height="52.021" fill="#2142dc"/>
    </clipPath>
  </defs>
  <g id="Grupo_1183051" data-name="Grupo 1183051" transform="translate(-269 -958.087)">
    <circle id="Elipse_5614" data-name="Elipse 5614" cx="35" cy="35" r="35" transform="translate(269 958.087)" fill="#fff"/>
    <g id="Grupo_1183245" data-name="Grupo 1183245" transform="translate(291.225 967.077)">
      <g id="Grupo_1183244" data-name="Grupo 1183244" clip-path="url(#clip-path)">
        <path id="Trazado_997588" data-name="Trazado 997588" d="M3.754,44.009c-.165.6-1.3.749-1.5-.318-.378-2.021.292-4.881-.065-6.816C2.122,36.5.976,35.052.705,34.336c-.852-2.252-.764-7.922-.591-10.454A8.312,8.312,0,0,1,4.27,17.131c.214-.129.778-.193.442-.457-.191-.15-.607-.281-.889-.514A7.321,7.321,0,0,1,1.153,11.3a47.392,47.392,0,0,1,.063-7.606A4.036,4.036,0,0,1,2.361,1.505,4.55,4.55,0,0,1,5.405.187a58.083,58.083,0,0,1,9.2,0c.413.049.494.2.568.6-.218,3.414.329,7.258-.007,10.62a7.813,7.813,0,0,1-2.71,4.882c.608.215,3.172.553,3.35,1.13.091.3.076.863-.233,1.014-.507.248-3.231-.613-4.092-.712-4.6-.529-9.357.64-9.8,6.037a46.483,46.483,0,0,0,.188,9.025c.048.23.12.8.329.9V23.5c0-.975,1.558-.875,1.558-.389v8.178a.2.2,0,0,0,.195.195h8.438a.2.2,0,0,0,.195-.195V21.032c0-.342.8-.346,1.073-.294a23.056,23.056,0,0,1,4,1.974c.52.83.452,3.884.8,5.039a1.305,1.305,0,0,0,2.434.161c-2.254-.391-4.021-4.642-.388-4.089-.187-.78-.117-2.241-.576-2.863-.582-.789-3.587-1.143-2.6-2.451.467-.618,2.1.259,2.659.571,2.051,1.136,1.7,2.683,2.085,4.729,1.024.017,2.331-.13,3.029.8A2.115,2.115,0,0,1,24,27.934l0,23.471c-.173.931-1.554.628-1.554,0V33.429h-3.44c-.785,0-.819-1.558-.13-1.558h3.57V28.236l-.727,1.156a2.837,2.837,0,0,1-4.8-1.411c-.218-.879-.335-3.783-.647-4.286a14.686,14.686,0,0,0-2-.985.235.235,0,0,0-.265.139v14.41c0,.754-1.65,2.311-2.475,2.351l.011,11.542a.79.79,0,0,1-1.557.253l0-11.55c-.074-.4-.685-.5-1.039-.584V49.2c0,1.27-1.8,2.727-3.046,2.8-2.332.129-3.57-1.538-3.7-3.706-.047-.762-.142-2.586,1.072-2.248.772.215.411,2.095.542,2.841a1.8,1.8,0,0,0,3.582-.2c.395-4.2-.372-9.033-.01-13.252.109-1.273,1.426-1.122,1.551-.247.133.931-.267,1.764.595,2.525a1.878,1.878,0,0,0,2.722-.4,5.117,5.117,0,0,0,.33-.708V33.04H3.754ZM13.621,1.624H5.247c-.841,0-2.531,1.42-2.531,2.272V5.908c.279-.115.5-.326.781-.452,1.378-.629,7.22-.687,8.689-.256a6.887,6.887,0,0,1,1.434.708Zm-1.6,12.936a7.08,7.08,0,0,0,1.574-6.091,3.146,3.146,0,0,0-2.371-1.912,41.251,41.251,0,0,0-6.1,0A2.96,2.96,0,0,0,2.713,8.7,8.92,8.92,0,0,0,3.3,13.183a5.554,5.554,0,0,0,8.722,1.377m8.094,10.82c-.036.33.821,1.039,1.1,1.039h2.467c.4,0,.4-1.039,0-1.039Z" transform="translate(0 0)" fill="#2142dc"/>
        <path id="Trazado_997589" data-name="Trazado 997589" d="M39.775,66.939a1.242,1.242,0,0,1,.917-.138c.671.2.785,2.782-.263,2.942-1.176.179-.919-2.54-.654-2.8" transform="translate(-34.416 -58.102)" fill="#2142dc"/>
        <path id="Trazado_997590" data-name="Trazado 997590" d="M68.363,66.744c.374-.114,1,.005,1.077.431.115.623.2,2.387-.614,2.511-1.263.193-1.148-2.733-.463-2.942" transform="translate(-59.049 -58.044)" fill="#2142dc"/>
      </g>
    </g>
  </g>
</svg>
