<svg xmlns="http://www.w3.org/2000/svg" xmlns:xlink="http://www.w3.org/1999/xlink" width="190" height="258" viewBox="0 0 190 258">
  <defs>
    <clipPath id="clip-path">
      <rect id="Rectángulo_455390" data-name="Rectángulo 455390" width="167.747" height="249.661" fill="none"/>
    </clipPath>
  </defs>
  <g id="Grupo_1183628" data-name="Grupo 1183628" transform="translate(-390 -6033)">
    <rect id="Rectángulo_455387" data-name="Rectángulo 455387" width="190" height="258" transform="translate(390 6033)" fill="none"/>
    <ellipse id="Elipse_13629" data-name="Elipse 13629" cx="95" cy="10" rx="95" ry="10" transform="translate(390 6271)" fill="#434a66" opacity="0.26"/>
    <g id="Grupo_1183627" data-name="Grupo 1183627" transform="translate(401 6035.605)">
      <g id="Grupo_1183626" data-name="Grupo 1183626" clip-path="url(#clip-path)">
        <path id="Trazado_999740" data-name="Trazado 999740" d="M127.364,74.522a5.628,5.628,0,0,0-7.9.992l-.084.108L118.234,77.1q-.585.755-1.177,1.5-1.178,1.505-2.377,2.982c-.794.989-1.6,1.963-2.408,2.921s-1.617,1.906-2.436,2.819-1.634,1.805-2.451,2.631l-.218.219c-.376-.926-.75-1.878-1.113-2.844q-.658-1.755-1.287-3.557t-1.256-3.619L102.287,76.5l-1.2-3.677L98.71,65.464l-.029-.092a6.436,6.436,0,0,0-12.333,3.674L86.876,71l.543,1.923c.362,1.281.745,2.555,1.126,3.83s.783,2.546,1.184,3.818.818,2.544,1.246,3.814.861,2.544,1.315,3.817.928,2.548,1.421,3.83,1.007,2.574,1.583,3.884c.288.657.589,1.322.915,2s.678,1.378,1.1,2.132c.208.373.451.778.721,1.2l.225.338.117.169.134.187.137.186.068.092.082.1c.112.141.223.28.34.42q.218.249.445.488l.029.03.051.051.117.116c.079.076.16.15.242.225.164.147.351.3.533.434s.366.262.561.382a7.867,7.867,0,0,0,2.009.882,8.125,8.125,0,0,0,2.448.291,8.809,8.809,0,0,0,1.805-.25,10.626,10.626,0,0,0,2.31-.873c.155-.078.286-.152.428-.229s.268-.152.389-.225.245-.151.359-.225.227-.147.337-.221c.025-.017.049-.034.074-.05.405-.277.766-.548,1.1-.815.358-.284.689-.564,1.005-.842.63-.555,1.2-1.1,1.734-1.648s1.042-1.091,1.531-1.634c.974-1.089,1.887-2.17,2.757-3.266s1.7-2.19,2.519-3.292,1.6-2.217,2.369-3.331,1.518-2.244,2.257-3.377c.365-.569.729-1.138,1.091-1.712l.535-.868.546-.9a5.63,5.63,0,0,0-1.356-7.371" transform="translate(-27.297 -19.311)" fill="#1f2930"/>
        <path id="Trazado_999741" data-name="Trazado 999741" d="M139.71,95.01l-.02,0a7.737,7.737,0,0,1-7.165-3.426,12.73,12.73,0,0,1-1.9-3.836.429.429,0,0,1,.829-.221,12.07,12.07,0,0,0,1.777,3.57,6.829,6.829,0,0,0,6.382,3.059.429.429,0,0,1,.1.852" transform="translate(-41.399 -27.642)" fill="#475575"/>
        <path id="Trazado_999742" data-name="Trazado 999742" d="M118.228,122.619c-.025.016-.049.033-.074.049-.11.074-.219.148-.337.222s-.236.15-.359.224-.259.152-.389.225-.273.151-.428.229a10.59,10.59,0,0,1-2.31.873,8.81,8.81,0,0,1-1.805.25,8.126,8.126,0,0,1-2.448-.291,7.843,7.843,0,0,1-2.009-.882,8.338,8.338,0,0,1,5.7-2.5,5.792,5.792,0,0,1,4.454,1.6" transform="translate(-34.254 -38.355)" fill="#475575"/>
        <path id="Trazado_999743" data-name="Trazado 999743" d="M111.4,107.486a.3.3,0,0,1-.176-.029.307.307,0,0,1-.14-.41,12.564,12.564,0,0,1,3.366-3.533.306.306,0,0,1,.357.5,12.222,12.222,0,0,0-3.173,3.305.309.309,0,0,1-.234.169" transform="translate(-35.2 -32.792)" fill="#475575"/>
        <path id="Trazado_999744" data-name="Trazado 999744" d="M113.491,104.95a.3.3,0,0,1-.2-.04,5.506,5.506,0,0,0-2.82-.128.3.3,0,0,1-.356-.248.306.306,0,0,1,.248-.355c.226-.041,2.243-.38,3.238.2a.307.307,0,0,1-.114.568" transform="translate(-34.902 -32.978)" fill="#475575"/>
        <path id="Trazado_999745" data-name="Trazado 999745" d="M111.832,202.033a1.682,1.682,0,0,1-.947-.292l-14.008-9.524a1.685,1.685,0,0,1-.724-1.184L85.9,109.22a1.684,1.684,0,0,1,1.462-1.881l25.355-3.177a1.685,1.685,0,0,1,1.882,1.462l10.237,81.689a1.686,1.686,0,0,1-.409,1.325L113.1,201.463a1.684,1.684,0,0,1-1.264.57M99.4,189.859l12.151,8.261,9.845-11.144-9.933-79.263-22.012,2.759Z" transform="translate(-27.223 -33.011)" fill="#b6a99d"/>
        <path id="Trazado_999746" data-name="Trazado 999746" d="M98.318,183.536a1.685,1.685,0,0,1-.208-3.357l24.26-3.04a1.685,1.685,0,1,1,.419,3.343l-24.26,3.04a1.716,1.716,0,0,1-.212.013" transform="translate(-30.63 -56.142)" fill="#b6a99d"/>
        <path id="Trazado_999747" data-name="Trazado 999747" d="M132.85,323.792a1.685,1.685,0,0,1-1.669-1.475l-9.762-77.9a1.685,1.685,0,0,1,3.343-.419l9.762,77.9a1.686,1.686,0,0,1-1.462,1.882,1.71,1.71,0,0,1-.212.013" transform="translate(-38.481 -76.87)" fill="#b6a99d"/>
        <path id="Trazado_999748" data-name="Trazado 999748" d="M117.191,105.007l-37.62,4.714a1.376,1.376,0,0,1-1.535-1.193l-.489-3.907a1.375,1.375,0,0,1,1.193-1.535l37.62-4.714a1.375,1.375,0,0,1,1.535,1.193l.49,3.907a1.375,1.375,0,0,1-1.193,1.535" transform="translate(-24.576 -31.176)" fill="#6e6663"/>
        <rect id="Rectángulo_455388" data-name="Rectángulo 455388" width="5.556" height="7.138" transform="translate(91.099 242.023) rotate(-7.141)" fill="#6e6663"/>
        <path id="Trazado_999749" data-name="Trazado 999749" d="M92.637,335.836l.985,7.385h8.1l-.313-7.6Z" transform="translate(-29.362 -106.377)" fill="#e38c67"/>
        <path id="Trazado_999750" data-name="Trazado 999750" d="M120.8,358.5H90.147a4.284,4.284,0,0,1-.4-1.7c-.191-2.593.635-6.731,1.04-9.34.049-.3.091-.589.124-.847A9.076,9.076,0,0,0,91,345.55a1.564,1.564,0,0,1,1.885-1.764c3.1,3.042,6.615-1.52,8.665-.024,0,0,.883.633,3.317,2.823s6.572,3.634,10.1,5.108c4.549,1.9,5.839,3.8,6.091,5.109a2.394,2.394,0,0,1-.252,1.7" transform="translate(-28.436 -108.861)" fill="#b94940"/>
        <path id="Trazado_999751" data-name="Trazado 999751" d="M120.812,364.7H90.16a4.284,4.284,0,0,1-.4-1.7h31.308a2.394,2.394,0,0,1-.252,1.7" transform="translate(-28.449 -115.056)" fill="#77230a"/>
        <path id="Trazado_999752" data-name="Trazado 999752" d="M93.769,359.973h-.91a6.728,6.728,0,0,0,1.647-4.908,8.643,8.643,0,0,0-3.227-6.134c.049-.3.092-.589.124-.847a9.4,9.4,0,0,1,3.833,6.944,7.438,7.438,0,0,1-1.467,4.945" transform="translate(-28.932 -110.329)" fill="#77230a"/>
        <path id="Trazado_999753" data-name="Trazado 999753" d="M110.9,350a.505.505,0,0,1-.122-1l1.915-.475a.505.505,0,0,1,.243.981l-1.915.475a.5.5,0,0,1-.122.015" transform="translate(-34.991 -110.464)" fill="#efebe6"/>
        <path id="Trazado_999754" data-name="Trazado 999754" d="M108.115,347.662a.505.505,0,0,1-.122-1l1.915-.475a.5.5,0,0,1,.243.98l-1.915.475a.5.5,0,0,1-.122.015" transform="translate(-34.108 -109.724)" fill="#efebe6"/>
        <path id="Trazado_999755" data-name="Trazado 999755" d="M113.7,351.626a.505.505,0,0,1-.122-1l1.915-.475a.5.5,0,1,1,.243.98l-1.915.475a.5.5,0,0,1-.122.015" transform="translate(-35.88 -110.981)" fill="#efebe6"/>
        <path id="Trazado_999756" data-name="Trazado 999756" d="M116.507,353.192a.5.5,0,0,1-.121-1l1.915-.476a.505.505,0,0,1,.243.981l-1.915.475a.5.5,0,0,1-.122.015" transform="translate(-36.768 -111.477)" fill="#efebe6"/>
        <path id="Trazado_999757" data-name="Trazado 999757" d="M119.564,354.642a.5.5,0,0,1-.121-1l1.915-.475a.5.5,0,1,1,.243.98l-1.915.475a.5.5,0,0,1-.122.015" transform="translate(-37.737 -111.937)" fill="#efebe6"/>
        <path id="Trazado_999758" data-name="Trazado 999758" d="M122.879,355.876a.505.505,0,0,1-.122-1l1.915-.475a.5.5,0,1,1,.243.98l-1.915.475a.5.5,0,0,1-.122.015" transform="translate(-38.788 -112.328)" fill="#efebe6"/>
        <path id="Trazado_999759" data-name="Trazado 999759" d="M42.071,166.94c.008.033.016.066.025.1.072.283.148.559.232.829v0l0,.008c0,.011.007.024.01.035.016.054.033.107.051.159q.17.536.372,1.031c1.372,3.361,11.984,3.854,22.43,2.685h0c8.1-.906,16.105-2.813,19.62-5.16,3.3-2.2-3.728-22.53-3.728-22.53l-39.633,8.318s-.891,8.453.618,14.524" transform="translate(-13.056 -45.673)" fill="#376163"/>
        <path id="Trazado_999760" data-name="Trazado 999760" d="M77.362,179.68l6.492,56.045c-1.173,7.4,1.051,32.752,2.065,43.34.027.283.054.556.079.818.235,2.425.388,3.888.388,3.888l11.669-.353.253-3.806.053-.821,3.027-45.673.057-.849c0-.059,0-.118,0-.177-.088-14.792-1.645-35.191-3.934-57.435-.036-.343-.07-.684-.106-1.028q-.176-1.709-.36-3.434c-.033-.306-.065-.612-.1-.921l-3.816,1.757-.934.432-14.985,6.9Z" transform="translate(-24.473 -53.653)" fill="#376163"/>
        <path id="Trazado_999761" data-name="Trazado 999761" d="M98.778,262.2a35.91,35.91,0,0,0,5.322.419,19.958,19.958,0,0,0,3.993-.357l.056-.849c0-.059,0-.118,0-.177-3.751.871-9.147,0-9.207-.014a.5.5,0,0,0-.163.977" transform="translate(-31.177 -82.793)" fill="#1e3436"/>
        <path id="Trazado_999762" data-name="Trazado 999762" d="M89.962,329.886c.027.283.054.556.078.818l1.538-.034.977-.022,8.866-.2.747-.014.183,0,.054-.821-.191,0-.9.02-8.858.2-.976.022Z" transform="translate(-28.514 -104.474)" fill="#1e3436"/>
        <path id="Trazado_999763" data-name="Trazado 999763" d="M80.319,185.313l6.992,53.373c-.213,1.173-2.442,14.608,1.113,45.255q.047.406.095.816l.977-.022q-.049-.411-.1-.816c-3.7-31.838-1.147-44.99-1.12-45.122a.5.5,0,0,0,.006-.16l-7-53.452a.487.487,0,0,0-.965.127" transform="translate(-25.457 -58.563)" fill="#1e3436"/>
        <path id="Trazado_999764" data-name="Trazado 999764" d="M92.977,159.417a19.854,19.854,0,0,0,4.212,8.738,11.3,11.3,0,0,0,2.231,1.9,9.4,9.4,0,0,0,2.068,1,8.4,8.4,0,0,0,1.016.287c-.036-.342-.07-.684-.107-1.028q-.246-.063-.486-.142a8.545,8.545,0,0,1-1.966-.937,9.954,9.954,0,0,1-1.82-1.519,19.049,19.049,0,0,1-4.192-8.485.486.486,0,1,0-.956.178" transform="translate(-29.468 -50.346)" fill="#1e3436"/>
        <path id="Trazado_999765" data-name="Trazado 999765" d="M80.139,171.709a.4.4,0,0,1-.383.411h0a.4.4,0,0,1-.423-.371c-.072-1.466-.158-2.966-.252-4.465q-.025-.4-.051-.792c-.319-4.9-.723-9.707-1.029-13.1-.025-.275-.048-.541-.073-.8-.068-.745-.129-1.406-.182-1.966.268-.042.537-.085.8-.13.053.559.115,1.227.183,1.979.025.255.047.522.072.8.3,3.366.7,8.132,1.023,13,.019.268.036.538.055.807.1,1.553.186,3.111.261,4.628" transform="translate(-24.641 -47.702)" fill="#1e3436"/>
        <path id="Trazado_999766" data-name="Trazado 999766" d="M79.765,166.763a10.652,10.652,0,0,1-1.416.542,8.25,8.25,0,0,1-.8.2,5.736,5.736,0,0,1-.767.1,2.792,2.792,0,0,1-1.359-.213,1.654,1.654,0,0,1-.922-1.237c-.3-1.511-.913-7.751-1.33-12.165-.027-.271-.051-.536-.076-.793-.066-.706-.124-1.348-.175-1.893.268-.033.537-.065.806-.1.051.549.11,1.2.178,1.915.024.255.048.52.074.793.417,4.4,1.033,10.634,1.32,12.1a.871.871,0,0,0,.488.684,2.861,2.861,0,0,0,1.712.022c.273-.059.544-.135.8-.217a9.414,9.414,0,0,0,1.112-.436.411.411,0,0,1,.542.176.386.386,0,0,1-.184.525" transform="translate(-23.113 -47.926)" fill="#1e3436"/>
        <path id="Trazado_999767" data-name="Trazado 999767" d="M65.344,172.066v53.292a9.224,9.224,0,0,1-18.448.017c-.008-4.6.024-7.67.024-7.67-1.275-9.722-3.216-29.94-4.347-42.112-.024-.273-.049-.545-.074-.811,0-.051-.01-.1-.015-.152,0-.012,0-.025,0-.036a.016.016,0,0,0,0-.008h0c-.024-.274-.048-.542-.074-.8,0-.042-.007-.083-.01-.124-.449-4.833-.729-7.985-.729-7.985,1.865-.776,5.189-.29,8.767.691.316.086.632.177.951.27.363.105.726.217,1.089.331.238.074.475.15.709.226.084.027.167.055.25.083q.351.112.7.232a117.551,117.551,0,0,1,11.218,4.559" transform="translate(-13.206 -52.39)" fill="#376163"/>
        <path id="Trazado_999768" data-name="Trazado 999768" d="M71.285,257.04a9.134,9.134,0,0,1-.4,1.087,21.031,21.031,0,0,1-3.557.271,36.185,36.185,0,0,1-5.32-.417.5.5,0,1,1,.163-.978c.06.012,5.366.872,9.112.037" transform="translate(-19.523 -81.458)" fill="#1e3436"/>
        <path id="Trazado_999769" data-name="Trazado 999769" d="M51.2,223.083c0,.129-.163,6.305-.177,13.789a9.151,9.151,0,0,1-.968-1.245c.027-6.677.161-12.043.172-12.536-1.07-9.135-3.247-40.388-3.271-40.7a.487.487,0,1,1,.971-.067c.023.314,2.2,31.623,3.271,40.691a.59.59,0,0,1,0,.07" transform="translate(-14.883 -57.646)" fill="#1e3436"/>
        <path id="Trazado_999770" data-name="Trazado 999770" d="M42.516,172.881c.072.283.148.559.232.829v.01a.24.24,0,0,0,0,.036c0,.051.01.1.015.153l.042,0a7.8,7.8,0,0,0,3.7-.411,12.976,12.976,0,0,0,5.863-4.966A24,24,0,0,0,53.7,166.4c.117-.214.228-.421.331-.622a23.521,23.521,0,0,0,1.158-2.6.487.487,0,0,0-.917-.326,22.794,22.794,0,0,1-1.188,2.608c-.107.2-.221.414-.343.628a21.756,21.756,0,0,1-1.2,1.913,11.968,11.968,0,0,1-5.363,4.586,6.87,6.87,0,0,1-3.506.318c-.052-.008-.1-.017-.157-.028" transform="translate(-13.476 -51.516)" fill="#1e3436"/>
        <path id="Trazado_999771" data-name="Trazado 999771" d="M54.362,50.305s-12.006,3.812-16.2,7.69c-5.675,5.244-.64,28.2-.537,38.61s-.837,26.152,1.272,30.457,41.236,6.473,44.731-.812c1-2.086-3.613-29.5-2.886-41.379s2.66-20.16.956-24.977c-1.384-3.912-14.248-7.262-14.248-7.262Z" transform="translate(-11.241 -15.945)" fill="#1f2930"/>
        <path id="Trazado_999772" data-name="Trazado 999772" d="M58.648,136.525s1.382,7.243,0,13.459c0,0,18.775,2.645,27.358-.556,0,0,.983-7.192-.786-12.9a198.225,198.225,0,0,1-26.572,0" transform="translate(-18.589 -43.273)" fill="#475575"/>
        <path id="Trazado_999773" data-name="Trazado 999773" d="M101.542,103.551a.308.308,0,0,1-.308-.3c-.173-10.549-.882-27.711-.889-27.883a.308.308,0,0,1,.615-.025c.008.172.716,17.342.89,27.9a.309.309,0,0,1-.3.313Z" transform="translate(-31.805 -23.786)" fill="#475575"/>
        <path id="Trazado_999774" data-name="Trazado 999774" d="M59.729,78.123l.732,9.666s16.549,0,22.847-1.318c0,0-.44-6.3-1.611-8.934a148.152,148.152,0,0,1-21.968.586" transform="translate(-18.932 -24.576)" fill="#475575"/>
        <path id="Trazado_999775" data-name="Trazado 999775" d="M54.49,55.632s-15.466-1.324-9.616-9.168,20.891-7.744,27.754-1.834C77.635,48.943,73.9,56.973,73.9,56.973Z" transform="translate(-13.805 -12.796)" fill="#1f2930"/>
        <path id="Trazado_999776" data-name="Trazado 999776" d="M45.532,139.84A83.366,83.366,0,0,1,43.37,111.2c.732-8.671-.67-19.95-1.514-25.6q-.38.16-.757.323c.842,5.676,2.195,16.716,1.478,25.208a84.145,84.145,0,0,0,2.186,28.914.4.4,0,0,0,.478.285l.009,0a.4.4,0,0,0,.283-.486" transform="translate(-13.026 -27.131)" fill="#475575"/>
        <path id="Trazado_999777" data-name="Trazado 999777" d="M61.966,113.464a32.019,32.019,0,0,0,12.85-5.289,53.992,53.992,0,0,0,8.86-7.321.41.41,0,1,0-.6-.559,53.122,53.122,0,0,1-8.725,7.2c-4.711,3.1-11.765,6.473-18.62,4.987a.41.41,0,0,0-.173.8,18.142,18.142,0,0,0,6.408.176" transform="translate(-17.507 -31.748)" fill="#475575"/>
        <path id="Trazado_999778" data-name="Trazado 999778" d="M66.613,124.227A25.4,25.4,0,0,0,76.6,120.5a22.808,22.808,0,0,0,4.667-3.815.41.41,0,0,0-.618-.538A24.785,24.785,0,0,1,63.7,123.639a.41.41,0,0,0,.015.82,23.875,23.875,0,0,0,2.9-.232" transform="translate(-20.064 -36.771)" fill="#475575"/>
        <path id="Trazado_999779" data-name="Trazado 999779" d="M69.586,61.627a11.683,11.683,0,0,0,5.928-3.971.41.41,0,0,0-.654-.494c-.037.049-2.639,3.423-6.4,3.831a8.3,8.3,0,0,1-6.343-2.3.41.41,0,1,0-.532.623,9.076,9.076,0,0,0,6.97,2.49,8.254,8.254,0,0,0,1.028-.18" transform="translate(-19.476 -18.067)" fill="#475575"/>
        <path id="Trazado_999780" data-name="Trazado 999780" d="M51.357,20.84c-1.036-.014-.161,3.214.764,4.251.7.783-3.477,2.962-3.126,5.137a1.611,1.611,0,0,0,2.2,1.494s-.649,2.85.546,3.767,2.721-.885,2.721-.885-.773,3.518,1.3,3.845,4.106-5.393,4.106-5.393l-3.9-16.665Z" transform="translate(-15.523 -5.195)" fill="#1f2930"/>
        <path id="Trazado_999781" data-name="Trazado 999781" d="M77.8,28.341s.569-3.376,3.3-3.009,4.064,9.106-.981,9.537Z" transform="translate(-24.661 -8.02)" fill="#af5f48"/>
        <path id="Trazado_999782" data-name="Trazado 999782" d="M60.852,49.529s-.525,1.168,4.514,2.07a10.587,10.587,0,0,0,7.211-1.561,9.688,9.688,0,0,0,.936-.753,13.512,13.512,0,0,1-.593-6.727c.021-.091.034-.137.034-.137L59.563,37.245Z" transform="translate(-18.879 -11.805)" fill="#e38c67"/>
        <path id="Trazado_999783" data-name="Trazado 999783" d="M62.9,44.351s3.864,8.169,10.731,7.938a9.758,9.758,0,0,0,.936-.752,13.512,13.512,0,0,1-.593-6.727Z" transform="translate(-19.938 -14.058)" fill="#1f2930"/>
        <path id="Trazado_999784" data-name="Trazado 999784" d="M79.015,14.065s3.194.48,2.066,8.94L76.013,14.82s.5-1.43,3-.755" transform="translate(-24.093 -4.401)" fill="#1f2930"/>
        <path id="Trazado_999785" data-name="Trazado 999785" d="M66.424,38.1c5.368.484,9.329-2.21,9.368-6.774.01-1.1-.094-2.682-.242-4.325,0-.017,0-.033,0-.05-.032-.349-.066-.7-.1-1.054q-.038-.383-.079-.762c-.3-2.928-.661-5.572-.661-5.572-1.507-7.192-8.984-9.158-14.465-5.8S57.893,25.74,58.357,30.058A8.672,8.672,0,0,0,66.424,38.1" transform="translate(-18.082 -3.859)" fill="#e38c67"/>
        <path id="Trazado_999786" data-name="Trazado 999786" d="M76.165,31.2a9.066,9.066,0,0,1-1.571.272.3.3,0,1,1-.056-.6,7.467,7.467,0,0,0,1.9-.391l-2.13-1.951a.3.3,0,0,1-.1-.23l.046-1.865a.3.3,0,0,1,.6.015l-.043,1.728,2.363,2.164a.3.3,0,0,1,.1.247.3.3,0,0,1-.135.228,3.678,3.678,0,0,1-.976.385" transform="translate(-23.522 -8.286)" fill="#1f2930"/>
        <path id="Trazado_999787" data-name="Trazado 999787" d="M70.016,28.683c0,.529-.247.959-.552.959s-.553-.43-.553-.959.247-.959.553-.959.552.429.552.959" transform="translate(-21.842 -8.787)" fill="#1f2930"/>
        <path id="Trazado_999788" data-name="Trazado 999788" d="M78.2,28.2c0,.53-.247.959-.552.959s-.553-.429-.553-.959.247-.959.553-.959.552.429.552.959" transform="translate(-24.436 -8.634)" fill="#1f2930"/>
        <path id="Trazado_999789" data-name="Trazado 999789" d="M62.881,33.847c.09.53,1.229.778,2.545.555s2.309-.835,2.219-1.365-1.229-.778-2.545-.554-2.309.834-2.219,1.364" transform="translate(-19.929 -10.27)" fill="#af5f48"/>
        <path id="Trazado_999790" data-name="Trazado 999790" d="M56.972,22.465a3.929,3.929,0,0,1,2.365,2.5c.392,1.779,2.318-.1.723-1.936s1.012-1.967,1.266-3.464-2.172-1.354-.9-3.177,3.563.813,6.145.062-.321-2.433,1.241-2.281,7.076,4.7,6.022,1.936a9.354,9.354,0,0,0-12.026-4.621c-6.129,2.459-5.615,7.867-4.835,10.987" transform="translate(-17.912 -3.407)" fill="#1f2930"/>
        <path id="Trazado_999791" data-name="Trazado 999791" d="M70.431,36.727s1.108,2.676,3.4,2.914c2.612.27,2.89-2.992,2.89-2.992Z" transform="translate(-22.324 -11.616)" fill="#efebe6"/>
        <path id="Trazado_999792" data-name="Trazado 999792" d="M66.4,24.935c-1.462.456-2.034-1.1-.765-2.059a3.973,3.973,0,0,1,1.915-.893c1.966-.2,2.155,1.185,1.223,1.839A10.648,10.648,0,0,1,66.4,24.935" transform="translate(-20.581 -6.962)" fill="#1f2930"/>
        <path id="Trazado_999793" data-name="Trazado 999793" d="M78.787,23.579c1.531-.008,1.606-1.665.107-2.194a3.976,3.976,0,0,0-2.095-.273c-1.933.407-1.7,1.781-.609,2.122a10.639,10.639,0,0,0,2.6.344" transform="translate(-23.885 -6.676)" fill="#1f2930"/>
        <path id="Trazado_999794" data-name="Trazado 999794" d="M82.089,33.153a5.737,5.737,0,0,0,.589-.132l0-.05c-.032-.349-.066-.7-.1-1.055-.025-.255-.051-.51-.078-.762a6.089,6.089,0,0,0-.734.079c-1.316.223-2.308.833-2.219,1.363s1.229.779,2.545.555" transform="translate(-25.211 -9.875)" fill="#af5f48"/>
        <path id="Trazado_999795" data-name="Trazado 999795" d="M76.27,42.557a1.359,1.359,0,0,0,.167-.072.237.237,0,0,0-.221-.42,1.522,1.522,0,0,1-1.507-.1.237.237,0,1,0-.273.387,1.958,1.958,0,0,0,1.834.2" transform="translate(-23.562 -13.288)" fill="#af5f48"/>
        <path id="Trazado_999796" data-name="Trazado 999796" d="M57.278,28.9a3.162,3.162,0,0,0-4.111-.843c-2.358,1.433-.068,9.972,4.725,8.341Z" transform="translate(-16.556 -8.743)" fill="#e38c67"/>
        <path id="Trazado_999797" data-name="Trazado 999797" d="M57.03,34.741a.223.223,0,0,0,.049-.014.237.237,0,0,0,.131-.309c-.042-.1-1.051-2.535-3.378-2.672a.237.237,0,1,0-.027.473c2.03.12,2.957,2.354,2.966,2.377a.237.237,0,0,0,.26.145" transform="translate(-16.983 -10.062)" fill="#1f2930"/>
        <path id="Trazado_999798" data-name="Trazado 999798" d="M55.284,34.56a.236.236,0,0,0,.152-.094c0-.005.4-.546.884-1.1a.237.237,0,0,0-.356-.314c-.5.566-.894,1.106-.91,1.128a.237.237,0,0,0,.231.374" transform="translate(-17.435 -10.452)" fill="#1f2930"/>
        <path id="Trazado_999799" data-name="Trazado 999799" d="M66.113,109.466a.333.333,0,0,1-.387-.387c4.068-22.329-1.065-43.536-1.117-43.748a.332.332,0,0,1,.645-.16c.053.213,5.22,21.559,1.127,44.027a.333.333,0,0,1-.268.268" transform="translate(-20.475 -20.577)" fill="#efebe6"/>
        <path id="Trazado_999800" data-name="Trazado 999800" d="M87.636,109.252a.333.333,0,0,1-.387-.387c4.068-22.329-1.066-43.536-1.118-43.748a.333.333,0,0,1,.646-.159c.053.212,5.22,21.559,1.126,44.026a.332.332,0,0,1-.268.268" transform="translate(-27.297 -20.509)" fill="#efebe6"/>
        <path id="Trazado_999801" data-name="Trazado 999801" d="M51.075,18.347s-2.917,2.389-2.041,3.95,3.706-1.9,3.706-1.9-.508-2.253-1.665-2.046" transform="translate(-15.49 -5.811)" fill="#1e3436"/>
        <path id="Trazado_999802" data-name="Trazado 999802" d="M51.4,18.02l3.029-2.741.391-.354.857-.776c6.145-3.412,14.2-3.642,14.2-3.642s-2.069-5.725-9.629-5.356A11.509,11.509,0,0,0,53.768,7.3,8.368,8.368,0,0,0,53,7.954a7.773,7.773,0,0,0-2.425,4.66A8.389,8.389,0,0,0,51.4,18.02" transform="translate(-16.002 -1.627)" fill="#376163"/>
        <path id="Trazado_999803" data-name="Trazado 999803" d="M55.4,16.286l.391-.354a5.6,5.6,0,0,1-1.66-5.109,11.3,11.3,0,0,1,.608-2.512,8.6,8.6,0,0,0-.766.649,11.363,11.363,0,0,0-.365,1.8A6.174,6.174,0,0,0,55.4,16.286" transform="translate(-16.972 -2.634)" fill="#1e3436"/>
        <path id="Trazado_999804" data-name="Trazado 999804" d="M67.03,6.781a9.171,9.171,0,0,0-6.4,1.331l.781,2.021a22.429,22.429,0,0,1,5.968-1.687Z" transform="translate(-19.216 -2.109)" fill="#1e3436"/>
        <path id="Trazado_999805" data-name="Trazado 999805" d="M75.305,13.087s8.3-5.651,3.658-8.94-15.018.7-20.876,9.326c0,0,15.487-6.311,17.218-.386" transform="translate(-18.411 -0.951)" fill="#b94940"/>
        <path id="Trazado_999806" data-name="Trazado 999806" d="M62.386,11.81a.213.213,0,0,0,.222-.044c.092-.085,9.237-8.53,15.849-6.632,1.209.347,1.921.9,2.113,1.645.406,1.57-1.552,3.55-1.572,3.57a.213.213,0,0,0,.3.3c.088-.088,2.15-2.171,1.684-3.977-.232-.9-1.042-1.558-2.408-1.949-3.59-1.03-7.827.862-10.749,2.631a37.584,37.584,0,0,0-5.509,4.1.214.214,0,0,0,.07.355" transform="translate(-19.73 -1.405)" fill="#77230a"/>
        <path id="Trazado_999807" data-name="Trazado 999807" d="M65.646,11.935a.214.214,0,0,0,.2-.023C75.787,5.12,79.058,6.484,80,7.385a1.173,1.173,0,0,1,.379.926c-.042,1.573-2.447,3.652-2.471,3.672a.213.213,0,0,0,.277.324c.105-.09,2.573-2.223,2.62-3.984a1.6,1.6,0,0,0-.51-1.247c-2.156-2.057-7.513-.423-14.7,4.483a.213.213,0,0,0,.044.376" transform="translate(-20.764 -1.967)" fill="#77230a"/>
        <path id="Trazado_999808" data-name="Trazado 999808" d="M70.129,12.176a.215.215,0,0,0,.186-.016c3.223-1.94,8.422-4.437,9.537-3.363a.826.826,0,0,1,.266.663c-.04.964-1.4,2.273-1.919,2.7a.213.213,0,1,0,.27.331c.082-.067,2.018-1.657,2.075-3.008a1.247,1.247,0,0,0-.4-.988c-1.706-1.643-9.2,2.793-10.054,3.3a.214.214,0,0,0-.072.293.209.209,0,0,0,.107.089" transform="translate(-22.185 -2.576)" fill="#77230a"/>
        <path id="Trazado_999809" data-name="Trazado 999809" d="M13.4,200.538A1.683,1.683,0,0,1,12.169,200L.454,187.468a1.688,1.688,0,0,1-.445-1.315l8.13-83.122a1.686,1.686,0,0,1,1.841-1.513l25.761,2.52a1.686,1.686,0,0,1,1.513,1.841l-8.118,83a1.685,1.685,0,0,1-.691,1.2L14.386,200.22a1.683,1.683,0,0,1-.986.318M3.436,185.723l10.182,10.9,12.238-8.829,7.88-80.562-22.408-2.192Z" transform="translate(0 -32.175)" fill="#b6a99d"/>
        <path id="Trazado_999810" data-name="Trazado 999810" d="M31.011,185.132c-.055,0-.11,0-.166-.008L6.2,182.713a1.685,1.685,0,1,1,.328-3.353l24.648,2.41a1.685,1.685,0,0,1-.162,3.362" transform="translate(-1.482 -56.848)" fill="#b6a99d"/>
        <path id="Trazado_999811" data-name="Trazado 999811" d="M7.505,324.073q-.082,0-.166-.008a1.685,1.685,0,0,1-1.513-1.841l7.741-79.145a1.685,1.685,0,0,1,3.354.329L9.18,322.551a1.686,1.686,0,0,1-1.675,1.521" transform="translate(-1.844 -76.564)" fill="#b6a99d"/>
        <path id="Trazado_999812" data-name="Trazado 999812" d="M43.432,106.516,5.211,102.777a1.393,1.393,0,0,1-1.25-1.522l.388-3.969a1.393,1.393,0,0,1,1.522-1.251l38.221,3.738a1.393,1.393,0,0,1,1.251,1.522l-.388,3.969a1.393,1.393,0,0,1-1.522,1.251" transform="translate(-1.253 -30.437)" fill="#6e6663"/>
        <rect id="Rectángulo_455389" data-name="Rectángulo 455389" width="7.23" height="5.627" transform="translate(2.439 249.113) rotate(-84.413)" fill="#6e6663"/>
        <path id="Trazado_999813" data-name="Trazado 999813" d="M37.86,63.22a7.077,7.077,0,0,0-10.006-.013l-.5.5-.223.225-.206.217c-.275.288-.552.578-.811.863s-.527.574-.779.863l-.757.866c-.5.578-.976,1.169-1.463,1.757l-1.4,1.79a85.234,85.234,0,0,0-5.093,7.52,80.868,80.868,0,0,0-4.279,8.074c-.309.7-.621,1.4-.922,2.109l-.227.529c-.076.175-.152.352-.217.533l-.409,1.083c-.273.721-.548,1.441-.812,2.165l-.666,2.065-.048.146-.353,1.107-.045.139-.011.035,0,.018-.011.037-.07.267c-.089.355-.163.719-.219,1.08l-.007.046,0,.033-.008.066-.014.132-.027.264L8.24,98l-.011.134,0,.064v.048l-.031.763c0,.067,0,.121,0,.173v.164l0,.325v.324l0,.3.011.6.036,1.151.055,1.115.044.766.019.33.068,1.084c.1,1.44.22,2.861.342,4.277s.252,2.824.4,4.229.293,2.806.451,4.205l.5,4.191c.36,2.792.723,5.568,1.167,8.365a5.921,5.921,0,0,0,11.768-1.022h0c-.087-5.543-.275-11.118-.452-16.638l-.126-4.13c-.04-1.371-.068-2.737-.091-4.086s-.038-2.694-.02-3.925l.011-.447,0-.221.01-.2.01-.2,0-.1h0l.24-.677.618-1.758.712-1.736.353-.867c.056-.145.122-.288.19-.43l.2-.427c.268-.57.524-1.143.783-1.716.124-.288.277-.566.419-.849l.428-.846c.287-.564.562-1.13.882-1.681s.617-1.109.919-1.666c.317-.553.65-1.1.973-1.645,1.323-2.176,2.721-4.323,4.226-6.388l1.139-1.538,1.167-1.5.59-.736c.2-.248.4-.477.593-.719s.391-.469.586-.7l.145-.172.137-.156.135-.156.086-.1.371-.441a7.079,7.079,0,0,0-.436-9.515M22.442,99.266h0v.014c-.007.048-.013.1-.019.142l.012-.153,0-.018h0l0,0v.01Z" transform="translate(-2.594 -19.379)" fill="#1f2930"/>
        <path id="Trazado_999814" data-name="Trazado 999814" d="M10.427,115.178a5.81,5.81,0,0,1-2.092,4.165l-.044-.766-.055-1.115L8.2,116.312l-.012-.6,0-.3v-.324l0-.325V114.6c0-.053,0-.107,0-.173l.031-.763v-.048l0-.064.011-.134.024-.264.027-.264.014-.132.008-.066,0-.033.007-.046c.057-.361.13-.725.219-1.08l.07-.267.011-.037,0-.018.011-.035.045-.139.353-1.107.048-.146a8.37,8.37,0,0,1,1.341,5.4" transform="translate(-2.594 -34.797)" fill="#475575"/>
        <path id="Trazado_999815" data-name="Trazado 999815" d="M26.712,116.863a.4.4,0,0,1-.184-.045,15.676,15.676,0,0,0-3.755-1.127.4.4,0,0,1,.13-.785,16.175,16.175,0,0,1,3.994,1.206.4.4,0,0,1-.184.751" transform="translate(-7.113 -36.419)" fill="#475575"/>
        <path id="Trazado_999816" data-name="Trazado 999816" d="M27,116.126a.4.4,0,0,1-.366-.242,6.865,6.865,0,0,0-1.238-1.743.4.4,0,1,1,.564-.561,7.556,7.556,0,0,1,1.406,1.992.4.4,0,0,1-.366.555" transform="translate(-8.012 -35.963)" fill="#475575"/>
        <path id="Trazado_999817" data-name="Trazado 999817" d="M28.412,170.334a13.4,13.4,0,0,0-2.721-3.466,10.686,10.686,0,0,1-1.464-2.628,2.1,2.1,0,0,0-2.27-1.842,14.572,14.572,0,0,0-2.559.462,6.207,6.207,0,0,0-2.594,1.322,2.116,2.116,0,0,0-.776,1.725c.378,9.328,3.7,13.364,4.735,14.418a2.114,2.114,0,0,0,2.589.192,1.89,1.89,0,0,0,2.307-.141c1.988,1.265,2.884-.032,2.884-.032s1.363,2.072,2.584,1.059-1.212-3.446-1.691-5.317c-.023-.089-.045-.182-.066-.286.907.908,2.135,1.871,3.1,1.651,1.76-.4-4.063-7.117-4.063-7.117" transform="translate(-5.08 -51.471)" fill="#e38c67"/>
        <path id="Trazado_999818" data-name="Trazado 999818" d="M216.3,85.169l.083.936.068.882c.043.585.078,1.168.106,1.753.054,1.172.083,2.349.076,3.544s-.047,2.406-.147,3.651a33.465,33.465,0,0,1-.512,3.876,20.109,20.109,0,0,1-1.354,4.41,13.442,13.442,0,0,1-1.544,2.618,11.226,11.226,0,0,1-1.282,1.417,10.247,10.247,0,0,1-1.807,1.354,10.113,10.113,0,0,1-2.339,1.012,10.45,10.45,0,0,1-2.544.4,11.882,11.882,0,0,1-4.243-.667,13.91,13.91,0,0,1-1.572-.645l-.6-.338-.566-.352a21.282,21.282,0,0,1-2.013-1.476c-.617-.5-1.167-1.015-1.692-1.53s-1.006-1.031-1.464-1.551a38.993,38.993,0,0,1-2.474-3.125,60.669,60.669,0,0,1-3.9-6.28c-1.148-2.1-2.18-4.21-3.135-6.338q-.715-1.6-1.378-3.213-.331-.81-.651-1.631l-.318-.834-.333-.908a7.363,7.363,0,1,1,13.825-5.07l.068.181.227.616.26.685q.269.69.552,1.386c.38.924.776,1.846,1.184,2.757C197.7,84.512,198.575,86.3,199.5,88a45.93,45.93,0,0,0,2.946,4.753A24.517,24.517,0,0,0,204,94.72c.148.169.3.333.445.486.15-.41.292-.837.424-1.275.27-.889.511-1.826.725-2.785s.406-1.945.571-2.936q.126-.746.232-1.492l.192-1.43.043-.331a4.864,4.864,0,0,1,9.666.212" transform="translate(-57.152 -22.895)" fill="#9b4839"/>
        <path id="Trazado_999819" data-name="Trazado 999819" d="M191.782,77.885l1.774,15.825,7.269-6.167.391-.333,3.486-2.956s-2.092-6.265-3.7-11.562c-.058-.189-.115-.379-.173-.567q-.159-.529-.309-1.039a41.136,41.136,0,0,0-4.378-9.733Z" transform="translate(-60.787 -19.447)" fill="#376163"/>
        <path id="Trazado_999820" data-name="Trazado 999820" d="M201.924,81.151a2.024,2.024,0,0,0,1.369,2.187c.783.371,1.459.692.7,3.535-.738,2.767-.725,4.628.044,5.669l.391-.333c-.639-.909-.62-2.654.06-5.2.8-3.016.066-3.634-.977-4.13a1.519,1.519,0,0,1-1.077-1.719,5.507,5.507,0,0,1,1.776-3.466c-.058-.19-.115-.379-.173-.567a6.239,6.239,0,0,0-2.115,4.027" transform="translate(-64.002 -24.445)" fill="#1e3436"/>
        <path id="Trazado_999821" data-name="Trazado 999821" d="M213.569,111.974a.354.354,0,0,1-.081,0,.338.338,0,0,1-.315-.36,17.092,17.092,0,0,1,1.389-6.061.338.338,0,0,1,.605.3,16.755,16.755,0,0,0-1.319,5.8.338.338,0,0,1-.279.31" transform="translate(-67.567 -33.399)" fill="#76281d"/>
        <path id="Trazado_999822" data-name="Trazado 999822" d="M211.773,107.424a.338.338,0,0,1-.315-.553,4,4,0,0,1,2.633-1.455.338.338,0,0,1,.376.3.343.343,0,0,1-.3.376,3.328,3.328,0,0,0-2.2,1.224.335.335,0,0,1-.2.113" transform="translate(-66.998 -33.412)" fill="#76281d"/>
        <path id="Trazado_999823" data-name="Trazado 999823" d="M219.934,79.733c-.55-.684-.229-2.172-.4-3.316a13.624,13.624,0,0,1,.309-5.143c.623-1.949,2.772-7.589,4.317-8.3s.068,4.3-.215,5.332a4.067,4.067,0,0,0-.092,1.838s4.279-11.228,5.567-11.654-.506,6.207-.961,7.844c0,0,3.693-8.282,4.6-8.294,1.811-.025-2.025,9.289-2.025,9.289s3.462-6.809,4.565-6.207c1.167.637-2.56,7.921-2.56,7.921s2.906-4.11,4.093-4.024-4.246,9.182-5.251,10.48-2.354,5.225-3.934,6.677c-1.073.986-6.266-.277-8.006-2.441" transform="translate(-69.547 -18.396)" fill="#9b4839"/>
        <path id="Trazado_999824" data-name="Trazado 999824" d="M235.453,76.591a.338.338,0,0,0,.031-.445,9.607,9.607,0,0,0-6.582-3.462.337.337,0,0,0-.038.672,9.089,9.089,0,0,1,6.085,3.2.338.338,0,0,0,.473.063.414.414,0,0,0,.032-.028" transform="translate(-72.44 -23.038)" fill="#76281d"/>
        <path id="Trazado_999825" data-name="Trazado 999825" d="M229.173,83.815a.338.338,0,0,0,.074-.37,5.609,5.609,0,0,1,.645-6.025.337.337,0,0,0-.477-.475l0,0c-.1.106-2.5,2.634-.785,6.755a.337.337,0,0,0,.441.182.342.342,0,0,0,.107-.071" transform="translate(-72.27 -24.358)" fill="#76281d"/>
        <path id="Trazado_999826" data-name="Trazado 999826" d="M160.993,337.881l.779,6.185h7.888l.458-6.509Z" transform="translate(-51.028 -106.992)" fill="#9b4839"/>
        <path id="Trazado_999827" data-name="Trazado 999827" d="M191.869,336.463l.958,7.188h7.888l-.3-7.4Z" transform="translate(-60.815 -106.578)" fill="#9b4839"/>
        <path id="Trazado_999828" data-name="Trazado 999828" d="M219.28,358.527H189.445a4.169,4.169,0,0,1-.393-1.657c-.186-2.524.618-6.552,1.012-9.091.048-.3.089-.574.121-.824a8.819,8.819,0,0,0,.089-1.037,1.522,1.522,0,0,1,1.835-1.718c3.019,2.961,6.438-1.479,8.433-.023,0,0,.86.616,3.229,2.747s6.4,3.538,9.826,4.973c4.427,1.85,5.683,3.7,5.928,4.973a2.331,2.331,0,0,1-.245,1.657" transform="translate(-59.913 -108.995)" fill="#ba6c25"/>
        <path id="Trazado_999829" data-name="Trazado 999829" d="M219.293,364.557H189.458a4.169,4.169,0,0,1-.393-1.657h30.473a2.331,2.331,0,0,1-.245,1.657" transform="translate(-59.926 -115.025)" fill="#9e4f13"/>
        <path id="Trazado_999830" data-name="Trazado 999830" d="M192.971,359.956h-.886a6.548,6.548,0,0,0,1.6-4.777,8.411,8.411,0,0,0-3.141-5.97c.048-.3.089-.574.121-.824a9.141,9.141,0,0,1,3.731,6.759,7.237,7.237,0,0,1-1.428,4.813" transform="translate(-60.396 -110.424)" fill="#9e4f13"/>
        <path id="Trazado_999831" data-name="Trazado 999831" d="M209.645,350.247a.492.492,0,0,1-.118-.969l1.864-.462a.492.492,0,1,1,.237.954l-1.864.462a.478.478,0,0,1-.119.015" transform="translate(-66.294 -110.556)" fill="#efebe6"/>
        <path id="Trazado_999832" data-name="Trazado 999832" d="M206.934,347.975a.492.492,0,0,1-.118-.969l1.864-.462a.492.492,0,1,1,.236.954l-1.863.463a.512.512,0,0,1-.119.014" transform="translate(-65.434 -109.836)" fill="#efebe6"/>
        <path id="Trazado_999833" data-name="Trazado 999833" d="M212.374,351.832a.492.492,0,0,1-.118-.969l1.864-.462a.491.491,0,1,1,.236.954l-1.863.463a.508.508,0,0,1-.119.014" transform="translate(-67.159 -111.058)" fill="#efebe6"/>
        <path id="Trazado_999834" data-name="Trazado 999834" d="M215.1,353.357a.492.492,0,0,1-.118-.969l1.864-.462a.492.492,0,1,1,.237.954l-1.864.463a.5.5,0,0,1-.119.014" transform="translate(-68.023 -111.542)" fill="#efebe6"/>
        <path id="Trazado_999835" data-name="Trazado 999835" d="M218.078,354.767a.492.492,0,0,1-.118-.969l1.864-.463a.492.492,0,0,1,.237.954l-1.864.463a.508.508,0,0,1-.119.014" transform="translate(-68.966 -111.989)" fill="#efebe6"/>
        <path id="Trazado_999836" data-name="Trazado 999836" d="M221.3,355.97a.492.492,0,0,1-.118-.969l1.864-.462a.492.492,0,1,1,.237.954l-1.864.463a.508.508,0,0,1-.119.014" transform="translate(-69.989 -112.37)" fill="#efebe6"/>
        <path id="Trazado_999837" data-name="Trazado 999837" d="M142.651,172.068c.077.311.161.615.252.912l.009.035q.188.6.412,1.158c1.337,3.272,11.665,3.752,21.833,2.614,7.886-.882,15.678-2.738,19.1-5.023,3.212-2.144-3.628-21.929-3.628-21.929l-38.577,8.1s-.867,8.228.6,14.138" transform="translate(-44.943 -47.492)" fill="#1f2930"/>
        <path id="Trazado_999838" data-name="Trazado 999838" d="M177,184.468l6.32,54.552c-1.455,9.179,2.462,46.764,2.462,46.764l11.359-.344,3.3-49.786c-.076-14.413-1.594-34.338-3.831-56.077-.035-.333-.068-.666-.1-1q-.17-1.663-.35-3.343c-.031-.3-.064-.6-.095-.9l-3.714,1.71-.911.419-14.585,6.718Z" transform="translate(-56.056 -55.258)" fill="#1f2930"/>
        <path id="Trazado_999839" data-name="Trazado 999839" d="M188.552,289a.416.416,0,0,0,.058,0,.474.474,0,0,0,.413-.527c-4.041-32.832-1.421-46.327-1.394-46.46a.476.476,0,0,0,.005-.156l-6.815-52.026a.474.474,0,0,0-.939.123l6.806,51.952c-.214,1.175-2.5,14.986,1.4,46.682a.474.474,0,0,0,.469.415" transform="translate(-57.013 -60.037)" fill="#475575"/>
        <path id="Trazado_999840" data-name="Trazado 999840" d="M192.2,164.745a19.325,19.325,0,0,0,4.1,8.505,10.958,10.958,0,0,0,2.171,1.854,9.141,9.141,0,0,0,2.013.977,8.2,8.2,0,0,0,.989.279c-.035-.333-.068-.665-.1-1-.159-.041-.317-.087-.473-.139a8.318,8.318,0,0,1-1.914-.912,9.7,9.7,0,0,1-1.772-1.479,18.539,18.539,0,0,1-4.08-8.259.474.474,0,0,0-.931.173" transform="translate(-60.917 -52.04)" fill="#475575"/>
        <path id="Trazado_999841" data-name="Trazado 999841" d="M179.7,176.709a.389.389,0,0,1-.373.4h0a.389.389,0,0,1-.413-.361c-.069-1.426-.153-2.887-.245-4.346q-.024-.385-.05-.77c-.31-4.768-.7-9.448-1-12.754q-.036-.4-.07-.775c-.066-.725-.126-1.368-.178-1.913.262-.041.523-.083.781-.127.051.545.112,1.194.178,1.927.024.249.046.508.07.775.294,3.276.686,7.916,1,12.655.018.262.034.525.053.786.095,1.512.182,3.027.254,4.5" transform="translate(-56.22 -49.466)" fill="#475575"/>
        <path id="Trazado_999842" data-name="Trazado 999842" d="M179.34,171.9a10.377,10.377,0,0,1-1.378.528c-.245.074-.509.143-.779.2a5.556,5.556,0,0,1-.747.1,2.717,2.717,0,0,1-1.324-.208,1.612,1.612,0,0,1-.9-1.2c-.287-1.471-.889-7.544-1.294-11.84-.026-.264-.051-.523-.074-.773-.064-.687-.122-1.312-.171-1.843.261-.032.523-.064.785-.1.049.534.107,1.167.173,1.863.024.249.048.507.072.772.406,4.285,1.006,10.35,1.284,11.776a.846.846,0,0,0,.475.665,2.781,2.781,0,0,0,1.667.022c.265-.057.529-.132.777-.211a9.513,9.513,0,0,0,1.082-.424.4.4,0,0,1,.528.171.376.376,0,0,1-.18.51" transform="translate(-54.732 -49.684)" fill="#475575"/>
        <path id="Trazado_999843" data-name="Trazado 999843" d="M142.254,170.834s.274,3.069.709,7.773c.027.293.056.592.083.9a.027.027,0,0,1,0,.01.129.129,0,0,0,0,.035q.043.461.086.937c1.1,11.849,2.99,31.526,4.23,40.989,0,0-.184,17.808.475,31.549.611,12.768,5.014,28.085,5.635,31.871h11.709l.115-1.681V177.057a114.694,114.694,0,0,0-10.918-4.438c-.305-.1-.613-.206-.921-.307-.584-.189-1.169-.372-1.751-.543q-.465-.136-.926-.263c-3.483-.954-6.719-1.428-8.533-.673" transform="translate(-45.089 -54.029)" fill="#1f2930"/>
        <path id="Trazado_999844" data-name="Trazado 999844" d="M156.391,289.5a.447.447,0,0,0,.09-.009.473.473,0,0,0,.375-.555c-.032-.166-3.238-16.78-4.624-26.191-1.382-9.381-.7-35.769-.694-36.034a.466.466,0,0,0,0-.068c-1.038-8.826-3.162-39.3-3.183-39.607a.473.473,0,1,0-.944.066c.021.307,2.141,30.725,3.183,39.618-.028,1.1-.667,26.857.7,36.163,1.39,9.431,4.6,26.066,4.631,26.233a.474.474,0,0,0,.464.384" transform="translate(-46.722 -59.144)" fill="#475575"/>
        <path id="Trazado_999845" data-name="Trazado 999845" d="M170.186,356.166c0,.071,0,.14,0,.208-.007.316-.02.6-.033.843-.033.535-.071.865-.071.865H152.306a9.754,9.754,0,0,1-.021-1.708,8.881,8.881,0,0,1,3.174-6.579c3.36-2.6,2.063-2.056,2.752-3.24.078-.131.682-2.143.747-2.282.578-1.229,1.11-1.811,4.294-1.811,4.223,0,4.595,2.049,5.046,3.128a20.147,20.147,0,0,1,.7,2.509c.107.449.213.929.318,1.417.26,1.225.5,2.5.669,3.524a18.461,18.461,0,0,1,.2,3.126" transform="translate(-48.26 -108.547)" fill="#ba6c25"/>
        <path id="Trazado_999846" data-name="Trazado 999846" d="M177.458,358.773c0,.071,0,.14,0,.208-.007.316-.02.6-.033.843a4.958,4.958,0,0,1-1.846-2.393c-1.1-3,.591-6.589.662-6.742l.036.017c.107.449.213.929.318,1.417a8.081,8.081,0,0,0-.221,5.018,4.127,4.127,0,0,0,1.089,1.632" transform="translate(-55.533 -111.155)" fill="#9e4f13"/>
        <path id="Trazado_999847" data-name="Trazado 999847" d="M170.182,362.83c-.023,1.012-.1,1.708-.1,1.708H152.306a9.758,9.758,0,0,1-.021-1.708Z" transform="translate(-48.26 -115.003)" fill="#9e4f13"/>
        <path id="Trazado_999848" data-name="Trazado 999848" d="M166.941,349.961a.511.511,0,0,1-.127-.016,8.786,8.786,0,0,0-4.12-.085.507.507,0,0,1-.271-.977,9.735,9.735,0,0,1,4.645.08.507.507,0,0,1-.127,1" transform="translate(-51.364 -110.507)" fill="#efebe6"/>
        <path id="Trazado_999849" data-name="Trazado 999849" d="M167.347,347.158a.511.511,0,0,1-.127-.016,8.787,8.787,0,0,0-4.12-.085.507.507,0,0,1-.27-.977,9.729,9.729,0,0,1,4.645.081.507.507,0,0,1-.127,1" transform="translate(-51.493 -109.619)" fill="#efebe6"/>
        <path id="Trazado_999850" data-name="Trazado 999850" d="M165.829,352.312a.505.505,0,0,1-.127-.016,8.889,8.889,0,0,0-4.121-.085.507.507,0,0,1-.269-.977,9.739,9.739,0,0,1,4.645.081.507.507,0,0,1-.127,1" transform="translate(-51.012 -111.252)" fill="#efebe6"/>
        <path id="Trazado_999851" data-name="Trazado 999851" d="M164.521,354.984a.516.516,0,0,1-.128-.016,8.885,8.885,0,0,0-4.121-.085.507.507,0,0,1-.269-.977,9.739,9.739,0,0,1,4.645.081.507.507,0,0,1-.127,1" transform="translate(-50.597 -112.099)" fill="#efebe6"/>
        <path id="Trazado_999852" data-name="Trazado 999852" d="M143.414,179.043a.027.027,0,0,1,0,.01.126.126,0,0,0,0,.035q.043.461.086.938a7.622,7.622,0,0,0,3.93-.352,12.625,12.625,0,0,0,5.706-4.835,23.413,23.413,0,0,0,1.61-2.684,22.834,22.834,0,0,0,1.128-2.528.473.473,0,0,0-.892-.318,22.093,22.093,0,0,1-1.156,2.539,22.637,22.637,0,0,1-1.5,2.473,11.651,11.651,0,0,1-5.219,4.464,6.731,6.731,0,0,1-3.7.258" transform="translate(-45.457 -53.564)" fill="#475575"/>
        <path id="Trazado_999853" data-name="Trazado 999853" d="M150.7,181.941a5.107,5.107,0,0,0,1.283-.171c5.671-1.474,5.371-15.212,5.356-15.8l-.736.02c0,.137.3,13.736-4.805,15.064a3.678,3.678,0,0,1-3.318-.618c-4.437-3.328-4.861-16.141-4.865-16.27l-.736.021c.016.542.44,13.3,5.158,16.838a4.351,4.351,0,0,0,2.662.913" transform="translate(-45.286 -52.035)" fill="#efebe6"/>
        <path id="Trazado_999854" data-name="Trazado 999854" d="M183.034,123c-.43.4-.9.8-1.389,1.187-.12.095-.24.183-.36.278a26.119,26.119,0,0,1-2.583,1.711c-.133.082-.265.158-.4.234a41.51,41.51,0,0,1-12.515,4.439c-1.092.208-2.21.378-3.34.518-1.275.158-2.57.259-3.877.316-.96.038-1.932.051-2.911.031-.2,0-.4-.006-.6-.013a41.789,41.789,0,0,1-16.758-3.908l-.2-.094c-.038-.107-.076-.215-.114-.335-1.073-3.233-2.191-10.873-3-17.32-.018-.152-.038-.3-.057-.442-.354-2.854-.644-5.442-.839-7.268-.019-.17-.038-.335-.051-.492-.038-.3-.064-.574-.089-.821-.1-1-.183-2.014-.246-3.018a131.891,131.891,0,0,1-.019-14.832l.038-.833c.007-.076.013-.158.013-.24.006-.152.019-.309.025-.461q.114-2.14.253-4.344c.006-.152.012-.3.025-.448.152-2.488.322-5.039.492-7.684.448-7.154,2.418-12.168,5.79-14.416.152-.1.3-.2.46-.284h.007a7.891,7.891,0,0,1,2.683-.941,21.966,21.966,0,0,0,4.451-1.168c.512-.2.979-.4,1.408-.6.177-.083.341-.165.5-.247a16.886,16.886,0,0,0,2.684-1.654h11.839a9.073,9.073,0,0,0,3.681,3.081c.158.07.309.139.467.208.234.1.467.2.7.278.556.208,1.124.391,1.686.556.158.044.316.088.467.133,3.334.954,6.472,1.61,7.261,5.556.372,1.895-.335,4.988-.922,9.989-.025.189-.044.385-.069.587-.1.9-.2,1.869-.278,2.9-.013.177-.025.348-.044.531-.145,1.964-.24,4.154-.252,6.6v.455c0,.631.006,1.275.018,1.938.013.972.051,1.982.1,3.031q.038.852.095,1.742c.012.158.019.322.031.486.019.265.038.537.057.808.076.979.165,1.983.265,3.018.089.909.19,1.837.309,2.791.07.6.145,1.206.227,1.824.025.171.051.341.076.518.025.215.057.436.089.663.126.878.29,1.945.473,3.138.025.145.051.3.07.449.221,1.414.479,3.005.757,4.678.031.145.057.3.082.449.543,3.2,1.168,6.686,1.818,9.907l.114.581c.473,2.311.947,4.47,1.4,6.257" transform="translate(-42.309 -15.8)" fill="#376163"/>
        <path id="Trazado_999855" data-name="Trazado 999855" d="M195.84,101.534a6.274,6.274,0,0,1-2.538-1.888,2.9,2.9,0,0,1,.2-4.117,2.633,2.633,0,0,1,2.128-.708v-.454a3.119,3.119,0,0,0-2.425.833,3.327,3.327,0,0,0-.24,4.723,6.761,6.761,0,0,0,2.91,2.1c-.012-.165-.019-.329-.031-.486" transform="translate(-60.886 -29.905)" fill="#1e3436"/>
        <path id="Trazado_999856" data-name="Trazado 999856" d="M169.587,59.61c-4.73,0-8.366-5.148-8.522-5.371a.331.331,0,1,1,.544-.378c.037.053,3.736,5.294,8.248,5.082a5.758,5.758,0,0,0,5.527-3.878.331.331,0,0,1,.638.178,6.512,6.512,0,0,1-6.134,4.362c-.1,0-.2.007-.3.007" transform="translate(-51.033 -17.027)" fill="#1e3436"/>
        <path id="Trazado_999857" data-name="Trazado 999857" d="M170.829,145.386a33.089,33.089,0,0,1-14.42-3.767,58.363,58.363,0,0,1-12.187-8.122.331.331,0,1,1,.446-.489,57.674,57.674,0,0,0,12.047,8.023c6.368,3.119,15.678,5.86,23.869,1.2a.331.331,0,1,1,.327.576,20.117,20.117,0,0,1-10.082,2.576" transform="translate(-45.678 -42.131)" fill="#1e3436"/>
        <path id="Trazado_999858" data-name="Trazado 999858" d="M178.675,140.922h-.005c-6.945-.112-12.614-9.366-12.851-9.76a.331.331,0,0,1,.567-.342c.056.094,5.718,9.334,12.295,9.44a.331.331,0,0,1,0,.662" transform="translate(-52.543 -41.414)" fill="#1e3436"/>
        <path id="Trazado_999859" data-name="Trazado 999859" d="M142.3,115.016a5.831,5.831,0,0,1-5.032,2.56A9.014,9.014,0,0,1,134.2,117c-.017-.17-.035-.333-.051-.49,3.67,1.406,6.5.252,7.779-1.734a3.936,3.936,0,0,0-.872-5.473c-2.372-1.779-1.746-3.236-1.081-4.773.653-1.514,1.329-3.079-.292-5.429a5.381,5.381,0,0,0-3.48-2.436,5.728,5.728,0,0,0-2.357.1c.009-.154.018-.309.025-.463a6.073,6.073,0,0,1,2.408-.075,5.791,5.791,0,0,1,3.767,2.619c1.759,2.553.969,4.383.335,5.855-.644,1.494-1.154,2.675.941,4.246a4.423,4.423,0,0,1,.977,6.067" transform="translate(-42.425 -30.473)" fill="#1e3436"/>
        <path id="Trazado_999860" data-name="Trazado 999860" d="M162.728,93.485c-3.743-1.43-3.754-3.763-3.763-6.462-.011-2.58-.024-5.5-3.244-8.177-.066-.055-.133-.108-.2-.161A3.5,3.5,0,0,0,150,82.512c.854,2.556.945,6.1.261,10.262a8.268,8.268,0,0,0,2.2,7.325,14.387,14.387,0,0,0,9.688,3.908,9.21,9.21,0,0,0,1.106-.064,5.047,5.047,0,0,0,4.416-4.279c.316-2.566-1.532-4.875-4.939-6.179m4.5,6.126a4.6,4.6,0,0,1-4.03,3.9,13.754,13.754,0,0,1-10.42-3.712,7.747,7.747,0,0,1-2.086-6.949,32.448,32.448,0,0,0,.468-5.228,16.653,16.653,0,0,0-.744-5.244,3,3,0,0,1,1.154-3.483,3.012,3.012,0,0,1,3.677.137l.192.158c3.063,2.54,3.074,5.233,3.085,7.837.011,2.743.02,5.336,4.048,6.874,3.2,1.227,4.945,3.361,4.656,5.714" transform="translate(-47.483 -24.687)" fill="#1e3436"/>
        <path id="Trazado_999861" data-name="Trazado 999861" d="M187.485,72.748c-2.763-.56-5.113-2.564-5.369-3.983a.8.8,0,0,1,.371-.913c2.919-1.819,3.774-4.152,3.262-8.916a3.527,3.527,0,0,1,.785-2.818c.031-.033.06-.066.091-.1-.157-.044-.314-.088-.47-.135a3.962,3.962,0,0,0-.846,3.1c.49,4.559-.311,6.781-3.057,8.492a1.253,1.253,0,0,0-.572,1.368c.281,1.561,2.7,3.725,5.716,4.337a7.88,7.88,0,0,0,1.555.159,7,7,0,0,0,3.942-1.192c.022-.2.044-.395.066-.589a6.766,6.766,0,0,1-5.475,1.189" transform="translate(-57.577 -17.713)" fill="#1e3436"/>
        <path id="Trazado_999862" data-name="Trazado 999862" d="M169.221,69.733a4.782,4.782,0,0,0-4.279-1.825,2.76,2.76,0,0,0-2.588,2.081c-.411,1.565.662,2.2,1.7,2.818,1.181.7,2.4,1.43,2.282,3.514-.119,2,.724,3.476,2.253,3.946a3.138,3.138,0,0,0,.9.137,2.419,2.419,0,0,0,2.117-1.088c1.644-2.758-.589-7.342-2.384-9.582m2,9.357a2.187,2.187,0,0,1-2.509.753c-1.32-.4-2.046-1.712-1.942-3.5.139-2.352-1.322-3.22-2.5-3.919-1.059-.629-1.825-1.084-1.5-2.328a2.322,2.322,0,0,1,2.214-1.752,3.859,3.859,0,0,1,.454-.027,4.442,4.442,0,0,1,3.43,1.688c1.719,2.147,3.878,6.513,2.348,9.082" transform="translate(-51.431 -21.515)" fill="#1e3436"/>
        <path id="Trazado_999863" data-name="Trazado 999863" d="M184.385,94.963a5.367,5.367,0,0,0-5.628-3.568,2.523,2.523,0,0,0-2.509,2.057c-.271,1.635,1.011,2.518,2.251,3.372,1.456,1,2.831,1.951,1.942,4.08-.768,1.838-.713,3.24.145,3.844a1.755,1.755,0,0,0,1.024.3,4.9,4.9,0,0,0,3.048-1.465,3.738,3.738,0,0,0,.96-2.851,18.842,18.842,0,0,0-1.234-5.767m-.025,8.291c-1.316,1.2-2.761,1.666-3.518,1.132-.678-.474-.676-1.682,0-3.31,1.029-2.461-.633-3.606-2.1-4.615-1.179-.812-2.291-1.578-2.063-2.94.163-.986.858-1.538,2.123-1.691a4.7,4.7,0,0,1,.552-.033,4.827,4.827,0,0,1,2.8.911,5,5,0,0,1,1.807,2.4c1.463,4.149,1.6,7.039.393,8.143" transform="translate(-55.852 -28.957)" fill="#1e3436"/>
        <path id="Trazado_999864" data-name="Trazado 999864" d="M194.175,127.146c-2.1-.236-2.6,1.022-3.18,2.458a5.783,5.783,0,0,1-2.951,3.593,4.929,4.929,0,0,1-5.919-1.668,3.576,3.576,0,0,1-.031-4.661,2.852,2.852,0,0,0,.889-2.019,3.462,3.462,0,0,0-1.547-2.132c-.943-.8-1.834-1.55-1.538-2.823a2.781,2.781,0,0,1,2.028-2.1,4.253,4.253,0,0,1,1.178-.159A7.526,7.526,0,0,1,188.162,120a8.19,8.19,0,0,0,5.255,2.47c-.023-.15-.046-.3-.069-.446a7.766,7.766,0,0,1-4.877-2.337c-2.011-2-4.626-2.906-6.665-2.319a3.2,3.2,0,0,0-2.335,2.428c-.357,1.535.726,2.451,1.682,3.259.689.581,1.337,1.13,1.39,1.829a2.437,2.437,0,0,1-.781,1.693,3.972,3.972,0,0,0,.013,5.216,5.681,5.681,0,0,0,4.4,2.264,4.788,4.788,0,0,0,2.053-.461,6.224,6.224,0,0,0,3.171-3.829c.581-1.438.98-2.432,2.849-2.169-.025-.152-.051-.3-.077-.452" transform="translate(-56.863 -37.145)" fill="#1e3436"/>
        <path id="Trazado_999865" data-name="Trazado 999865" d="M167.368,123.565a5,5,0,0,0-1.781-3.238A3.269,3.269,0,0,0,162.8,120a5.568,5.568,0,0,1-4.606-.585,9.2,9.2,0,0,0-3.182-1.04,2.9,2.9,0,0,0-3.242,2.531,3.321,3.321,0,0,0,2.728,3.862,7.367,7.367,0,0,0,4.522-.472c1.152-.421,1.986-.726,3.05.066a5.565,5.565,0,0,0,3.173,1.194,2.565,2.565,0,0,0,1.172-.256,1.787,1.787,0,0,0,.96-1.715c0-.008,0-.015,0-.024m-1.158,1.346c-.934.475-2.529.106-3.88-.9a2.621,2.621,0,0,0-1.611-.579,5.538,5.538,0,0,0-1.856.452,6.877,6.877,0,0,1-4.274.455,2.889,2.889,0,0,1-2.386-3.356,2.469,2.469,0,0,1,2.754-2.167,8.727,8.727,0,0,1,3.039,1,6,6,0,0,0,4.917.613,2.854,2.854,0,0,1,2.428.262,4.617,4.617,0,0,1,1.589,2.915,1.347,1.347,0,0,1-.719,1.3" transform="translate(-48.089 -37.514)" fill="#1e3436"/>
        <path id="Trazado_999866" data-name="Trazado 999866" d="M140.578,144.392c.914-.909,2.053-2.039,1.38-4.31a3.834,3.834,0,0,0-1.951-2.43,7.243,7.243,0,0,0-4.409-.4c.018.146.035.294.055.442a10.184,10.184,0,0,1,1.708-.157,5.354,5.354,0,0,1,2.443.512,3.41,3.41,0,0,1,1.73,2.163c.6,2.017-.351,2.96-1.267,3.871-1,.993-1.94,1.929-.072,3.924a4.726,4.726,0,0,1,.717,5.968,2.66,2.66,0,0,1-2.26,1.042c.038.117.077.227.115.333.069.033.135.066.2.1a3.068,3.068,0,0,0,2.288-1.2,5.172,5.172,0,0,0-.741-6.544c-1.574-1.682-.923-2.328.061-3.308" transform="translate(-42.979 -43.451)" fill="#1e3436"/>
        <path id="Trazado_999867" data-name="Trazado 999867" d="M186.2,157a4.867,4.867,0,0,0-4.239-.217,6.771,6.771,0,0,0-3.772,2.9c-1,1.4-1.609,2.249-5.749.636-4.46-1.737-7.611-.755-8.653.893-.779,1.234-.5,2.785.742,4.261.2.007.4.013.6.016-1.324-1.415-1.686-2.9-.967-4.041.585-.927,1.931-1.611,3.871-1.611a11.82,11.82,0,0,1,4.248.894c4.25,1.655,5.111.823,6.268-.792a6.307,6.307,0,0,1,3.55-2.737,4.455,4.455,0,0,1,3.862.168,4.608,4.608,0,0,1,1.81,2.813c.135-.075.267-.152.4-.232A4.933,4.933,0,0,0,186.2,157" transform="translate(-51.775 -49.576)" fill="#1e3436"/>
        <path id="Trazado_999868" data-name="Trazado 999868" d="M156.194,152.492c-1.426-.589-1.32-1-1.085-1.9a4.928,4.928,0,0,0-.064-3.178,2.656,2.656,0,0,0-1.514-1.675c-1.708-.7-3.983.386-4.078.432a.149.149,0,0,0-.036.02c-1.96,1.45-1.693,3.8-1.112,6.117.75,3,2.65,4.758,5.35,4.941.075.007.152.009.227.009a3.878,3.878,0,0,0,3.628-2.609,1.827,1.827,0,0,0-1.316-2.158m.885,2.059a3.462,3.462,0,0,1-3.4,2.26c-3.194-.219-4.453-2.626-4.95-4.61-.74-2.958-.471-4.595.929-5.641.212-.1,2.247-1.009,3.7-.413a2.245,2.245,0,0,1,1.267,1.415,4.487,4.487,0,0,1,.051,2.92c-.269,1.044-.348,1.719,1.346,2.419.859.353,1.223.925,1.053,1.651" transform="translate(-46.873 -46.119)" fill="#1e3436"/>
        <path id="Trazado_999869" data-name="Trazado 999869" d="M202.93,154.92a3.908,3.908,0,0,1-1.7-2.9,7.382,7.382,0,0,1,1.733-4.507c-.04-.192-.08-.384-.117-.578-.892,1.112-2.185,3.094-2.055,5.113a4.289,4.289,0,0,0,1.823,3.187c.122-.091.243-.181.36-.276-.016-.011-.031-.025-.046-.036" transform="translate(-63.641 -46.571)" fill="#1e3436"/>
        <path id="Trazado_999870" data-name="Trazado 999870" d="M171.918,71.6a3.608,3.608,0,0,0,2.21-1.408c3.392-4.384.86-17.454.751-18.008a.484.484,0,0,0-.566-.382h0a.484.484,0,0,0-.381.568c.026.132,2.557,13.191-.567,17.229a2.624,2.624,0,0,1-2,1.1c-5.153.3-10.257-13.887-11.788-19.381a.484.484,0,1,0-.932.26A81.948,81.948,0,0,0,162.3,61.659c3.059,6.815,6.125,10.181,9.112,10a3.859,3.859,0,0,0,.5-.062" transform="translate(-50.277 -16.153)" fill="#efebe6"/>
        <path id="Trazado_999871" data-name="Trazado 999871" d="M163.311,15.965l-1.788-7.427a2.959,2.959,0,0,1,.8-4.432,5.791,5.791,0,0,1,5.766-.337s.684-3.158,3.092-3.7S174.794,2.6,174.794,2.6s1.421-2.931,4.038-2.46,1.99,3.3,1.99,3.3,3.056-2.049,5.033-.3-.977,5.14-.977,5.14,2.8.757,2.393,2.8-3.437,2.429-3.437,2.429L181.9,20.757Z" transform="translate(-50.979 0)" fill="#1f2930"/>
        <path id="Trazado_999872" data-name="Trazado 999872" d="M185.4,30.712s1.63-3,4.091-1.768.883,9.905-4.014,8.677Z" transform="translate(-58.763 -9.08)" fill="#76281d"/>
        <path id="Trazado_999873" data-name="Trazado 999873" d="M161.682,44.834s-.874.932,3.587,3.415a10.56,10.56,0,0,0,7.308.863,9.646,9.646,0,0,0,1.127-.406,13.462,13.462,0,0,1,1.62-6.537c.048-.079.077-.119.077-.119l-10.954-9.22Z" transform="translate(-51.225 -10.406)" fill="#9b4839"/>
        <path id="Trazado_999874" data-name="Trazado 999874" d="M166.611,40.615s1,8.957,7.55,10.965a9.8,9.8,0,0,0,1.127-.406,13.475,13.475,0,0,1,1.62-6.537Z" transform="translate(-52.809 -12.873)" fill="#1f2930"/>
        <path id="Trazado_999875" data-name="Trazado 999875" d="M169.719,36.918c4.906,2.2,9.515.938,11.03-3.354.366-1.035.781-2.56,1.173-4.158l.012-.049c.083-.339.165-.684.247-1.027.059-.248.117-.5.173-.744.662-2.86,1.181-5.47,1.181-5.47.909-7.272-5.507-11.548-11.763-10.16s-6.095,10.534-7.057,14.758a8.648,8.648,0,0,0,5,10.2" transform="translate(-52.127 -3.707)" fill="#9b4839"/>
        <path id="Trazado_999876" data-name="Trazado 999876" d="M179.153,29.739a.28.28,0,0,1-.163-.235c0-.008-.075-.872-.623-1.05a1.516,1.516,0,0,0-1.151.139.281.281,0,0,1-.3-.477,2.062,2.062,0,0,1,1.624-.2c.908.3,1.006,1.492,1.01,1.544a.281.281,0,0,1-.26.3.284.284,0,0,1-.139-.025" transform="translate(-56.035 -8.821)" fill="#1f2930"/>
        <path id="Trazado_999877" data-name="Trazado 999877" d="M185.21,31.02l-.012-.005a.282.282,0,0,1-.121-.379c.02-.04.509-.966,1.345-.893a1.8,1.8,0,0,1,1.234.713.281.281,0,0,1-.462.322,1.244,1.244,0,0,0-.822-.474c-.457-.04-.792.584-.8.59a.281.281,0,0,1-.367.126" transform="translate(-58.652 -9.426)" fill="#1f2930"/>
        <path id="Trazado_999878" data-name="Trazado 999878" d="M182.039,37.063a28.8,28.8,0,0,1-5.2-1.792s-1.062,3.416,1.926,3.958c2.4.434,3.273-2.166,3.273-2.166" transform="translate(-55.993 -11.18)" fill="#efebe6"/>
        <path id="Trazado_999879" data-name="Trazado 999879" d="M179.037,42.153a.256.256,0,0,1,.074.106.252.252,0,0,1-.152.323,2.033,2.033,0,0,1-2.1-.628.252.252,0,0,1,.363-.35,1.542,1.542,0,0,0,1.567.5.252.252,0,0,1,.249.045" transform="translate(-56.035 -13.162)" fill="#76281d"/>
        <path id="Trazado_999880" data-name="Trazado 999880" d="M176.513,24.806c-1.525-.087-1.513-1.742.007-2.191a3.971,3.971,0,0,1,2.1-.163c1.9.505,1.6,1.862.5,2.145a10.624,10.624,0,0,1-2.605.208" transform="translate(-55.587 -7.09)" fill="#1f2930"/>
        <path id="Trazado_999881" data-name="Trazado 999881" d="M188.172,26.935c1.466.427,2.008-1.137.725-2.068a3.967,3.967,0,0,0-1.926-.854c-1.964-.159-2.127,1.221-1.184,1.857a10.633,10.633,0,0,0,2.386,1.066" transform="translate(-58.71 -7.607)" fill="#1f2930"/>
        <path id="Trazado_999882" data-name="Trazado 999882" d="M188.117,36.6a5.72,5.72,0,0,0,.6.067l.012-.049c.083-.339.165-.684.247-1.027q.089-.373.173-.745a5.969,5.969,0,0,0-.719-.163c-1.313-.216-2.447.038-2.534.567s.907,1.133,2.221,1.348" transform="translate(-58.92 -10.97)" fill="#76281d"/>
        <path id="Trazado_999883" data-name="Trazado 999883" d="M182.569,33.453a.236.236,0,0,0,.122-.012,4.108,4.108,0,0,0,1.725-.951.235.235,0,0,0,.033-.222l-1.064-2.931a.272.272,0,0,0-.011-.025,4.45,4.45,0,0,1,.089-2.43A.237.237,0,1,0,183,26.79a4.743,4.743,0,0,0-.055,2.721l1.006,2.771a5.685,5.685,0,0,1-1.429.717.237.237,0,0,0,.046.455" transform="translate(-57.804 -8.431)" fill="#1f2930"/>
        <path id="Trazado_999884" data-name="Trazado 999884" d="M169.774,31.034c-.087.529.908,1.132,2.221,1.348s2.448-.039,2.535-.568-.907-1.132-2.221-1.348-2.448.04-2.535.568" transform="translate(-53.81 -9.632)" fill="#76281d"/>
        <path id="Trazado_999885" data-name="Trazado 999885" d="M166.59,18.611a2.6,2.6,0,0,0,.017.27s1.066.706,1.079,3.121l1.553.307a11.566,11.566,0,0,0,1.189-5.01,2.787,2.787,0,0,1,.143-.746c.975-2.767,6.507-4.151,9.777-2.673a6.9,6.9,0,0,1,3.9,5.27,11.956,11.956,0,0,1-.158,2.8,8.8,8.8,0,0,0-.4-7.435c-2.554-4.943-9.841-6.467-13.733-3.022a9.124,9.124,0,0,0-3.368,7.119" transform="translate(-52.801 -3.052)" fill="#1f2930"/>
        <path id="Trazado_999886" data-name="Trazado 999886" d="M166.593,21.823a2.588,2.588,0,0,0,.017.27s1.066.706,1.079,3.121l1.553.307a11.565,11.565,0,0,0,1.189-5.01,2.786,2.786,0,0,1,.143-.746Z" transform="translate(-52.803 -6.265)" fill="#76281d"/>
        <path id="Trazado_999887" data-name="Trazado 999887" d="M176.432,15.522s2.834-.385,3.964.411,2.786,1.88,4.389,1.229,2.462,2.641,2.462,2.641-.475-5.608-5.018-5.569-4.428-.362-5.8,1.288" transform="translate(-55.922 -4.507)" fill="#1f2930"/>
        <path id="Trazado_999888" data-name="Trazado 999888" d="M165.7,24.526a3.154,3.154,0,0,0-3.6-2.127c-2.688.588-3.295,9.384,1.755,9.4Z" transform="translate(-50.731 -7.073)" fill="#9b4839"/>
        <path id="Trazado_999889" data-name="Trazado 999889" d="M163.232,33.438a.608.608,0,1,0,.608-.608.608.608,0,0,0-.608.608" transform="translate(-51.738 -10.406)" fill="#efebe6"/>
        <path id="Trazado_999890" data-name="Trazado 999890" d="M164.141,29.677a.248.248,0,0,0,.051,0,.236.236,0,0,0,.224-.249c-.006-.111-.17-2.733-2.32-3.615a.237.237,0,0,0-.18.438c1.876.77,2.026,3.178,2.027,3.2a.237.237,0,0,0,.2.221" transform="translate(-51.274 -8.177)" fill="#1f2930"/>
        <path id="Trazado_999891" data-name="Trazado 999891" d="M162.385,29.075a.235.235,0,0,0,.174-.04c.005,0,.555-.385,1.188-.747a.237.237,0,1,0-.234-.411c-.653.372-1.2.754-1.225.77a.237.237,0,0,0,.1.428" transform="translate(-51.407 -8.826)" fill="#1f2930"/>
        <path id="Trazado_999892" data-name="Trazado 999892" d="M134.035,59.286l-.165.055-.112.04-.116.043-.191.075-.146.061-.126.054-.217.1-.18.086-.171.087-.149.079-.148.08-.13.074c-.356.2-.632.381-.906.564-.53.36-.962.7-1.372,1.04a24.247,24.247,0,0,0-2.1,2,37.745,37.745,0,0,0-3.2,3.962,64.023,64.023,0,0,0-4.759,8.059c-.172.339-.338.679-.5,1.02l-.261.54c-.12.255-.245.516-.355.768a20.226,20.226,0,0,0-.975,2.85,31.118,31.118,0,0,0-.88,5.121,43.321,43.321,0,0,0-.175,4.794c.018.786.048,1.566.1,2.347.029.391.059.78.095,1.174l.064.594.074.646a5.209,5.209,0,0,0,10.015,1.322l.578-1.466a1.8,1.8,0,0,0,.038-.194l.037-.232.077-.477c.048-.321.1-.646.153-.97.1-.648.208-1.3.326-1.936.227-1.281.471-2.542.755-3.732a26.369,26.369,0,0,1,.96-3.25,8.686,8.686,0,0,1,.527-1.165l.359-.6.512-.87c1.372-2.3,2.781-4.533,4.217-6.551.714-1,1.442-1.951,2.128-2.754.336-.4.676-.751.94-1.024.128-.132.249-.244.3-.3.018-.023.037-.048-.012-.028l-.016,0-.031.014-.032.013-.053.024-.157.067-.149.06-.129.05-.085.031-.1.034-.149.05a6.528,6.528,0,0,0-4-12.429" transform="translate(-36.984 -18.691)" fill="#9b4839"/>
        <path id="Trazado_999893" data-name="Trazado 999893" d="M142.23,70.605c-2.867,2.778-8.519,10.073-10.7,15.077,0,0-11.618-5.323-12.679-10.526,0,0,.113-.208.335-.587q.094-.171.227-.379a71.018,71.018,0,0,1,5.865-8.486l.284-.341a32.508,32.508,0,0,1,5.632-5.494c.12-.082.24-.17.366-.252a11.127,11.127,0,0,1,3.858-1.794c.145-.031.29-.063.435-.082a5.731,5.731,0,0,1,.922-.076s7.33-.24,7.873,6.63a10.016,10.016,0,0,1-2.416,6.309" transform="translate(-37.67 -18.278)" fill="#376163"/>
        <path id="Trazado_999894" data-name="Trazado 999894" d="M126.958,69.518a8.214,8.214,0,0,1-1.244-.581l-.284.341a9.587,9.587,0,0,0,1.37.65c3.2,1.231,4.944,3.365,4.654,5.714a4.592,4.592,0,0,1-4.029,3.9,14.007,14.007,0,0,1-7.861-1.774q-.132.208-.227.378a15.181,15.181,0,0,0,7.034,1.9,8.754,8.754,0,0,0,1.105-.07A5.041,5.041,0,0,0,131.9,75.7c.316-2.57-1.534-4.874-4.938-6.181" transform="translate(-37.825 -21.85)" fill="#1e3436"/>
        <path id="Trazado_999895" data-name="Trazado 999895" d="M141.513,57.778c-.145.019-.29.051-.436.082,1.175,3.669,1.212,6.226.089,7.249-1.313,1.2-2.759,1.667-3.517,1.13-.676-.473-.676-1.68.006-3.309a2.833,2.833,0,0,0-.436-3.277c-.126.082-.246.17-.366.252a2.4,2.4,0,0,1,.4,2.848c-.77,1.844-.713,3.24.145,3.846a1.727,1.727,0,0,0,1.023.3,4.873,4.873,0,0,0,3.05-1.465,3.73,3.73,0,0,0,.96-2.848,16.858,16.858,0,0,0-.915-4.805" transform="translate(-43.332 -18.313)" fill="#1e3436"/>
        <path id="Trazado_999896" data-name="Trazado 999896" d="M137.576,91.041a.321.321,0,0,1-.287-.464c3.3-6.62,6.484-10.5,11.565-15.763a.321.321,0,1,1,.462.446c-5.035,5.213-8.19,9.058-11.453,15.6a.321.321,0,0,1-.288.178" transform="translate(-43.505 -23.682)" fill="#1e3436"/>
      </g>
    </g>
  </g>
</svg>
