<svg xmlns="http://www.w3.org/2000/svg" xmlns:xlink="http://www.w3.org/1999/xlink" width="820" height="430" viewBox="0 0 820 430">
  <defs>
    <clipPath id="clip-path">
      <rect id="Rectángulo_455123" data-name="Rectángulo 455123" width="420" height="372.007" fill="none"/>
    </clipPath>
    <clipPath id="clip-path-3">
      <rect id="Rectángulo_455105" data-name="Rectángulo 455105" width="169.124" height="8.964" fill="none"/>
    </clipPath>
    <clipPath id="clip-path-4">
      <rect id="Rectángulo_455107" data-name="Rectángulo 455107" width="99.605" height="8.274" fill="#ffa74d"/>
    </clipPath>
    <clipPath id="clip-path-5">
      <rect id="Rectángulo_455108" data-name="Rectángulo 455108" width="88.798" height="4.678" fill="none"/>
    </clipPath>
    <clipPath id="clip-path-7">
      <rect id="Rectángulo_455111" data-name="Rectángulo 455111" width="88.798" height="4.677" fill="none"/>
    </clipPath>
  </defs>
  <g id="Grupo_1183414" data-name="Grupo 1183414" transform="translate(-390 -487)">
    <g id="Grupo_1183394" data-name="Grupo 1183394">
      <rect id="Rectángulo_454477" data-name="Rectángulo 454477" width="820" height="430" transform="translate(390 487)" fill="#fff"/>
    </g>
    <g id="Grupo_1183413" data-name="Grupo 1183413" transform="translate(590 516)">
      <g id="Grupo_1183214" data-name="Grupo 1183214" clip-path="url(#clip-path)">
        <g id="Grupo_1183213" data-name="Grupo 1183213">
          <g id="Grupo_1183212" data-name="Grupo 1183212" clip-path="url(#clip-path)">
            <path id="Trazado_997274" data-name="Trazado 997274" d="M295.849,21.544a12.679,12.679,0,0,1,3.164-20.175,12.55,12.55,0,0,1,18.021,13.259c-1.558,9.937-13.978,13.966-21.185,6.916M297.3,4.93c-10.58,10.235,6.113,25.641,15.441,14.508,8.627-10.3-5.968-23.673-15.441-14.508" transform="translate(-40.138 0)" fill="#090807"/>
            <path id="Trazado_997275" data-name="Trazado 997275" d="M159.36,419.123c3.809,2.308,2.894,9.353-1.725,10.213-3.385.631-6.493-1.147-7.04-4.656-.775-4.97,4.537-8.118,8.765-5.557" transform="translate(-20.678 -57.453)" fill="#fdcb45"/>
            <path id="Trazado_997276" data-name="Trazado 997276" d="M127.854,388.6a25.081,25.081,0,0,0,12.459,6.06c1.23.192,4.217.141,5,.588a.96.96,0,0,1-.493,1.761,24.009,24.009,0,0,1-7.516-.993,27.753,27.753,0,0,1-19.889-22.735c-.153-1.127-.932-5.36,1.071-4.809,1.114.306.667,2.548.77,3.382a25.652,25.652,0,0,0,8.6,16.746" transform="translate(-16.092 -50.614)" fill="#090807"/>
            <path id="Trazado_997277" data-name="Trazado 997277" d="M372.164,50.843a25,25,0,0,0-16.35-8.586c-.947-.113-3.4.33-3.714-.845-.526-1.974,3.862-1.167,4.957-1.019A27.757,27.757,0,0,1,379.43,59.611c.663,2.232,1.443,5.893,1.148,8.182a.941.941,0,0,1-1.867.191c-.3-1.639-.2-3.548-.512-5.281a24.865,24.865,0,0,0-6.035-11.861" transform="translate(-48.365 -5.51)" fill="#090807"/>
            <path id="Trazado_997278" data-name="Trazado 997278" d="M87.83,388.994c12.377-1.684,12.45,17.312,0,15.618-8.482-1.154-8.444-14.469,0-15.618m-2.774,12.081c5.973,5.982,14.795-4.066,7.686-9.237-5.678-4.13-12.957,3.957-7.686,9.237" transform="translate(-11.194 -53.425)" fill="#090807"/>
            <path id="Trazado_997279" data-name="Trazado 997279" d="M297.574,5.228c9.473-9.164,24.068,4.211,15.441,14.508-9.328,11.132-26.021-4.273-15.441-14.508" transform="translate(-40.414 -0.298)" fill="#fefefe"/>
            <path id="Trazado_997280" data-name="Trazado 997280" d="M85.335,401.364c-5.271-5.28,2.008-13.367,7.686-9.237,7.109,5.171-1.713,15.219-7.686,9.237" transform="translate(-11.473 -53.714)" fill="#fefefe"/>
            <path id="Trazado_997281" data-name="Trazado 997281" d="M217.716,120.589A108.858,108.858,0,1,1,108.858,11.73,108.859,108.859,0,0,1,217.716,120.589" transform="translate(0 -1.611)" fill="#fdcb45"/>
            <path id="Trazado_997282" data-name="Trazado 997282" d="M323.228,336.347H141.544a7.823,7.823,0,0,1-7.823-7.823V65.372a7.823,7.823,0,0,1,7.823-7.822H323.228a7.824,7.824,0,0,1,7.823,7.823V328.524a7.824,7.824,0,0,1-7.823,7.823" transform="translate(-18.37 -7.906)" fill="#090807"/>
            <g id="Grupo_1183166" data-name="Grupo 1183166" transform="translate(129.454 308.046)" opacity="0.2">
              <g id="Grupo_1183165" data-name="Grupo 1183165">
                <g id="Grupo_1183164" data-name="Grupo 1183164" clip-path="url(#clip-path-3)">
                  <path id="Trazado_997283" data-name="Trazado 997283" d="M150.07,357.1l169.124,8.964V357.1Z" transform="translate(-150.07 -357.104)"/>
                </g>
              </g>
            </g>
            <rect id="Rectángulo_455106" data-name="Rectángulo 455106" width="169.124" height="244.629" transform="translate(129.454 63.416)" fill="#fff"/>
            <g id="Grupo_1183169" data-name="Grupo 1183169" transform="translate(164.941 80.394)">
              <g id="Grupo_1183168" data-name="Grupo 1183168">
                <g id="Grupo_1183167" data-name="Grupo 1183167" clip-path="url(#clip-path-4)">
                  <path id="Trazado_997284" data-name="Trazado 997284" d="M283.113,108.777H190.9a3.694,3.694,0,0,1-3.694-3.694V104.2A3.694,3.694,0,0,1,190.9,100.5h92.218a3.694,3.694,0,0,1,3.694,3.694v.888a3.694,3.694,0,0,1-3.694,3.694" transform="translate(-187.202 -100.502)" fill="#ffa74d"/>
                </g>
              </g>
            </g>
            <g id="Grupo_1183172" data-name="Grupo 1183172" transform="translate(191.166 112.664)" opacity="0.3">
              <g id="Grupo_1183171" data-name="Grupo 1183171">
                <g id="Grupo_1183170" data-name="Grupo 1183170" clip-path="url(#clip-path-5)">
                  <path id="Trazado_997285" data-name="Trazado 997285" d="M223.95,135.285H308.07a2.339,2.339,0,1,0,0-4.678H223.95a2.339,2.339,0,1,0,0,4.678" transform="translate(-221.611 -130.607)" fill="#021a39"/>
                </g>
              </g>
            </g>
            <g id="Grupo_1183175" data-name="Grupo 1183175" transform="translate(191.166 120.817)" opacity="0.3">
              <g id="Grupo_1183174" data-name="Grupo 1183174">
                <g id="Grupo_1183173" data-name="Grupo 1183173" clip-path="url(#clip-path-5)">
                  <path id="Trazado_997286" data-name="Trazado 997286" d="M223.95,144.736H308.07a2.339,2.339,0,1,0,0-4.678H223.95a2.339,2.339,0,1,0,0,4.678" transform="translate(-221.611 -140.058)" fill="#021a39"/>
                </g>
              </g>
            </g>
            <g id="Grupo_1183181" data-name="Grupo 1183181" transform="translate(191.166 176.363)" opacity="0.3">
              <g id="Grupo_1183180" data-name="Grupo 1183180">
                <g id="Grupo_1183179" data-name="Grupo 1183179" clip-path="url(#clip-path-7)">
                  <path id="Trazado_997289" data-name="Trazado 997289" d="M223.95,192.14H308.07a2.339,2.339,0,1,0,0-4.678H223.95a2.339,2.339,0,1,0,0,4.678" transform="translate(-221.611 -187.462)" fill="#021a39"/>
                </g>
              </g>
            </g>
            <g id="Grupo_1183184" data-name="Grupo 1183184" transform="translate(191.166 184.515)" opacity="0.3">
              <g id="Grupo_1183183" data-name="Grupo 1183183">
                <g id="Grupo_1183182" data-name="Grupo 1183182" clip-path="url(#clip-path-5)">
                  <path id="Trazado_997290" data-name="Trazado 997290" d="M223.95,201.59H308.07a2.339,2.339,0,1,0,0-4.678H223.95a2.339,2.339,0,1,0,0,4.678" transform="translate(-221.611 -196.912)" fill="#021a39"/>
                </g>
              </g>
            </g>
            <g id="Grupo_1183190" data-name="Grupo 1183190" transform="translate(191.166 250.134)" opacity="0.3">
              <g id="Grupo_1183189" data-name="Grupo 1183189">
                <g id="Grupo_1183188" data-name="Grupo 1183188" clip-path="url(#clip-path-7)">
                  <path id="Trazado_997292" data-name="Trazado 997292" d="M223.95,248.994H308.07a2.339,2.339,0,1,0,0-4.678H223.95a2.339,2.339,0,1,0,0,4.678" transform="translate(-221.611 -244.316)" fill="#021a39"/>
                </g>
              </g>
            </g>
            <g id="Grupo_1183193" data-name="Grupo 1183193" transform="translate(191.166 258.286)" opacity="0.3">
              <g id="Grupo_1183192" data-name="Grupo 1183192">
                <g id="Grupo_1183191" data-name="Grupo 1183191" clip-path="url(#clip-path-5)">
                  <path id="Trazado_997293" data-name="Trazado 997293" d="M223.95,258.444H308.07a2.339,2.339,0,1,0,0-4.678H223.95a2.339,2.339,0,1,0,0,4.678" transform="translate(-221.611 -253.766)" fill="#021a39"/>
                </g>
              </g>
            </g>
            <path id="Trazado_997301" data-name="Trazado 997301" d="M463,291.585a86.628,86.628,0,0,1-27.452,64.984l-.573.529a98.217,98.217,0,0,1-46.746,23.629A98.216,98.216,0,0,1,341.482,357.1q-.287-.264-.573-.529a86.628,86.628,0,0,1-27.452-64.984q.6-33.022-.055-66.052a1.987,1.987,0,0,1,1.246-1.884l.013-.005a197.155,197.155,0,0,1,147.134,0l.013.005a1.987,1.987,0,0,1,1.246,1.884q-.656,33.022-.055,66.052" transform="translate(-43.055 -28.768)" fill="#090807"/>
            <path id="Trazado_997302" data-name="Trazado 997302" d="M400.145,209.4a197.074,197.074,0,0,1,73.567,14.239l.013.006a1.985,1.985,0,0,1,1.246,1.884q-.656,33.022-.054,66.052a86.627,86.627,0,0,1-27.452,64.984q-.286.265-.573.528a98.21,98.21,0,0,1-46.746,23.63Z" transform="translate(-54.971 -28.767)" fill="#090807"/>
            <path id="Trazado_997303" data-name="Trazado 997303" d="M389.565,373.38a89.927,89.927,0,0,1-21.388-7.587,87.827,87.827,0,0,1-19.791-13.624q-.26-.238-.519-.48a78.116,78.116,0,0,1-24.724-58.551c.372-20.422.375-41.125.011-61.588a186.442,186.442,0,0,1,132.823,0c-.365,20.465-.361,41.167.011,61.588a78.112,78.112,0,0,1-24.725,58.551c-.173.162-.346.322-.519.481a87.83,87.83,0,0,1-19.79,13.623,89.929,89.929,0,0,1-21.388,7.587" transform="translate(-44.391 -30.13)" fill="#fdcb45"/>
            <path id="Trazado_997304" data-name="Trazado 997304" d="M441.842,351.689c-.174.162-.347.322-.52.48a87.808,87.808,0,0,1-19.79,13.623,89.913,89.913,0,0,1-21.388,7.588V219.323a186.332,186.332,0,0,1,66.412,12.227c-.365,20.465-.361,41.167.011,61.588a78.117,78.117,0,0,1-24.725,58.551" transform="translate(-54.971 -30.13)" fill="#be9834"/>
            <path id="Trazado_997305" data-name="Trazado 997305" d="M383.4,330.27,349.529,296.4l12.5-12.5L383.4,305.273l40.959-40.959,12.5,12.5Z" transform="translate(-48.018 -36.311)" fill="#090807"/>
            <g id="Elipse_13626" data-name="Elipse 13626" transform="translate(145 100.561)" fill="#fff" stroke="#b1b9c2" stroke-width="2">
              <circle cx="17.5" cy="17.5" r="17.5" stroke="none"/>
              <circle cx="17.5" cy="17.5" r="16.5" fill="none"/>
            </g>
            <g id="Elipse_13627" data-name="Elipse 13627" transform="translate(145 164.561)" fill="#fff" stroke="#b1b9c2" stroke-width="2">
              <circle cx="17.5" cy="17.5" r="17.5" stroke="none"/>
              <circle cx="17.5" cy="17.5" r="16.5" fill="none"/>
            </g>
            <g id="Elipse_13628" data-name="Elipse 13628" transform="translate(145 235.561)" fill="#fff" stroke="#b1b9c2" stroke-width="2">
              <circle cx="17.5" cy="17.5" r="17.5" stroke="none"/>
              <circle cx="17.5" cy="17.5" r="16.5" fill="none"/>
            </g>
            <path id="Trazado_997288" data-name="Trazado 997288" d="M187.787,141.69c-.068,0-.136,0-.2-.009a2.148,2.148,0,0,1-1.657-1.069,45.158,45.158,0,0,0-5.361-7.224,2.145,2.145,0,1,1,3.132-2.932,50.846,50.846,0,0,1,4.4,5.556c3.8-4.049,12.605-12.74,21.371-16.54a2.145,2.145,0,0,1,1.706,3.937c-10.489,4.547-21.651,17.408-21.762,17.537a2.145,2.145,0,0,1-1.625.744" transform="translate(-24.726 -16.388)" fill="#6063ec"/>
          </g>
        </g>
      </g>
    </g>
  </g>
</svg>
