<svg xmlns="http://www.w3.org/2000/svg" xmlns:xlink="http://www.w3.org/1999/xlink" width="80" height="80" viewBox="0 0 80 80">
  <defs>
    <clipPath id="clip-path">
      <rect id="Rect치ngulo_455100" data-name="Rect치ngulo 455100" width="45.251" height="62.533" fill="#12263f"/>
    </clipPath>
  </defs>
  <g id="Grupo_1183157" data-name="Grupo 1183157" transform="translate(-704.52 -12464.691)">
    <g id="Grupo_1183156" data-name="Grupo 1183156">
      <g id="Grupo_1183110" data-name="Grupo 1183110" transform="translate(524.852 6943.691)">
        <rect id="Rect치ngulo_402006" data-name="Rect치ngulo 402006" width="80" height="80" rx="5" transform="translate(179.668 5521)" fill="#5bc0be"/>
      </g>
    </g>
    <g id="Grupo_1183155" data-name="Grupo 1183155" transform="translate(723.894 12472.093)">
      <g id="Grupo_1183154" data-name="Grupo 1183154" clip-path="url(#clip-path)">
        <path id="Trazado_997253" data-name="Trazado 997253" d="M30.716,107.038a4.249,4.249,0,0,1,.235,3.908c-2.066,4.7-9.436,1.656-7.426-3.282A12.861,12.861,0,1,1,6.1,89.533c-.016-3.62.014-6.45,2.908-8.97.284-.247,1.337-.815,1.39-.878.073-.088.022-.217-.1-.323-.381-.339-1.088-.649-1.547-1.077C5.771,75.5,5.873,70.77,6.173,66.944a7.262,7.262,0,0,1,5-6.405c1.75-.485,9.6-.444,11.656-.241,1.582.156.877,2.311.5,3.334A6.946,6.946,0,0,1,20.4,66.953a8.426,8.426,0,0,1,.381,10.22c-.177.481-2.607,2.262-2.565,2.434.025.1,1.526,1.131,1.781,1.018l4.933-1.8c.436-.327,1.518-4.2,1.975-5.058a3.3,3.3,0,0,1,6.08,2.487,46.536,46.536,0,0,1-2.6,6.928c-1.186,1.844-5.954,2.533-7.925,3.563l-.028,3.782c2.7,1.039,5.554.055,7.069,3.122a71.075,71.075,0,0,1,3.5,8.85,4.3,4.3,0,0,1-.243,2.664c.887-.116,2.352.008,1.967,1.257a1.783,1.783,0,0,1-.483.62ZM21.808,62.183H12.04c-1.516,0-3.985,2.916-3.985,4.454v4.611c2.754-.873.907-3.684,2.347-5.233,4.067-.536,10.029,1.552,11.407-3.832m-3.024,14.48a6.165,6.165,0,0,0-.484-8.946l-6.5.161c-.253.176-.115,1.485-.216,1.973A4.864,4.864,0,0,1,8.2,73.225c.536,5.12,7.066,7.114,10.584,3.438M24,81.1a7.581,7.581,0,0,0,1.188,2.636,24.248,24.248,0,0,0,2.877-.995c.84-.428.875-.969,1.21-1.76a40.452,40.452,0,0,0,2.008-5.507,1.435,1.435,0,0,0-2.759-.714c-.784,1.534-1.155,3.661-1.952,5.238-.447.631-1.831.858-2.572,1.1m-3.439,9.063v-4.3a13.3,13.3,0,0,0-.7-1.96c-2.714-5.417-10.836-4-11.806,1.882h3.282c.1,0-.351-1.539.711-1.72,1.8-.308.994,2.588,1.163,3.6.944.04,2.286-.086,2.2,1.173-.088,1.335-1.988.489-2.2.7a10.684,10.684,0,0,0,.009,1.087c.077.08,1.763.282,2.179.4,10.021,2.834,9.317,17.107-.615,19.075A9.842,9.842,0,0,1,4.491,95.269c.294-.486,1.592-1.877,1.656-2.095.048-.161.193-1.46-.2-1.3a19.355,19.355,0,0,0-1.411,1.4A10.958,10.958,0,1,0,19.85,92.039c-.691-.567-1.93-1.057-2.41-1.5a1.146,1.146,0,0,1-.126-1.44c.794-.793,2.488.718,3.244,1.057m1.717-8.282c-1.772.216-.909.627-.547,1.564a5.3,5.3,0,0,1,.394,1.4,3,3,0,0,0,1.1-.405c.088-.525-.984-1.908-.95-2.564M11.336,87.658H8.054v6.173c0,.108.36.5.465.629a37.8,37.8,0,0,0,3.606,3.583A1.68,1.68,0,0,0,14.7,96.089c-.246-.786-3.368-3.136-3.368-3.664ZM6.65,95.316c-5.1,6.634,1.664,15.833,9.48,12.375,7.078-3.132,5.647-13.836-1.981-15.03.832,1.131,2.277,1.852,2.487,3.372a3.548,3.548,0,0,1-5.755,3.411c-1.47-1.1-2.724-3-4.23-4.128m16.408-2.656c.453.812,1.012,1.572,1.409,2.419,1.232,2.628,2.2,6.906,3.615,9.2a1.676,1.676,0,0,0,3.065-1.347c-1.384-2.427-2.115-6.715-3.582-8.919-.8-1.2-3.218-.9-4.507-1.352m3.281,12.5-.935-2.342-.626,2.343Zm.588,1.91c-3.386.494-1.513,5.865,1.5,4a2.187,2.187,0,0,0-1.5-4" transform="translate(0 -50.753)" fill="#12263f"/>
        <path id="Trazado_997254" data-name="Trazado 997254" d="M198.262,1.9a7.7,7.7,0,0,1-6.4,6.578,5.735,5.735,0,0,0,5.146,5.145,7.75,7.75,0,0,1,3.643-5.5c.545-.325,2.613-.936,2.7-1.054.59-.823-1.782-3.035.061-3.539,1.5-.409,2.074,3.539,2.036,4.543-.272,7.051-9.385,10.151-13.831,4.614A7.8,7.8,0,0,1,198.476.039c.657.063,3.153.7,3.349,1.339.819,2.66-3.3.246-3.563.517m-1.877.158a5.479,5.479,0,0,0-4.375,4.374,5.592,5.592,0,0,0,4.375-4.374m7.034,7.034a5.868,5.868,0,0,0-4.532,4.373,5.734,5.734,0,0,0,4.532-4.373" transform="translate(-160.199 0)" fill="#12263f"/>
        <path id="Trazado_997255" data-name="Trazado 997255" d="M89.775,117.178a1.019,1.019,0,0,1-1.646-.383c-.267-.913-.157-3.466,1.37-2.779.674.3.626,2.8.276,3.162" transform="translate(-74.259 -96.098)" fill="#12263f"/>
        <path id="Trazado_997256" data-name="Trazado 997256" d="M107.708,114.056c1.6-.456,1.625,2.595.905,3.258-1.652,1.521-2.063-2.928-.905-3.258" transform="translate(-90.318 -96.191)" fill="#12263f"/>
        <path id="Trazado_997257" data-name="Trazado 997257" d="M169.272,368.171c1.542-.282,1.453,2.3-.16,1.819a.962.962,0,0,1,.16-1.819" transform="translate(-142.191 -310.611)" fill="#12263f"/>
      </g>
    </g>
  </g>
</svg>
