<svg xmlns="http://www.w3.org/2000/svg" xmlns:xlink="http://www.w3.org/1999/xlink" width="820" height="430" viewBox="0 0 820 430">
  <defs>
    <clipPath id="clip-path">
      <rect id="Rectángulo_455178" data-name="Rectángulo 455178" width="420" height="368.71" fill="none"/>
    </clipPath>
    <clipPath id="clip-path-2">
      <rect id="Rectángulo_455177" data-name="Rectángulo 455177" width="420.001" height="368.71" fill="none"/>
    </clipPath>
    <clipPath id="clip-path-3">
      <rect id="Rectángulo_455175" data-name="Rectángulo 455175" width="149.428" height="219.082" fill="none"/>
    </clipPath>
    <clipPath id="clip-path-4">
      <rect id="Rectángulo_455176" data-name="Rectángulo 455176" width="214.748" height="277.415" fill="none"/>
    </clipPath>
  </defs>
  <g id="Grupo_1183411" data-name="Grupo 1183411" transform="translate(-390 -1005)">
    <g id="Grupo_1183409" data-name="Grupo 1183409" transform="translate(0 -0.137)">
      <rect id="Rectángulo_454477" data-name="Rectángulo 454477" width="820" height="430" transform="translate(390 1005.137)" fill="#fff"/>
    </g>
    <g id="Grupo_1183410" data-name="Grupo 1183410" transform="translate(590 1036)">
      <g id="Grupo_1183235" data-name="Grupo 1183235" clip-path="url(#clip-path)">
        <g id="Grupo_1183234" data-name="Grupo 1183234">
          <g id="Grupo_1183233" data-name="Grupo 1183233" clip-path="url(#clip-path-2)">
            <path id="Trazado_997562" data-name="Trazado 997562" d="M85.653,360.88,9.855,163.8A26.281,26.281,0,0,1,21.46,131.487L212.579,23.55s17.284-11.835,36.285-14.969a31.344,31.344,0,0,1,34.083,19.288c19.341,47.888,69.237,189.55,69.237,189.55s8.255,21.365-23.308,37.875l-11.168-19.909L157.465,321.819l10.2,26.221s-33.84,25.82-67.194,23.735a17.03,17.03,0,0,1-14.815-10.9" transform="translate(-5.635 -5.681)" fill="#e1e3ff"/>
            <g id="Grupo_1183229" data-name="Grupo 1183229" transform="translate(2.402 146.781)" opacity="0.2">
              <g id="Grupo_1183228" data-name="Grupo 1183228">
                <g id="Grupo_1183227" data-name="Grupo 1183227" clip-path="url(#clip-path-3)">
                  <path id="Trazado_997563" data-name="Trazado 997563" d="M7.957,482.4s7.09,20.506,64.874,0l84.491,199.463v2.844s-25.557,15.358-44.463,16.576-24.223-3.33-26.3-8.23-76.006-197.12-76.006-197.12-3.139-10.171-2.6-13.532" transform="translate(-7.894 -482.405)" fill="#01046c"/>
                </g>
              </g>
            </g>
            <g id="Grupo_1183232" data-name="Grupo 1183232" transform="translate(133.007 32.073)" opacity="0.2">
              <g id="Grupo_1183231" data-name="Grupo 1183231">
                <g id="Grupo_1183230" data-name="Grupo 1183230" clip-path="url(#clip-path-4)">
                  <path id="Trazado_997564" data-name="Trazado 997564" d="M437.137,342.478s57.669-23.9,105.742-56.919-2.428-180.151-2.428-180.151,65.068,155.872,80.606,177.723,29.621,1.942,29.621,1.942,3.974,6.635-2.505,19.463-20.8,18.412-20.8,18.412l-6.807-12.134-7.983-17.223L453.039,382.824Z" transform="translate(-437.137 -105.409)" fill="#01046c"/>
                </g>
              </g>
            </g>
            <path id="Trazado_997565" data-name="Trazado 997565" d="M98.759,368.71q-2.04,0-4.083-.126a19.568,19.568,0,0,1-16.987-12.49L1.891,159.019A28.943,28.943,0,0,1,14.6,123.634L205.626,15.748c1.553-1.05,18.386-12.206,37.2-15.31a34.055,34.055,0,0,1,36.8,20.816C298.764,68.645,348.4,209.492,348.9,210.909a25.149,25.149,0,0,1,.248,14.19c-1.842,7.248-7.632,17.769-24.752,26.724a2.493,2.493,0,0,1-3.331-.99L311.1,233.065,154.952,317.288l9.4,24.168a2.494,2.494,0,0,1-.811,2.887c-1.355,1.034-32.325,24.367-64.781,24.367M82.346,354.3a14.566,14.566,0,0,0,12.642,9.3c28.131,1.761,57.16-17.311,64.016-22.137l-9.5-24.425a2.493,2.493,0,0,1,1.141-3.1l160.242-86.434a2.491,2.491,0,0,1,3.359.975l9.965,17.763c26.774-15.1,20.082-33.422,20.009-33.61C343.7,211.15,294.1,70.409,275,23.122A29.026,29.026,0,0,0,243.634,5.361C225.391,8.37,208.52,19.812,208.352,19.928c-.059.041-.12.079-.183.113L17.052,127.978a23.925,23.925,0,0,0-10.5,29.25Z" transform="translate(0 0)" fill="#01046c"/>
            <path id="Trazado_997566" data-name="Trazado 997566" d="M159.612,609.507a2.5,2.5,0,0,1-2.316-1.568L83.861,424.589c-8.959,2.768-42.182,12.657-59.6,12.657-6.978,0-11.086-1.694-12.559-5.178-2.352-5.562,4.124-12.46,4.87-13.228a2.494,2.494,0,1,1,3.579,3.476c-2.086,2.16-4.588,6.078-3.854,7.811.213.5,1.413,2.129,7.964,2.129,19.057,0,59.892-12.982,60.3-13.113a2.5,2.5,0,0,1,3.075,1.448l74.294,185.493a2.5,2.5,0,0,1-2.315,3.422" transform="translate(-7.782 -290.874)" fill="#01046c"/>
            <path id="Trazado_997567" data-name="Trazado 997567" d="M846.732,235.813a2.5,2.5,0,0,1-2.33-1.6L768.652,36.578a2.495,2.495,0,0,1,1.808-3.332c5.638-1.206,20.554-6.112,21.851-14.222a5.227,5.227,0,0,0-1.227-4.715c-3.914-4.233-15.118-4.327-19.1-4.005a2.495,2.495,0,0,1-.406-4.973c1.714-.141,16.91-1.173,23.169,5.586a10.242,10.242,0,0,1,2.494,8.895c-1.684,10.528-16.576,15.811-22.923,17.6l74.746,195.013a2.5,2.5,0,0,1-2.328,3.387" transform="translate(-534.661 -3.613)" fill="#01046c"/>
            <path id="Trazado_997568" data-name="Trazado 997568" d="M300.991,323.594a2.495,2.495,0,0,1-1.156-4.706l48.072-25.1a2.494,2.494,0,0,1,2.309,4.422l-48.073,25.1a2.476,2.476,0,0,1-1.152.284" transform="translate(-194.473 -176.813)" fill="#01046c"/>
            <path id="Trazado_997570" data-name="Trazado 997570" d="M379.986,427.178a2.495,2.495,0,0,1-1.137-4.716l103.429-52.807a2.495,2.495,0,0,1,2.27,4.443L381.119,426.9a2.488,2.488,0,0,1-1.132.273" transform="translate(-262.631 -256.99)" fill="#01046c"/>
            <path id="Trazado_998843" data-name="Trazado 998843" d="M379.986,427.178a2.495,2.495,0,0,1-1.137-4.716l103.429-52.807a2.495,2.495,0,0,1,2.27,4.443L381.119,426.9a2.488,2.488,0,0,1-1.132.273" transform="translate(-257.532 -242.171)" fill="#01046c"/>
            <path id="Trazado_998844" data-name="Trazado 998844" d="M379.986,427.178a2.495,2.495,0,0,1-1.137-4.716l103.429-52.807a2.495,2.495,0,0,1,2.27,4.443L381.119,426.9a2.488,2.488,0,0,1-1.132.273" transform="translate(-250.967 -222.792)" fill="#01046c"/>
            <path id="Trazado_998845" data-name="Trazado 998845" d="M379.986,427.178a2.495,2.495,0,0,1-1.137-4.716l103.429-52.807a2.495,2.495,0,0,1,2.27,4.443L381.119,426.9a2.488,2.488,0,0,1-1.132.273" transform="translate(-244.482 -206.661)" fill="#01046c"/>
            <path id="Trazado_997572" data-name="Trazado 997572" d="M413.5,725.357a2.495,2.495,0,0,1-1.156-4.707l93.231-48.637a2.494,2.494,0,1,1,2.307,4.423l-93.231,48.637a2.483,2.483,0,0,1-1.151.283" transform="translate(-270.409 -485.015)" fill="#01046c"/>
            <path id="Trazado_997573" data-name="Trazado 997573" d="M861.409,542.062h0a10.213,10.213,0,0,0,12.757,2.021h0a10.213,10.213,0,0,1,14.487,4.707,10.213,10.213,0,0,0,11.508,5.864,10.213,10.213,0,0,1,12.323,8.953,10.213,10.213,0,0,0,9.133,9.133,10.213,10.213,0,0,1,8.953,12.324,10.212,10.212,0,0,0,5.864,11.508,10.213,10.213,0,0,1,4.707,14.487,10.212,10.212,0,0,0,2.02,12.757,10.213,10.213,0,0,1,0,15.233,10.212,10.212,0,0,0-2.02,12.757,10.213,10.213,0,0,1-4.707,14.487,10.213,10.213,0,0,0-5.864,11.509,10.213,10.213,0,0,1-8.953,12.323,10.213,10.213,0,0,0-9.133,9.133h0a10.213,10.213,0,0,1-12.323,8.953,10.213,10.213,0,0,0-11.508,5.863h0a10.213,10.213,0,0,1-14.487,4.707h0a10.213,10.213,0,0,0-12.757,2.02,10.213,10.213,0,0,1-15.233,0,10.213,10.213,0,0,0-12.757-2.02,10.213,10.213,0,0,1-14.487-4.707h0a10.213,10.213,0,0,0-11.508-5.863,10.213,10.213,0,0,1-12.323-8.953h0a10.213,10.213,0,0,0-9.133-9.133,10.212,10.212,0,0,1-8.953-12.323,10.213,10.213,0,0,0-5.864-11.509,10.213,10.213,0,0,1-4.707-14.487,10.213,10.213,0,0,0-2.021-12.757,10.213,10.213,0,0,1,0-15.233,10.213,10.213,0,0,0,2.021-12.757,10.213,10.213,0,0,1,4.707-14.487,10.213,10.213,0,0,0,5.864-11.508,10.213,10.213,0,0,1,8.953-12.324,10.214,10.214,0,0,0,9.133-9.133,10.213,10.213,0,0,1,12.323-8.953,10.213,10.213,0,0,0,11.508-5.864,10.213,10.213,0,0,1,14.487-4.707h0a10.213,10.213,0,0,0,12.757-2.021,10.213,10.213,0,0,1,15.233,0" transform="translate(-529.461 -374.758)" fill="#81d9e3"/>
            <path id="Trazado_997574" data-name="Trazado 997574" d="M847.184,720.493a13.117,13.117,0,0,1-9.772-4.374,7.348,7.348,0,0,0-9.147-1.449,13.1,13.1,0,0,1-18.587-6.039,7.347,7.347,0,0,0-8.251-4.2,13.1,13.1,0,0,1-15.811-11.488,7.348,7.348,0,0,0-6.548-6.548,13.1,13.1,0,0,1-11.488-15.811,7.347,7.347,0,0,0-4.2-8.251,13.1,13.1,0,0,1-6.039-18.588,7.348,7.348,0,0,0-1.449-9.146,13.1,13.1,0,0,1,0-19.544,7.348,7.348,0,0,0,1.449-9.147,13.1,13.1,0,0,1,6.039-18.587,7.347,7.347,0,0,0,4.2-8.251,13.1,13.1,0,0,1,11.488-15.811,7.348,7.348,0,0,0,6.548-6.548,13.1,13.1,0,0,1,15.811-11.488,7.347,7.347,0,0,0,8.251-4.2,13.1,13.1,0,0,1,18.587-6.04,7.348,7.348,0,0,0,9.147-1.448,13.118,13.118,0,0,1,9.771-4.374h0a13.118,13.118,0,0,1,9.772,4.374,7.348,7.348,0,0,0,9.146,1.449,13.1,13.1,0,0,1,18.587,6.039,7.348,7.348,0,0,0,8.252,4.2,13.1,13.1,0,0,1,15.811,11.488,7.349,7.349,0,0,0,6.549,6.548,13.1,13.1,0,0,1,11.488,15.811,7.346,7.346,0,0,0,4.2,8.251,13.1,13.1,0,0,1,6.039,18.587,7.349,7.349,0,0,0,1.448,9.147,13.1,13.1,0,0,1,0,19.544,7.348,7.348,0,0,0-1.448,9.146,13.1,13.1,0,0,1-6.039,18.588,7.347,7.347,0,0,0-4.2,8.251A13.1,13.1,0,0,1,915.3,686.392a7.348,7.348,0,0,0-6.549,6.548,13.1,13.1,0,0,1-15.811,11.488,7.349,7.349,0,0,0-8.252,4.2,13.1,13.1,0,0,1-18.587,6.039,7.348,7.348,0,0,0-9.146,1.449,13.118,13.118,0,0,1-9.772,4.374m-15.256-12.588a13.127,13.127,0,0,1,9.8,4.362,7.322,7.322,0,0,0,10.921,0,13.149,13.149,0,0,1,16.368-2.592A7.322,7.322,0,0,0,879.4,706.3a13.148,13.148,0,0,1,14.766-7.523,7.323,7.323,0,0,0,8.836-6.42,13.148,13.148,0,0,1,11.718-11.718,7.323,7.323,0,0,0,6.419-8.836,13.149,13.149,0,0,1,7.523-14.766,7.322,7.322,0,0,0,3.375-10.387,13.149,13.149,0,0,1,2.592-16.367,7.322,7.322,0,0,0,0-10.921A13.149,13.149,0,0,1,932.036,603a7.322,7.322,0,0,0-3.375-10.387,13.148,13.148,0,0,1-7.523-14.765,7.323,7.323,0,0,0-6.419-8.836A13.149,13.149,0,0,1,903,557.289a7.322,7.322,0,0,0-8.836-6.419,13.148,13.148,0,0,1-14.765-7.523,7.323,7.323,0,0,0-10.387-3.375,13.15,13.15,0,0,1-16.368-2.592,7.322,7.322,0,0,0-10.921,0,13.15,13.15,0,0,1-16.368,2.593,7.322,7.322,0,0,0-10.387,3.375A13.149,13.149,0,0,1,800.2,550.87a7.322,7.322,0,0,0-8.836,6.419,13.149,13.149,0,0,1-11.718,11.718,7.323,7.323,0,0,0-6.42,8.836,13.148,13.148,0,0,1-7.523,14.766A7.322,7.322,0,0,0,762.332,603a13.15,13.15,0,0,1-2.593,16.368,7.323,7.323,0,0,0,0,10.921,13.149,13.149,0,0,1,2.593,16.367,7.322,7.322,0,0,0,3.375,10.387A13.15,13.15,0,0,1,773.23,671.8a7.323,7.323,0,0,0,6.42,8.836,13.148,13.148,0,0,1,11.718,11.718,7.323,7.323,0,0,0,8.836,6.42,13.148,13.148,0,0,1,14.766,7.523,7.322,7.322,0,0,0,10.387,3.375,13.037,13.037,0,0,1,6.573-1.77" transform="translate(-522.852 -368.149)" fill="#01046c"/>
            <path id="Trazado_997575" data-name="Trazado 997575" d="M813.614,668.029A76.774,76.774,0,1,1,890.389,744.8a76.775,76.775,0,0,1-76.774-76.774" transform="translate(-566.057 -411.354)" fill="#01046c"/>
            <path id="Trazado_997576" data-name="Trazado 997576" d="M836.588,684.012A69.784,69.784,0,1,1,906.372,753.8a69.784,69.784,0,0,1-69.784-69.784" transform="translate(-582.041 -427.338)" fill="#059dbf"/>
            <path id="Trazado_997577" data-name="Trazado 997577" d="M1020.845,726.956c8.865-5.182,13.038-15.551,16.609-25.179a7.881,7.881,0,0,1,6.408,4.03,19.854,19.854,0,0,1,2.3,7.513c.793,5.253,1.083,10.806-.978,15.7l10.305.9c3.957.346,8.492,1.028,10.589,4.4a12.632,12.632,0,0,1,1.436,5.411q.99,9.292,1.346,18.638c.062,1.625.077,3.371-.83,4.721-1.021,1.522-2.98,2.178-4.075,3.648-1.975,2.65-.467,6.891-2.625,9.393a7.63,7.63,0,0,1-4.1,2.025c-11.31,2.8-23.18,2.81-34.724,1.223-4.365-.6-9.068-1.632-11.895-5.013-2.641-3.159-2.986-7.584-3.213-11.7-.3-5.508-.608-11.016-.747-16.53-.109-4.307.365-8.777,3.082-12.32,2.751-3.585,7.323-4.653,11.111-6.868" transform="translate(-700.35 -488.248)" fill="#e1e3ff"/>
            <path id="Trazado_997578" data-name="Trazado 997578" d="M938.31,778.608c-1.58,1.745-1.635,4.345-1.6,6.7q.124,8.859.249,17.718.11,7.843.22,15.687c.051,3.6.129,7.328,1.669,10.582a7.657,7.657,0,0,0,3.913,4.027,8.068,8.068,0,0,0,3.911.318,15.817,15.817,0,0,0,10.888-6.621c2.675-3.877,3.452-8.714,4.161-13.371.793-5.21,1.579-10.586.291-15.7-.987-3.918-2.387-7.265-2.673-11.343-.212-3.018-.2-5.917-3.185-7.39-2.178-1.075-5.544-1.042-7.916-1.573-3.177-.71-7.374-1.857-9.927.962" transform="translate(-651.693 -540.446)" fill="#cc4d05"/>
            <path id="Trazado_997579" data-name="Trazado 997579" d="M1008.637,718.34a9.222,9.222,0,0,1,7.449,12.333c-.287.795-1.6,2.443-1.629,2.751-.016.191,1.281,1.95,1.514,2.519a8.86,8.86,0,0,1-.064,7.147c-.265.621-1.4,2.029-1.4,2.371,0,.415,1,1.479,1.247,2.01a9.118,9.118,0,0,1-3.306,11.7c-.474.3-2.313.935-2.376,1.224a9.057,9.057,0,0,1-7.635,12.16c-15.879-.353-32.215,1.648-47.539-3.328-.817.01-1.787,1.4-2.682,1.953-5.018,3.1-16.976.571-23.017,1.406a3.247,3.247,0,0,1-2.836-2.306l-.007-55.552a2.945,2.945,0,0,1,2.083-2.287c6.5.454,13.909-.653,20.294-.009a8.878,8.878,0,0,1,6.941,5.393c4.557-3.052,11-5.024,15.165-8.487,5.385-4.479,5.023-13.484,7.025-19.712,3.029-3.878,10.617.1,13.329,2.84,7.572,7.643,3.722,17.414.09,25.876Zm1.07,35.391a3.2,3.2,0,0,0-.077-4.506c-2.638-2.288-11.017,1.487-11.017-3.763,0-4.345,6.248-2.643,9-2.956a3.056,3.056,0,0,0,.189-6.1c-2.646-.414-9.1,1.256-9.225-2.808-.165-5.41,8.3-1.854,10.959-3.821a3,3,0,0,0-1.4-5.27c-8.68-.59-18.445.811-26.995,0-1.991-.189-4.015-1.249-3.63-3.6.664-4.05,6.269-1.826,7.232-2.815,3.416-7.686,9.494-19.676-1.934-23.658-.884,5.135-1.765,11.138-4.579,15.6-4.581,7.268-15.405,9.469-21.854,14.652l-.012,38.606a74,74,0,0,0,15.263,3.118c1.874.156,3.783-.186,5.641.272,7.558-.75,17.039.991,24.368-.079,2.457-.359,3.974-2.634,2.365-4.8-1.483-2-5.38-.672-5.38-4.258,0-5.309,8.565-1.4,11.094-3.815M947.966,718.34H932.412v48.332h15.039a3.539,3.539,0,0,0,2.836-2.306l.121-43.07a3.235,3.235,0,0,0-2.443-2.956" transform="translate(-644.495 -478.671)" fill="#01046c"/>
            <path id="Trazado_997580" data-name="Trazado 997580" d="M967.8,906.717c4.606-1.189,5.492,5.629,1.214,5.859-3.736.2-4.168-5.1-1.214-5.859" transform="translate(-671.978 -630.735)" fill="#01046c"/>
          </g>
        </g>
      </g>
    </g>
  </g>
</svg>
