<svg xmlns="http://www.w3.org/2000/svg" xmlns:xlink="http://www.w3.org/1999/xlink" width="70" height="70" viewBox="0 0 70 70">
  <defs>
    <clipPath id="clip-path">
      <rect id="Rectángulo_455180" data-name="Rectángulo 455180" width="32.625" height="34.711" fill="#2142dc"/>
    </clipPath>
  </defs>
  <g id="Grupo_1183050" data-name="Grupo 1183050" transform="translate(-269 -958.087)">
    <circle id="Elipse_5614" data-name="Elipse 5614" cx="35" cy="35" r="35" transform="translate(269 958.087)" fill="#fff"/>
    <g id="Grupo_1183243" data-name="Grupo 1183243" transform="translate(287.688 975.732)">
      <g id="Grupo_1183242" data-name="Grupo 1183242" clip-path="url(#clip-path)">
        <path id="Trazado_997585" data-name="Trazado 997585" d="M9.423.034a10.162,10.162,0,0,1,9.658,15.208c-1.395,2.431-3.654,3.262-4.46,6.206a10.954,10.954,0,0,0-.238,2.1C13.3,33.258.568,32.414.071,23.208c-.227-4.206.18-8.614,0-12.842A10.291,10.291,0,0,1,9.423.034m.694,1.993a8.209,8.209,0,0,0-7.96,7.564c-.308,4.473.232,9.282,0,13.791.227,4.152,4.97,6.737,8.33,3.9,2.458-2.075,1.425-4.3,2.337-6.942,1.139-3.293,4.068-4.407,5.122-7.453a8.148,8.148,0,0,0-7.823-10.86" transform="translate(0 0)" fill="#2142dc"/>
        <path id="Trazado_997586" data-name="Trazado 997586" d="M202.482,214.988a8.141,8.141,0,1,1-13.276,3.088,8.169,8.169,0,0,1,13.276-3.088m-2.135.833a6.146,6.146,0,0,0-8.5,8.584Zm1.56,1.56-8.584,8.5a6.147,6.147,0,0,0,8.584-8.5" transform="translate(-172.349 -194.307)" fill="#2142dc"/>
        <path id="Trazado_997587" data-name="Trazado 997587" d="M50.405,50.849a3.067,3.067,0,0,1,3.443,2.325c.185.8.008,1.853-1.035,1.736-1.334-.15-.51-1.859-1.78-2.049-1.358-.2-1.179,1.4-1.04,2.26.268,1.649.836,2.044,1.526,3.331a3.12,3.12,0,0,1-1.838,4.465c-.846.2-2.132-.011-1.838-1.142.242-.934,1.118-.613,1.613-.992,1-.769.007-1.58-.4-2.3-1.854-3.312-1.95-8.662,1.666-10.824A6.108,6.108,0,0,1,59.932,54a6.039,6.039,0,0,1-2.125,3.512.982.982,0,0,1-1.41-.385c-.453-1.05.5-1.376.981-2.124a4.06,4.06,0,1,0-6.973-4.156" transform="translate(-43.653 -42.691)" fill="#2142dc"/>
      </g>
    </g>
  </g>
</svg>
